<svg width="25" height="24" viewBox="0 0 25 24" fill="none" xmlns="http://www.w3.org/2000/svg">
<g clip-path="url(#clip0_3351_4141)">
<path d="M16.7785 2.00951C16.7382 1.96438 15.2835 2.02732 14.0176 3.40126C12.7517 4.77401 12.9465 6.34863 12.975 6.38901C13.0035 6.42938 14.78 6.49232 15.914 4.89513C17.0481 3.29795 16.8189 2.05582 16.7785 2.00951ZM20.7139 15.9424C20.6569 15.8284 17.953 14.4771 18.2047 11.8788C18.4565 9.28057 20.1938 8.56688 20.2211 8.4897C20.2484 8.41251 19.5122 7.55157 18.732 7.11576C18.159 6.80879 17.5251 6.63277 16.8759 6.60038C16.7477 6.59682 16.3023 6.48757 15.3868 6.73813C14.7835 6.9032 13.4238 7.43757 13.0498 7.45895C12.6745 7.48032 11.5583 6.83907 10.3577 6.66926C9.58941 6.52082 8.77479 6.82482 8.19172 7.05876C7.60985 7.29151 6.5031 7.95413 5.72885 9.7152C4.9546 11.4751 5.35954 14.2633 5.64929 15.1302C5.93904 15.9971 6.39147 17.4149 7.16097 18.4504C7.84497 19.6189 8.75222 20.43 9.13104 20.7055C9.50985 20.981 10.5786 21.1639 11.3196 20.7851C11.9157 20.4193 12.9916 20.2091 13.4167 20.2246C13.8407 20.24 14.6767 20.4074 15.5328 20.8646C16.2109 21.0986 16.8522 21.0012 17.4946 20.7399C18.137 20.4775 19.0668 19.4824 20.1522 17.4648C20.5639 16.5267 20.7511 16.0192 20.7139 15.9424Z" fill="black"/>
<path d="M16.7785 2.00951C16.7382 1.96438 15.2835 2.02732 14.0176 3.40126C12.7517 4.77401 12.9465 6.34863 12.975 6.38901C13.0035 6.42938 14.78 6.49232 15.914 4.89513C17.0481 3.29795 16.8189 2.05582 16.7785 2.00951ZM20.7139 15.9424C20.6569 15.8284 17.953 14.4771 18.2047 11.8788C18.4565 9.28057 20.1938 8.56688 20.2211 8.4897C20.2484 8.41251 19.5122 7.55157 18.732 7.11576C18.159 6.80879 17.5251 6.63277 16.8759 6.60038C16.7477 6.59682 16.3023 6.48757 15.3868 6.73813C14.7835 6.9032 13.4238 7.43757 13.0498 7.45895C12.6745 7.48032 11.5583 6.83907 10.3577 6.66926C9.58941 6.52082 8.77479 6.82482 8.19172 7.05876C7.60985 7.29151 6.5031 7.95413 5.72885 9.7152C4.9546 11.4751 5.35954 14.2633 5.64929 15.1302C5.93904 15.9971 6.39147 17.4149 7.16097 18.4504C7.84497 19.6189 8.75222 20.43 9.13104 20.7055C9.50985 20.981 10.5786 21.1639 11.3196 20.7851C11.9157 20.4193 12.9916 20.2091 13.4167 20.2246C13.8407 20.24 14.6767 20.4074 15.5328 20.8646C16.2109 21.0986 16.8522 21.0012 17.4946 20.7399C18.137 20.4775 19.0668 19.4824 20.1522 17.4648C20.5639 16.5267 20.7511 16.0192 20.7139 15.9424Z" fill="black"/>
</g>
<defs>
<clipPath id="clip0_3351_4141">
<rect width="19" height="19" fill="white" transform="translate(3.5 2)"/>
</clipPath>
</defs>
</svg>
