<svg width="14" height="14" viewBox="0 0 14 14" fill="none" xmlns="http://www.w3.org/2000/svg">
<path d="M12.8333 12.8335L1.16663 12.8335" stroke="white" stroke-width="0.875" stroke-linecap="round"/>
<path d="M12.25 12.8332V3.49984C12.25 2.39989 12.25 1.84992 11.9083 1.50821C11.5666 1.1665 11.0166 1.1665 9.91665 1.1665H8.74999C7.65004 1.1665 7.10007 1.1665 6.75836 1.50821C6.4833 1.78328 6.42965 2.1933 6.41919 2.9165" stroke="white" stroke-width="0.875"/>
<path d="M8.75 12.8332V5.24984C8.75 4.14989 8.75 3.59992 8.40829 3.25821C8.06658 2.9165 7.51661 2.9165 6.41667 2.9165H4.08333C2.98339 2.9165 2.43342 2.9165 2.09171 3.25821C1.75 3.59992 1.75 4.14989 1.75 5.24984V12.8332" stroke="white" stroke-width="0.875"/>
<path d="M5.25 12.8335V11.0835" stroke="white" stroke-width="0.875" stroke-linecap="round"/>
<path d="M3.5 4.6665H7" stroke="white" stroke-width="0.875" stroke-linecap="round"/>
<path d="M3.5 6.4165H7" stroke="white" stroke-width="0.875" stroke-linecap="round"/>
<path d="M3.5 8.1665H7" stroke="white" stroke-width="0.875" stroke-linecap="round"/>
</svg>
