<svg width="19" height="18" viewBox="0 0 19 18" fill="none" xmlns="http://www.w3.org/2000/svg">
<path fill-rule="evenodd" clip-rule="evenodd" d="M11.5 1.5H13C14.4142 1.5 15.1213 1.5 15.5607 1.93934C16 2.37868 16 3.08579 16 4.5V15.9375H16.75C17.0607 15.9375 17.3125 16.1893 17.3125 16.5C17.3125 16.8107 17.0607 17.0625 16.75 17.0625H1.75C1.43934 17.0625 1.1875 16.8107 1.1875 16.5C1.1875 16.1893 1.43934 15.9375 1.75 15.9375H2.5V6.75C2.5 5.33579 2.5 4.62868 2.93934 4.18934C3.37868 3.75 4.08579 3.75 5.5 3.75H8.5C9.91421 3.75 10.6213 3.75 11.0607 4.18934C11.5 4.62868 11.5 5.33579 11.5 6.75V15.9375H12.625V6.75L12.625 6.68288C12.6251 6.03366 12.6252 5.43841 12.5601 4.95419C12.4884 4.42097 12.3197 3.85738 11.8562 3.39385C11.3926 2.93031 10.829 2.76164 10.2958 2.68995C9.81841 2.62576 9.23308 2.62493 8.59451 2.62499C8.65773 2.33456 8.76324 2.11544 8.93934 1.93934C9.37868 1.5 10.0858 1.5 11.5 1.5ZM4.1875 6C4.1875 5.68934 4.43934 5.4375 4.75 5.4375H9.25C9.56066 5.4375 9.8125 5.68934 9.8125 6C9.8125 6.31066 9.56066 6.5625 9.25 6.5625H4.75C4.43934 6.5625 4.1875 6.31066 4.1875 6ZM4.1875 8.25C4.1875 7.93934 4.43934 7.6875 4.75 7.6875H9.25C9.56066 7.6875 9.8125 7.93934 9.8125 8.25C9.8125 8.56066 9.56066 8.8125 9.25 8.8125H4.75C4.43934 8.8125 4.1875 8.56066 4.1875 8.25ZM4.1875 10.5C4.1875 10.1893 4.43934 9.9375 4.75 9.9375H9.25C9.56066 9.9375 9.8125 10.1893 9.8125 10.5C9.8125 10.8107 9.56066 11.0625 9.25 11.0625H4.75C4.43934 11.0625 4.1875 10.8107 4.1875 10.5ZM7 13.6875C7.31066 13.6875 7.5625 13.9393 7.5625 14.25V15.9375H6.4375V14.25C6.4375 13.9393 6.68934 13.6875 7 13.6875Z" fill="#595D62"/>
</svg>
