<svg width="17" height="16" viewBox="0 0 17 16" fill="none" xmlns="http://www.w3.org/2000/svg">
<g clip-path="url(#clip0_2697_4471)">
<path d="M2.16699 8.00032C2.16699 5.48617 2.16699 4.22909 2.94804 3.44804C3.72909 2.66699 4.98617 2.66699 7.50033 2.66699H10.167C12.6811 2.66699 13.9382 2.66699 14.7193 3.44804C15.5003 4.22909 15.5003 5.48617 15.5003 8.00033V9.33366C15.5003 11.8478 15.5003 13.1049 14.7193 13.8859C13.9382 14.667 12.6811 14.667 10.167 14.667H7.50032C4.98617 14.667 3.72909 14.667 2.94804 13.8859C2.16699 13.1049 2.16699 11.8478 2.16699 9.33366V8.00032Z" stroke="#595D62"/>
<path d="M5.5 2.66699V1.66699" stroke="#595D62" stroke-linecap="round"/>
<path d="M12.167 2.66699V1.66699" stroke="#595D62" stroke-linecap="round"/>
<path d="M6.8335 9.66699L7.8335 8.66699V11.3337" stroke="#595D62" stroke-linecap="round" stroke-linejoin="round"/>
<path d="M9.5 10.667V9.33366C9.5 8.96547 9.79848 8.66699 10.1667 8.66699C10.5349 8.66699 10.8333 8.96547 10.8333 9.33366V10.667C10.8333 11.0352 10.5349 11.3337 10.1667 11.3337C9.79848 11.3337 9.5 11.0352 9.5 10.667Z" stroke="#595D62" stroke-linecap="round"/>
<path d="M2.5 6H15.1667" stroke="#595D62" stroke-linecap="round"/>
</g>
<defs>
<clipPath id="clip0_2697_4471">
<rect x="0.833496" width="16" height="16" rx="3.33333" fill="white"/>
</clipPath>
</defs>
</svg>
