<svg width="44" height="44" viewBox="0 0 44 44" fill="none" xmlns="http://www.w3.org/2000/svg">
<rect width="44" height="44" rx="7" fill="black" fill-opacity="0.04"/>
<circle cx="15" cy="15" r="3" stroke="#5F489D" stroke-width="1.5"/>
<circle cx="29" cy="29" r="3" stroke="#5F489D" stroke-width="1.5"/>
<path d="M21 14.25C20.5858 14.25 20.25 14.5858 20.25 15C20.25 15.4142 20.5858 15.75 21 15.75V14.25ZM23 29L23.5303 29.5303C23.8232 29.2374 23.8232 28.7626 23.5303 28.4697L23 29ZM27.2056 18.6873L27.6083 19.3201L27.2056 18.6873ZM16.7943 25.3127L17.197 25.9454H17.197L16.7943 25.3127ZM22.0303 26.9697C21.7374 26.6768 21.2625 26.6768 20.9696 26.9697C20.6768 27.2626 20.6768 27.7374 20.9696 28.0303L22.0303 26.9697ZM20.9696 29.9697C20.6768 30.2626 20.6768 30.7374 20.9696 31.0303C21.2625 31.3232 21.7374 31.3232 22.0303 31.0303L20.9696 29.9697ZM26.1319 14.25H21V15.75H26.1319V14.25ZM23 28.25H17.8681V29.75H23V28.25ZM26.803 18.0546L16.3917 24.6799L17.197 25.9454L27.6083 19.3201L26.803 18.0546ZM23.5303 28.4697L22.0303 26.9697L20.9696 28.0303L22.4696 29.5303L23.5303 28.4697ZM22.4696 28.4697L20.9696 29.9697L22.0303 31.0303L23.5303 29.5303L22.4696 28.4697ZM17.8681 28.25C16.6175 28.25 16.1419 26.6168 17.197 25.9454L16.3917 24.6799C14.0706 26.157 15.1168 29.75 17.8681 29.75V28.25ZM26.1319 15.75C27.3824 15.75 27.858 17.3832 26.803 18.0546L27.6083 19.3201C29.9294 17.843 28.8831 14.25 26.1319 14.25V15.75Z" fill="#5F489D"/>
</svg>
