<svg width="25" height="24" viewBox="0 0 25 24" fill="none" xmlns="http://www.w3.org/2000/svg">
<path d="M22.109 13.5616L22.3382 11.1263C22.5182 9.2137 22.6082 8.25739 22.281 7.86207C22.104 7.64823 21.8633 7.5172 21.606 7.4946C21.1303 7.45282 20.5329 8.1329 19.3381 9.49307C18.7202 10.1965 18.4113 10.5482 18.0666 10.6027C17.8757 10.6328 17.6811 10.6018 17.5047 10.5131C17.1865 10.3529 16.9743 9.91812 16.5499 9.04851L14.3131 4.46485C13.5112 2.82162 13.1102 2 12.5 2C11.8898 2 11.4888 2.82162 10.6869 4.46486L8.45007 9.04852C8.0257 9.91812 7.81351 10.3529 7.49526 10.5131C7.31892 10.6018 7.12434 10.6328 6.93337 10.6027C6.58872 10.5482 6.27977 10.1965 5.66187 9.49307C4.46708 8.1329 3.86968 7.45282 3.39399 7.4946C3.13666 7.5172 2.89598 7.64823 2.71899 7.86207C2.3918 8.25739 2.4818 9.2137 2.66181 11.1263L2.891 13.5616C3.26865 17.5742 3.45748 19.5805 4.64009 20.7902C5.82271 22 7.59517 22 11.1401 22H13.8599C17.4048 22 19.1773 22 20.3599 20.7902C21.5425 19.5805 21.7313 17.5742 22.109 13.5616Z" fill="#5F489D"/>
</svg>
