<svg width="36" height="36" viewBox="0 0 36 36" fill="none" xmlns="http://www.w3.org/2000/svg">
<rect x="0.5" y="0.5" width="35" height="35" rx="17.5" stroke="#F5F5F5"/>
<path d="M23.6666 14H12.3333" stroke="#FF4E64" stroke-linecap="round"/>
<path d="M22.5555 15.6665L22.2489 20.2659C22.1309 22.0359 22.0719 22.9208 21.4952 23.4603C20.9185 23.9998 20.0316 23.9998 18.2577 23.9998H17.7422C15.9683 23.9998 15.0814 23.9998 14.5047 23.4603C13.928 22.9208 13.869 22.0359 13.751 20.2659L13.4444 15.6665" stroke="#FF4E64" stroke-linecap="round"/>
<path d="M16.3333 17.3335L16.6666 20.6668" stroke="#FF4E64" stroke-linecap="round"/>
<path d="M19.6666 17.3335L19.3333 20.6668" stroke="#FF4E64" stroke-linecap="round"/>
<path d="M14.3333 14C14.3706 14 14.3892 14 14.4061 13.9996C14.955 13.9857 15.4393 13.6366 15.6261 13.1202C15.6319 13.1043 15.6378 13.0867 15.6495 13.0513L15.7143 12.8571C15.7695 12.6914 15.7971 12.6085 15.8338 12.5381C15.98 12.2574 16.2505 12.0624 16.5631 12.0125C16.6414 12 16.7288 12 16.9035 12H19.0965C19.2712 12 19.3586 12 19.4369 12.0125C19.7495 12.0624 20.02 12.2574 20.1662 12.5381C20.2028 12.6085 20.2304 12.6914 20.2857 12.8571L20.3504 13.0513C20.3622 13.0866 20.3681 13.1043 20.3738 13.1202C20.5606 13.6366 21.0449 13.9857 21.5939 13.9996C21.6108 14 21.6294 14 21.6666 14" stroke="#FF4E64"/>
</svg>
