<svg width="20" height="20" viewBox="0 0 20 20" fill="none" xmlns="http://www.w3.org/2000/svg">
<path d="M9.05773 17.9252L9.59557 18.2435L9.05773 17.9252ZM9.27392 17.5599L8.73608 17.2416L8.73608 17.2416L9.27392 17.5599ZM7.39263 17.5599L7.93048 17.2416L7.93048 17.2416L7.39263 17.5599ZM7.60883 17.9252L7.07098 18.2435V18.2435L7.60883 17.9252ZM1.92036 14.2757L2.49779 14.0365V14.0365L1.92036 14.2757ZM5.24105 16.3208L5.26103 15.6961H5.26103L5.24105 16.3208ZM3.72435 16.0796L3.48517 16.6571H3.48517L3.72435 16.0796ZM14.7462 14.2757L15.3236 14.5148V14.5148L14.7462 14.2757ZM11.4255 16.3208L11.4055 15.6961L11.4255 16.3208ZM12.9422 16.0796L13.1814 16.6571L12.9422 16.0796ZM13.4083 5.4912L13.7349 4.9583V4.9583L13.4083 5.4912ZM14.5088 6.59168L15.0417 6.26512V6.26512L14.5088 6.59168ZM3.2583 5.4912L2.93173 4.9583V4.9583L3.2583 5.4912ZM2.15783 6.59168L1.62492 6.26512H1.62492L2.15783 6.59168ZM6.59694 16.5186L6.27874 17.0565H6.27874L6.59694 16.5186ZM9.59557 18.2435L9.81177 17.8783L8.73608 17.2416L8.51988 17.6068L9.59557 18.2435ZM6.85479 17.8783L7.07098 18.2435L8.14668 17.6068L7.93048 17.2416L6.85479 17.8783ZM8.51988 17.6068C8.48204 17.6708 8.41598 17.7083 8.33328 17.7083C8.25058 17.7083 8.18451 17.6708 8.14668 17.6068L7.07098 18.2435C7.6351 19.1966 9.03146 19.1966 9.59557 18.2435L8.51988 17.6068ZM7.33329 5.625H9.33329V4.375H7.33329V5.625ZM14.375 10.6667V11.3334H15.625V10.6667H14.375ZM2.29163 11.3334V10.6667H1.04163V11.3334H2.29163ZM1.04163 11.3334C1.04163 12.1014 1.04129 12.7087 1.07479 13.1998C1.10868 13.6964 1.17927 14.1197 1.34294 14.5148L2.49779 14.0365C2.40772 13.819 2.35144 13.5477 2.32189 13.1147C2.29196 12.676 2.29163 12.1185 2.29163 11.3334H1.04163ZM5.26103 15.6961C4.60081 15.675 4.24201 15.6176 3.96353 15.5022L3.48517 16.6571C3.98256 16.8631 4.53116 16.9234 5.22107 16.9455L5.26103 15.6961ZM1.34294 14.5148C1.74468 15.4847 2.51527 16.2553 3.48517 16.6571L3.96353 15.5022C3.29991 15.2273 2.77267 14.7001 2.49779 14.0365L1.34294 14.5148ZM14.375 11.3334C14.375 12.1185 14.3746 12.676 14.3447 13.1147C14.3151 13.5477 14.2589 13.819 14.1688 14.0365L15.3236 14.5148C15.4873 14.1197 15.5579 13.6964 15.5918 13.1998C15.6253 12.7087 15.625 12.1014 15.625 11.3334H14.375ZM11.4455 16.9455C12.1354 16.9234 12.684 16.8631 13.1814 16.6571L12.7031 15.5022C12.4246 15.6176 12.0658 15.675 11.4055 15.6961L11.4455 16.9455ZM14.1688 14.0365C13.8939 14.7001 13.3667 15.2273 12.7031 15.5022L13.1814 16.6571C14.1513 16.2553 14.9219 15.4847 15.3236 14.5148L14.1688 14.0365ZM9.33329 5.625C10.4365 5.625 11.2201 5.62566 11.8294 5.68359C12.4294 5.74064 12.7957 5.84879 13.0817 6.0241L13.7349 4.9583C13.2194 4.64241 12.6392 4.50496 11.9477 4.43921C11.2655 4.37434 10.4123 4.375 9.33329 4.375V5.625ZM15.625 10.6667C15.625 9.58764 15.6256 8.73447 15.5608 8.05225C15.495 7.36073 15.3576 6.78061 15.0417 6.26512L13.9759 6.91824C14.1512 7.20432 14.2593 7.57055 14.3164 8.17057C14.3743 8.77989 14.375 9.56344 14.375 10.6667H15.625ZM13.0817 6.0241C13.4461 6.24742 13.7525 6.55382 13.9759 6.91824L15.0417 6.26512C14.7153 5.7325 14.2675 5.28469 13.7349 4.9583L13.0817 6.0241ZM7.33329 4.375C6.25425 4.375 5.40108 4.37434 4.71887 4.43921C4.02735 4.50496 3.44722 4.64241 2.93173 4.9583L3.58486 6.0241C3.87094 5.84879 4.23716 5.74064 4.83718 5.68359C5.4465 5.62566 6.23005 5.625 7.33329 5.625V4.375ZM2.29163 10.6667C2.29163 9.56344 2.29229 8.77989 2.35022 8.17057C2.40727 7.57055 2.51542 7.20432 2.69073 6.91824L1.62492 6.26512C1.30903 6.78061 1.17158 7.36073 1.10583 8.05225C1.04097 8.73447 1.04163 9.58764 1.04163 10.6667H2.29163ZM2.93173 4.9583C2.39912 5.28469 1.95131 5.7325 1.62492 6.26512L2.69073 6.91824C2.91404 6.55382 3.22044 6.24742 3.58486 6.0241L2.93173 4.9583ZM7.93048 17.2416C7.76314 16.9589 7.61637 16.7096 7.47403 16.5137C7.32426 16.3075 7.15269 16.1212 6.91514 15.9807L6.27874 17.0565C6.31716 17.0793 6.37019 17.121 6.46266 17.2483C6.56255 17.3858 6.67564 17.5756 6.85479 17.8783L7.93048 17.2416ZM5.22107 16.9455C5.59227 16.9574 5.82956 16.9656 6.00981 16.9875C6.18022 17.0083 6.24417 17.0361 6.27874 17.0565L6.91514 15.9807C6.67374 15.8379 6.41972 15.7783 6.16116 15.7467C5.91244 15.7164 5.60977 15.7073 5.26103 15.6961L5.22107 16.9455ZM9.81177 17.8783C9.99091 17.5756 10.104 17.3858 10.2039 17.2483C10.2964 17.121 10.3494 17.0793 10.3878 17.0565L9.75142 15.9807C9.51387 16.1212 9.34229 16.3075 9.19253 16.5137C9.05019 16.7096 8.90341 16.9589 8.73608 17.2416L9.81177 17.8783ZM11.4055 15.6961C11.0568 15.7073 10.7541 15.7164 10.5054 15.7467C10.2468 15.7783 9.99282 15.8379 9.75142 15.9807L10.3878 17.0565C10.4224 17.0361 10.4863 17.0083 10.6567 16.9875C10.837 16.9656 11.0743 16.9574 11.4455 16.9455L11.4055 15.6961Z" fill="#595D62"/>
<path d="M18.0954 10.3629L18.6728 10.6021L18.0954 10.3629ZM16.4041 12.0542L16.6433 12.6316H16.6433L16.4041 12.0542ZM16.8411 2.12749L16.5145 2.66039L16.8411 2.12749ZM17.8727 3.15919L18.4056 2.83263V2.83263L17.8727 3.15919ZM7.32544 2.12749L6.99888 1.59459V1.59459L7.32544 2.12749ZM6.29375 3.15919L5.76085 2.83263L5.76085 2.83263L6.29375 3.15919ZM11.1457 2.29199H13.0207V1.04199H11.1457V2.29199ZM17.7082 6.97951V7.60452H18.9582V6.97951H17.7082ZM17.7082 7.60452C17.7082 8.3411 17.7079 8.86225 17.68 9.27184C17.6524 9.67582 17.6001 9.92544 17.5179 10.1237L18.6728 10.6021C18.8285 10.2261 18.8952 9.82456 18.9271 9.35693C18.9586 8.89492 18.9582 8.324 18.9582 7.60452H17.7082ZM17.5179 10.1237C17.2642 10.7363 16.7775 11.223 16.165 11.4767L16.6433 12.6316C17.5622 12.251 18.2922 11.5209 18.6728 10.6021L17.5179 10.1237ZM13.0207 2.29199C14.0558 2.29199 14.7882 2.29265 15.3572 2.34675C15.9168 2.39996 16.2535 2.50043 16.5145 2.66039L17.1676 1.59459C16.6772 1.29405 16.1266 1.16427 15.4755 1.10236C14.8336 1.04133 14.0316 1.04199 13.0207 1.04199V2.29199ZM18.9582 6.97951C18.9582 5.96866 18.9589 5.16664 18.8979 4.52478C18.836 3.87362 18.7062 3.32307 18.4056 2.83263L17.3398 3.48575C17.4998 3.74678 17.6003 4.08344 17.6535 4.6431C17.7076 5.21206 17.7082 5.94446 17.7082 6.97951H18.9582ZM16.5145 2.66039C16.8509 2.86653 17.1337 3.14936 17.3398 3.48575L18.4056 2.83263C18.0964 2.32804 17.6722 1.9038 17.1676 1.59459L16.5145 2.66039ZM11.1457 1.04199C10.1349 1.04199 9.33288 1.04133 8.69103 1.10236C8.03987 1.16427 7.48932 1.29405 6.99888 1.59459L7.652 2.66039C7.91303 2.50044 8.24969 2.39996 8.80934 2.34675C9.3783 2.29265 10.1107 2.29199 11.1457 2.29199V1.04199ZM6.99888 1.59459C6.49429 1.9038 6.07006 2.32804 5.76085 2.83263L6.82665 3.48575C7.03279 3.14936 7.31561 2.86653 7.652 2.66039L6.99888 1.59459ZM6.48512 5.03279C6.52675 4.23247 6.63084 3.80528 6.82665 3.48575L5.76085 2.83263C5.39658 3.42707 5.28119 4.11463 5.23681 4.96786L6.48512 5.03279ZM15.0207 12.9043C15.6596 12.8831 16.1744 12.8258 16.6433 12.6316L16.165 11.4767C15.9133 11.581 15.5865 11.6349 14.9792 11.655L15.0207 12.9043Z" fill="#595D62"/>
<path d="M6.25004 10.8333C6.25004 11.2936 5.87694 11.6667 5.41671 11.6667C4.95647 11.6667 4.58337 11.2936 4.58337 10.8333C4.58337 10.3731 4.95647 10 5.41671 10C5.87694 10 6.25004 10.3731 6.25004 10.8333Z" fill="#595D62"/>
<path d="M9.16671 10.8333C9.16671 11.2936 8.79361 11.6667 8.33337 11.6667C7.87314 11.6667 7.50004 11.2936 7.50004 10.8333C7.50004 10.3731 7.87314 10 8.33337 10C8.79361 10 9.16671 10.3731 9.16671 10.8333Z" fill="#595D62"/>
<path d="M12.0834 10.8333C12.0834 11.2936 11.7103 11.6667 11.25 11.6667C10.7898 11.6667 10.4167 11.2936 10.4167 10.8333C10.4167 10.3731 10.7898 10 11.25 10C11.7103 10 12.0834 10.3731 12.0834 10.8333Z" fill="#595D62"/>
</svg>
