<svg width="36" height="36" viewBox="0 0 36 36" fill="none" xmlns="http://www.w3.org/2000/svg">
<rect x="0.5" y="0.5" width="35" height="35" rx="17.5" stroke="#F5F5F5"/>
<path d="M12.6667 24.6665H23.3334" stroke="#595D62" stroke-linecap="round"/>
<path d="M19.2587 12.4421L19.7531 11.9478C20.5721 11.1287 21.9 11.1287 22.7191 11.9478C23.5381 12.7668 23.5381 14.0948 22.7191 14.9138L22.2247 15.4081M19.2587 12.4421C19.2587 12.4421 19.3205 13.4926 20.2474 14.4195C21.1743 15.3463 22.2247 15.4081 22.2247 15.4081M19.2587 12.4421L14.7141 16.9868C14.4062 17.2946 14.2523 17.4485 14.12 17.6182C13.9638 17.8184 13.83 18.035 13.7207 18.2642C13.6281 18.4585 13.5593 18.6649 13.4217 19.0779L12.8383 20.8279M22.2247 15.4081L17.6801 19.9528C17.3723 20.2606 17.2183 20.4145 17.0486 20.5469C16.8485 20.703 16.6319 20.8369 16.4027 20.9461C16.2084 21.0387 16.0019 21.1075 15.5889 21.2452L13.8389 21.8285M13.8389 21.8285L13.4111 21.9711C13.2079 22.0389 12.9838 21.986 12.8324 21.8345C12.6809 21.683 12.628 21.4589 12.6957 21.2557L12.8383 20.8279M13.8389 21.8285L12.8383 20.8279" stroke="#595D62"/>
</svg>
