<svg width="36" height="36" viewBox="0 0 36 36" fill="none" xmlns="http://www.w3.org/2000/svg">
<g clip-path="url(#clip0_2781_14515)">
<path d="M18 36C27.9411 36 36 27.9411 36 18C36 8.05887 27.9411 0 18 0C8.05887 0 0 8.05887 0 18C0 27.9411 8.05887 36 18 36Z" fill="#6DA544"/>
<path fill-rule="evenodd" clip-rule="evenodd" d="M30 22.9712V21.0194H7.54867L11.6307 22.9712H23.8769C23.8769 24.0486 25.2485 24.9231 26.9385 24.9231C28.6284 24.9231 30 24.0486 30 22.9712ZM15.1617 11.0769C15.1372 11.0769 15.1005 11.0886 15.0535 11.1159C14.9433 11.1862 14.727 11.4029 14.7188 11.6527C14.7127 11.7952 14.6841 11.7952 14.78 11.8869C14.8494 11.9806 14.9229 11.9728 15.0617 11.9006C15.1434 11.842 15.1699 11.8088 15.1985 11.7132C15.2311 11.5571 15.0209 11.7913 14.9944 11.6117C14.9474 11.4477 15.0821 11.3775 15.2087 11.2213C15.2127 11.1433 15.2127 11.0847 15.1617 11.0808V11.0769ZM17.2089 11.0867C17.1681 11.0945 17.1211 11.1452 17.0538 11.2584C17.0068 11.3794 16.8007 11.5629 16.9517 11.9416C17.0701 12.1816 17.1211 12.57 17.066 13.0053C16.9803 13.1283 16.964 13.1712 16.8517 13.2942C16.6966 13.4562 16.5251 13.4152 16.3986 13.3527C16.2761 13.2746 16.1822 13.2356 16.1271 12.9897C16.1373 12.5993 16.1618 11.9513 16.0863 11.8147C15.9761 11.6039 15.7924 11.6781 15.7148 11.7425C15.3413 12.0743 15.1556 12.6266 15.0413 13.0697C14.9392 13.3898 14.827 13.2961 14.7494 13.1673C14.5596 12.9955 14.5453 11.6644 14.3167 11.885C13.9493 12.8882 14.527 13.9871 14.929 13.8797C15.2148 13.9968 15.3985 13.4698 15.5169 12.894C15.5985 12.732 15.6597 12.7125 15.7006 12.7965C15.6903 13.5616 15.7618 13.7333 15.9659 13.9636C16.4231 14.3033 16.8027 14.0066 16.8333 13.9792L17.1905 13.6396C17.2721 13.5616 17.3742 13.5538 17.4865 13.624C17.5967 13.7216 17.5824 13.8836 17.813 13.9949C18.013 14.0729 18.4315 14.0144 18.5274 13.8524C18.66 13.6377 18.6907 13.5635 18.7519 13.4815C18.8458 13.3644 19.007 13.4171 19.007 13.4542C18.9927 13.5225 18.8988 13.5908 18.9621 13.7079C19.0744 13.786 19.1009 13.7353 19.1662 13.7177C19.3989 13.6123 19.5744 13.1283 19.5744 13.1283C19.5846 12.9487 19.4785 12.9624 19.4111 12.9994C19.3193 13.0521 19.3152 13.0697 19.2275 13.1224C19.1111 13.138 18.8907 13.2102 18.7825 13.0482C18.6703 12.8531 18.6703 12.5837 18.5845 12.3846C18.5845 12.3729 18.4355 12.0782 18.5723 12.0606C18.6396 12.0723 18.7907 12.1094 18.8131 11.9904C18.8866 11.8732 18.656 11.5414 18.4988 11.3775C18.3641 11.235 18.1763 11.2174 17.9947 11.3619C17.8661 11.4751 17.8865 11.6 17.86 11.7191C17.8293 11.8557 17.8355 12.0255 17.9824 12.207C18.109 12.4451 18.3396 12.7535 18.262 13.1868C18.262 13.1868 18.1294 13.3937 17.8947 13.3664C17.7926 13.3469 17.6334 13.3078 17.5477 12.7028C17.4865 12.248 17.564 11.6097 17.364 11.3111C17.317 11.1999 17.2783 11.0906 17.213 11.0964L17.2089 11.0867ZM16.5598 11.1374C16.4986 11.1433 16.4312 11.2116 16.3761 11.3424C16.3292 11.4438 16.27 11.9669 16.2802 11.9669C16.2394 12.1231 16.4496 12.1894 16.5455 11.9904C16.6884 11.6195 16.6884 11.4634 16.6966 11.3111C16.6762 11.194 16.6211 11.1355 16.5598 11.1394V11.1374ZM18.954 11.1764C18.8927 11.1843 18.8417 11.2194 18.8233 11.3092C18.7968 11.5161 18.8111 11.6312 18.8478 11.8049C18.8744 11.922 19.0519 12.1133 19.1377 12.2265C19.552 12.7594 19.9541 13.2942 20.3378 13.8465C20.399 14.2603 20.4398 14.6624 20.4704 15.0645C20.5358 15.9428 20.5521 17.0358 20.497 17.9629C20.6684 17.9688 20.946 17.6955 21.0419 17.2993C21.1032 16.745 21.0215 15.6207 21.0134 15.2928L20.9929 14.8283C21.442 15.5309 21.8747 16.2726 22.2992 17.0846C22.4564 17.0143 22.4217 16.177 22.3319 16.0599C21.989 15.3572 21.5155 14.6624 21.3665 14.395C21.3113 14.2974 21.1256 14.03 20.9072 13.7197C20.8664 13.2746 20.8215 12.8999 20.7929 12.7867C20.7215 12.3183 20.9929 12.8394 20.9562 12.5681C20.8664 12.0997 20.597 11.7835 20.2786 11.3541C20.1765 11.2174 20.1765 11.1862 20.0194 11.3892C19.9275 11.5941 19.9275 11.7659 19.9581 11.9259C19.9132 11.8674 19.8622 11.801 19.7887 11.7151L19.2683 11.2936C19.1968 11.2448 19.0581 11.1706 18.954 11.1764ZM26.0486 11.2487C26.018 11.2448 25.9874 11.2584 25.9465 11.3111C25.8751 11.3697 25.7996 11.4809 25.8037 11.6234C25.8179 11.8674 25.8649 12.1192 25.8812 12.3651L25.9016 12.4627C25.8731 12.4315 25.8486 12.4041 25.8343 12.3924C25.3301 11.885 26.0649 12.3065 25.7363 11.9181C25.4608 11.6254 25.3791 11.5356 25.1444 11.3599C25.0219 11.2897 24.9525 11.1491 24.9138 11.3872C24.8974 11.5961 24.8811 11.8401 24.8934 12.0157C24.8934 12.1133 25.0015 12.2987 25.0934 12.4061C25.4281 12.8023 25.771 13.2219 26.1139 13.6592C26.1874 14.5511 26.2057 15.3689 26.2772 16.2629C26.269 16.6454 26.1466 17.1529 26.0323 17.1997C26.0323 17.1997 25.8526 17.2973 25.7343 17.19C25.6465 17.1568 25.3016 16.6376 25.3016 16.6376C25.124 16.4815 25.0056 16.5264 24.8811 16.6376C24.5341 16.9577 24.3749 17.5589 24.1402 17.9727C24.079 18.0644 23.9096 18.1444 23.7198 17.9648C23.236 17.3325 23.5157 16.4327 23.4585 16.6649C23.0299 17.1295 23.2177 17.8985 23.3156 18.0644C23.4585 18.3376 23.5728 18.5133 23.8463 18.6441C24.1014 18.8197 24.2953 18.7124 24.4056 18.5855C24.6586 18.3357 24.6627 17.6935 24.7811 17.5667C24.8627 17.3325 25.073 17.3715 25.175 17.4769C25.2771 17.6135 25.3914 17.7014 25.5363 17.7755C25.773 17.9746 26.0547 18.0097 26.3323 17.8282C26.5221 17.7267 26.6466 17.594 26.7568 17.3325C26.8793 17.028 26.8181 15.4275 26.7915 14.5375L27.3222 15.2713C27.3957 16.0521 27.4304 16.823 27.4038 17.5608C27.3875 17.7072 27.9406 17.1236 27.9345 16.8465C27.9345 16.6064 27.9386 16.3858 27.9345 16.1828C28.206 16.5927 28.4652 17.0085 28.7101 17.432C28.8632 17.3539 28.8121 16.5283 28.7162 16.4171C28.459 16.0033 28.1284 15.5583 27.8733 15.2108C27.8222 14.7756 27.7549 14.2623 27.7222 14.1042C27.6753 13.8582 27.6263 13.4893 27.5528 13.1985C27.5324 13.0873 27.4712 12.7242 27.4916 12.6911C27.5202 12.6071 27.6345 12.6911 27.6896 12.5974C27.7712 12.5095 27.3997 11.5824 27.2099 11.3209C27.1426 11.2038 27.0181 11.2428 26.867 11.438C26.7242 11.5629 26.7772 11.8518 26.8303 12.127C26.9691 12.8296 27.0956 13.5401 27.1936 14.2545C27.0099 13.991 26.7854 13.6748 26.565 13.3722L26.5364 13.2356C26.5364 13.22 26.5078 12.6598 26.4813 12.5271C26.4752 12.4725 26.4609 12.4568 26.5221 12.4646C26.5833 12.5154 26.5915 12.5173 26.6303 12.5349C26.6956 12.5427 26.7527 12.4412 26.7119 12.3456L26.12 11.3033C26.0996 11.2779 26.071 11.2545 26.0384 11.2506L26.0486 11.2487ZM7.74053 11.2682C7.62827 11.2643 7.5099 11.3267 7.55684 11.4536C7.52826 11.5219 7.76911 11.7522 7.81197 11.8791C7.84667 11.9708 7.77115 12.2597 7.85279 12.289C7.92422 12.3183 8.02423 12.086 8.06097 11.8732C8.08138 11.7561 8.0671 11.3541 7.78135 11.2721C7.76706 11.2682 7.75278 11.2682 7.73645 11.2662L7.74053 11.2682ZM28.5999 11.2682C28.5733 11.2721 28.5427 11.3072 28.4978 11.4048C28.3856 11.5805 28.3468 11.8928 28.3917 12.166C28.657 13.9031 28.8611 15.5856 28.9019 17.1236C28.8775 17.272 28.8693 17.35 28.7999 17.5335C28.6407 17.7287 28.4652 17.9707 28.2998 18.0878C28.1366 18.2049 27.7855 18.3181 27.6712 18.404C27.3038 18.6031 27.3038 18.8334 27.5977 18.8432C28.1039 18.7846 28.704 18.7456 29.1163 18.1503C29.2265 17.9844 29.3571 17.5315 29.3612 17.2524C29.402 15.6324 29.3408 14.0417 29.0856 12.8687C29.0693 12.7516 29.0162 12.492 29.0367 12.4588C29.0673 12.3768 29.2326 12.4646 29.2918 12.3729C29.3795 12.287 28.8632 11.6566 28.6836 11.3872C28.6468 11.3209 28.6223 11.2643 28.5937 11.2701L28.5999 11.2682ZM23.2871 11.2955C23.2667 11.2994 23.2381 11.3306 23.1809 11.4029C23.0381 11.844 22.9891 12.2031 23.0442 12.4803C23.4116 14.2954 23.779 15.9447 23.7218 17.6721C23.8933 17.6721 24.0933 17.2954 24.179 16.9206C24.2259 16.4034 24.1463 16.0892 24.1341 15.7886C24.1198 15.4841 23.7749 13.0248 23.7055 12.7965C23.6198 12.3631 24.0402 12.7379 23.9953 12.4881C23.8484 12.168 23.485 11.7073 23.3748 11.4282C23.334 11.3541 23.3258 11.2857 23.2932 11.2916L23.2871 11.2955ZM10.3592 11.3306C10.3184 11.3384 10.2714 11.3736 10.2571 11.4282C10.2469 11.4673 10.2735 11.5317 10.2367 11.5512C10.2163 11.5707 10.1387 11.5571 10.1428 11.4536C10.1428 11.4185 10.1163 11.3833 10.102 11.3619C10.0857 11.3541 10.0755 11.3521 10.0469 11.3521C10.0122 11.3521 10.0122 11.3619 9.99383 11.3911C9.98567 11.4185 9.97342 11.4458 9.97342 11.477C9.96934 11.5161 9.95301 11.5258 9.92648 11.5317C9.89382 11.5317 9.89994 11.5356 9.87545 11.518C9.85504 11.5044 9.83871 11.4985 9.83871 11.4712C9.83871 11.4419 9.83055 11.3931 9.82238 11.3775C9.8081 11.358 9.78565 11.3502 9.76115 11.3443C9.62644 11.3443 9.61828 11.4965 9.6244 11.5512C9.6142 11.5629 9.61012 11.8244 9.79381 11.8986C10.0387 12.0118 10.5041 11.963 10.4878 11.5824C10.4878 11.5492 10.4776 11.436 10.4735 11.4068C10.449 11.3482 10.402 11.3287 10.3571 11.3345L10.3592 11.3306ZM13.6779 11.3345C13.5922 11.3384 13.5146 11.3619 13.4534 11.3931C13.2901 11.5434 13.2493 11.7835 13.3799 11.9337C13.5024 11.9923 13.6309 12.1094 13.5473 12.1777C13.1921 12.5388 12.2675 13.1458 12.2206 13.2571V13.2688H12.2288V13.2727C12.2757 13.302 12.8554 13.302 12.9186 13.2727H12.9227C13.1227 13.2005 14.0657 12.1699 14.0657 12.1699C14.0167 12.1309 13.9718 12.0997 13.9228 12.0587C13.8697 12.0157 13.8759 11.9728 13.9228 11.9298C14.1555 11.801 14.082 11.5141 13.9596 11.3833C13.8575 11.3404 13.7636 11.3248 13.6779 11.3306V11.3345ZM22.3523 11.3345C22.3278 11.3404 22.2972 11.3736 22.2502 11.4712C22.138 11.6468 22.0624 11.9494 22.0727 12.2324C22.3135 13.8329 22.387 15.2323 22.5462 16.8328C22.5584 16.9889 22.5339 17.2114 22.4278 17.3012C22.0278 17.6994 21.4542 18.1874 20.8297 18.4138C20.7623 18.486 20.997 18.7924 21.2991 18.7924C21.8053 18.7339 22.2502 18.4645 22.6666 17.7482C22.7748 17.5823 22.9687 17.2251 22.9727 16.948C23.0136 15.324 22.8911 14.0593 22.6339 12.8882C22.6196 12.7711 22.6299 12.6345 22.6503 12.6032C22.6829 12.5642 22.7931 12.6032 22.8544 12.5115C22.9401 12.4256 22.6217 11.7249 22.4421 11.4575C22.4053 11.3892 22.3849 11.3345 22.3523 11.3365V11.3345ZM8.91412 11.3872C8.84473 11.395 8.77942 11.4458 8.74676 11.5239C8.73655 11.7776 8.73451 12.0313 8.76717 12.2695C8.88963 12.6852 8.92433 13.0502 8.98352 13.4737C9.00393 14.0437 8.64063 13.7197 8.65695 13.4386C8.7386 13.0717 8.71819 12.4959 8.64471 12.3495C8.58348 12.2031 8.51816 12.168 8.37529 12.1933C8.26304 12.1855 7.97117 12.4861 7.88953 12.9936C7.88953 12.9936 7.82013 13.2512 7.79156 13.4815C7.75074 13.7411 7.57113 13.9265 7.44458 13.4464C7.33641 13.0951 7.27109 12.2363 7.08944 12.4354C7.03638 13.1068 6.97515 14.2896 7.57113 14.4106C8.29365 14.477 7.89361 13.2434 8.15486 13.019C8.20589 12.9116 8.29773 12.9097 8.30386 13.0482V14.0964C8.29569 14.436 8.52837 14.5375 8.71206 14.6077C8.90188 14.5941 9.02638 14.5999 9.09986 14.7756L9.1917 16.5908C9.1917 16.5908 9.62849 16.7079 9.6489 15.57C9.66931 14.9005 9.50602 14.3403 9.60195 14.2096C9.60603 14.0807 9.77748 14.0729 9.89586 14.1373C10.0857 14.2642 10.1694 14.4204 10.4633 14.3579C10.9123 14.2408 11.1776 14.0339 11.1838 13.706C11.1633 13.3937 11.1225 13.0814 10.9796 12.7691C11.0001 12.7145 10.898 12.5681 10.9184 12.5115C10.996 12.6286 11.1184 12.6208 11.1429 12.5115C11.0695 12.2714 10.9511 12.0431 10.7592 11.9455C10.6021 11.8088 10.3714 11.8381 10.2857 12.1153C10.2449 12.4354 10.4082 12.814 10.6531 13.1244C10.7021 13.2454 10.7755 13.4464 10.7429 13.6279C10.6143 13.6982 10.4857 13.667 10.3755 13.5596C10.3755 13.5596 10.0224 13.3059 10.0224 13.2473C10.1183 12.6715 10.0428 12.6032 9.99179 12.4471C9.95505 12.2246 9.84483 12.1543 9.75707 12.0021C9.66726 11.9103 9.54684 11.9103 9.49174 12.0021C9.33254 12.2617 9.40601 12.8218 9.52031 13.0697C9.60195 13.3 9.7285 13.4445 9.66931 13.4445C9.62032 13.5713 9.51827 13.542 9.44479 13.3918C9.34274 13.0795 9.31825 12.6188 9.31825 12.41C9.28763 12.1524 9.25294 11.6 9.07333 11.4595C9.02638 11.397 8.97127 11.3755 8.91617 11.3814L8.91412 11.3872ZM11.4491 11.3872C11.4144 11.395 11.3736 11.4146 11.3266 11.4263C11.1735 11.4712 11.0307 11.598 11.0756 11.844C11.2593 12.8979 11.3756 13.704 11.5573 14.758C11.5838 14.8829 11.4756 15.0449 11.3368 15.0313C11.1001 14.8751 11.0409 14.5628 10.6368 14.5785C10.3428 14.5785 10.0081 14.8868 9.9673 15.1796C9.91831 15.4138 9.90198 15.6676 9.9673 15.8706C10.1714 16.1048 10.4204 16.0814 10.6368 16.0267C10.8143 15.9584 10.9633 15.7925 11.0246 15.8315C11.0654 15.8959 11.0205 16.4444 10.1877 16.866C9.67339 17.0885 9.26518 17.1392 9.04475 16.7411C8.91004 16.4912 9.057 15.5387 8.72227 15.7573C7.73033 18.201 11.0429 18.5406 11.4123 15.8588C11.4368 15.7808 11.5083 15.7066 11.5613 15.7261C11.5818 15.7359 11.6022 15.7652 11.6103 15.8198C11.5328 18.2479 9.04679 18.4157 8.62634 17.6506C8.52021 17.471 8.48959 17.069 8.47938 16.8308C8.45897 16.6845 8.42224 16.6005 8.37733 16.5674C8.27528 16.4951 8.14057 16.6845 8.112 17.0104C8.07118 17.2739 8.08138 17.3461 8.08138 17.5999C8.21609 19.5185 11.4144 18.6929 11.9349 17.1119C12.192 16.2921 11.9287 15.6734 12.0165 15.5973L12.0226 15.5934H12.0287L12.0389 15.5895C12.3573 15.9174 12.8023 15.6285 12.9003 15.5173C12.9411 15.4587 13.0472 15.4197 13.1207 15.4978C13.3656 15.6656 13.8024 15.5856 13.8922 15.2831C13.9453 14.9903 13.9902 14.6897 14.0004 14.3755C13.8371 14.4243 13.7065 14.4594 13.6534 14.5121C13.6412 14.5258 13.633 14.5414 13.6289 14.557L13.5881 14.8166C13.5881 14.8263 13.584 14.8322 13.5799 14.8361C13.5738 14.8498 13.5595 14.8595 13.5513 14.8654C13.4942 14.8946 13.3942 14.879 13.3881 14.799C13.3125 14.4672 12.9962 14.4243 12.8043 14.9415C12.6757 15.0391 12.4369 15.0586 12.4165 14.9103C12.4471 14.5628 12.3002 14.516 12.0083 14.6799L11.7267 12.6501C11.8491 12.6442 11.9593 12.7281 12.0736 12.5954C11.9512 12.2363 11.6961 11.5063 11.5511 11.436H11.5471L11.5266 11.4165C11.5266 11.4126 11.5205 11.4107 11.5164 11.4087L11.5083 11.397C11.5001 11.397 11.4919 11.3931 11.4879 11.3911C11.4736 11.3872 11.4613 11.3872 11.447 11.3872H11.4491ZM21.3318 11.395C21.2052 11.3911 21.0664 11.4673 21.1195 11.6195C21.0868 11.7034 21.3909 11.9845 21.4399 12.1367C21.5277 12.371 21.3726 12.5993 21.4644 12.6325C21.5501 12.6676 21.6685 12.3885 21.7093 12.1289C21.7624 11.9181 21.6073 11.4887 21.3828 11.4009L21.3318 11.397V11.395ZM13.6309 11.6507C13.6881 11.6468 13.7575 11.6976 13.7942 11.7678C13.8289 11.8459 13.8106 11.9181 13.7534 11.9318C13.6922 11.9455 13.6146 11.8967 13.5779 11.8186C13.5411 11.7405 13.5575 11.6683 13.6187 11.6546H13.6309V11.6507ZM27.912 12.006C27.7957 12.0021 27.6671 12.084 27.7202 12.2499C27.6916 12.3397 27.9651 12.6442 28.0121 12.8121C28.0529 12.9292 27.9508 13.3117 28.0325 13.3469C28.11 13.3859 28.2162 13.0814 28.257 12.8004C28.2815 12.6442 28.1631 12.1075 27.961 12.0118C27.9467 12.0079 27.9304 12.004 27.9141 12.004L27.912 12.006ZM20.0133 12.1933C20.0275 12.2382 20.0377 12.2831 20.0439 12.33C20.0684 12.4276 20.0888 12.5251 20.1092 12.6266C20.0194 12.5056 19.9459 12.408 19.9112 12.3729C19.7071 12.1387 19.9153 12.2207 20.0133 12.1933ZM21.8359 13.0482C21.791 13.056 21.7481 13.0931 21.7338 13.1517C21.7216 13.1868 21.7502 13.2493 21.7134 13.2688C21.693 13.2883 21.6114 13.2766 21.6175 13.1712C21.6175 13.1361 21.591 13.099 21.5767 13.0795C21.5604 13.0697 21.5501 13.0658 21.5216 13.0658C21.4869 13.0658 21.4869 13.0756 21.4685 13.1048C21.4603 13.1322 21.4481 13.1595 21.4481 13.1927C21.4481 13.2317 21.4318 13.2434 21.4032 13.2512C21.3705 13.2512 21.3767 13.2512 21.3501 13.2376C21.3338 13.218 21.3154 13.2141 21.3154 13.1868C21.3154 13.1575 21.3093 13.1126 21.2991 13.0931C21.2848 13.0736 21.2644 13.0678 21.2379 13.0599C21.1052 13.0599 21.095 13.2083 21.1032 13.2629C21.095 13.2746 21.0889 13.5401 21.2726 13.6143C21.5216 13.7255 21.9869 13.6728 21.9665 13.2942C21.9665 13.261 21.9563 13.1478 21.9543 13.1185C21.9277 13.0599 21.8808 13.0404 21.8379 13.0463L21.8359 13.0482ZM13.5289 13.1263C13.5003 13.1263 13.4595 13.1341 13.4126 13.1614C13.1942 13.2746 13.1105 13.6104 13.2493 13.8055C13.3717 13.9812 13.5758 13.9168 13.6024 13.9168C13.8167 13.9441 13.9432 13.5342 13.9432 13.5342C13.9432 13.5342 13.9493 13.4171 13.6983 13.6357C13.5881 13.6552 13.5758 13.6162 13.5473 13.5577C13.5228 13.4542 13.5269 13.343 13.5779 13.2395C13.6024 13.1751 13.5779 13.1341 13.5289 13.1302V13.1263ZM25.2709 13.179C25.1485 13.1732 25.0199 13.2493 24.9852 13.4074C24.9852 13.5011 25.0301 13.5518 25.0219 13.6377C25.0117 13.6865 24.9607 13.7158 24.8342 13.6611C24.8546 13.6416 24.7525 13.5089 24.7525 13.5089C24.6566 13.4503 24.528 13.5089 24.4423 13.5635C24.3953 13.6455 24.3606 13.7841 24.4137 13.9246C24.5525 14.1725 25.0322 14.5941 25.2607 14.598C25.2648 14.3755 25.2873 14.0788 25.3016 13.8953C25.3056 13.8251 25.322 13.7489 25.3934 13.7314C25.4628 13.7119 25.5832 13.7977 25.5832 13.7255C25.571 13.585 25.5424 13.3742 25.4608 13.2766C25.4159 13.218 25.3444 13.1829 25.273 13.179H25.2709ZM15.5495 13.9539L15.5434 13.9597C15.5434 13.9597 15.5393 13.9597 15.5373 13.9636C15.5128 13.9832 15.4842 14.0222 15.4209 14.0612C15.3128 14.1783 15.2944 14.2623 15.2985 14.4965C15.3066 14.5219 15.5026 15.0488 15.672 15.4177C15.7863 15.8022 15.8904 16.2434 15.8149 16.6591C15.5495 17.2095 15.0188 17.7033 14.5025 17.9727C14.2371 18.0507 14.0126 18.0234 13.9514 17.9688C13.8004 17.8712 13.7983 17.6955 13.8085 17.6682V17.6623C14.2412 17.3735 14.7372 17.1392 15.125 16.3605C15.2393 16.0618 15.276 15.8823 15.1617 15.4236C15.1168 15.2479 15.0597 15.1113 14.9372 14.9864H14.9413C15.0148 14.9532 15.2066 15.0879 15.2372 15.0059C15.1903 14.7834 15.0331 14.4887 14.8596 14.3364C14.7045 14.1998 14.5331 14.1861 14.3943 14.3091C14.2351 14.395 14.2024 14.6995 14.278 14.9649C14.3637 15.164 14.5943 15.1991 14.7576 15.6032C14.7617 15.6305 14.8127 15.9057 14.7311 16.0189C14.6617 16.218 13.8024 16.866 13.7412 16.905L13.735 16.9089L13.731 16.9128H13.7228V16.907C13.7187 16.8914 13.7228 16.8484 13.7228 16.784C13.7167 16.663 13.7697 16.3878 13.7636 16.339V16.3351C13.4779 16.5107 13.3819 17.0475 13.3309 17.2075C12.6104 17.6818 11.794 18.0351 11.3225 18.5153C11.0776 18.8861 13.0125 18.0976 13.237 18.0019L13.2432 18.0078C13.2881 18.0527 13.2901 18.2088 13.4187 18.3513C13.6228 18.6109 14.0473 18.7709 14.4637 18.6714C15.1617 18.4313 15.5658 17.9766 15.9741 17.471C16.0312 17.393 16.123 17.3266 16.2088 17.3891C16.4884 17.9902 17.3007 18.4196 18.3478 18.4626C18.5927 18.1815 18.4764 18.0429 18.3784 17.9844C18.3478 17.9648 17.8579 17.7814 17.7804 17.5999C17.7334 17.432 17.8498 17.2817 18.0824 17.1705C18.756 17.0924 19.4173 17.0046 20.0582 16.8074C20.0643 16.6005 20.1908 16.2941 20.2765 16.1594C20.3378 16.0677 20.3725 16.0579 20.3868 16.0462V16.0423H20.3908V16.0169L20.2806 15.9545L18.1314 15.9467C18.1049 15.9369 18.0865 15.9272 18.0743 15.9174L18.0702 15.9115C18.0702 15.9115 18.0661 15.9115 18.0661 15.9076C18.0661 15.9037 18.062 15.9037 18.062 15.9037V15.9057V15.894L18.0661 15.8881C18.0763 15.8764 18.1028 15.8627 18.1335 15.8491C18.6478 15.7847 19.5581 15.6422 19.6193 14.8049C19.6091 14.3677 19.4234 14.0827 18.8642 14.0046C18.4519 14.0339 18.158 14.4145 18.2049 14.8322C18.1845 14.9434 18.2457 15.164 18.1233 15.1894C17.3354 15.2596 16.4741 15.732 16.4455 16.0716H16.4333C16.4333 16.0755 16.4272 16.0755 16.4272 16.0755H16.4068C16.3557 16.0599 16.2904 15.9779 16.3006 15.8667C16.27 15.2811 16.07 14.6175 15.7597 14.11C15.6475 14.0027 15.5965 13.9597 15.5679 13.9539H15.5495ZM17.6069 14.2623C17.5661 14.2701 17.5191 14.3052 17.5048 14.3638C17.4946 14.4028 17.5252 14.4653 17.4885 14.4848C17.4681 14.5043 17.3864 14.4926 17.3905 14.3872C17.3905 14.354 17.364 14.3169 17.3497 14.2954C17.3334 14.2857 17.3232 14.2837 17.2966 14.2837C17.2619 14.2837 17.2599 14.2915 17.2415 14.3189C17.2313 14.3462 17.2211 14.3774 17.2211 14.4067C17.217 14.4457 17.2007 14.4574 17.1742 14.4613C17.1415 14.4613 17.1497 14.4672 17.1232 14.4516C17.1068 14.436 17.0864 14.4282 17.0864 14.4008C17.0864 14.3716 17.0803 14.3228 17.0721 14.3032C17.0578 14.2896 17.0354 14.2837 17.0109 14.2759C16.8741 14.2759 16.868 14.4223 16.8741 14.4789C16.8639 14.4887 16.8578 14.7522 17.0415 14.8263C17.2864 14.9395 17.8783 14.8732 17.7355 14.5082C17.7355 14.475 17.7253 14.3618 17.7232 14.3325C17.6967 14.274 17.6497 14.2545 17.6048 14.2603L17.6069 14.2623ZM25.9037 14.5882H25.8833C25.8833 14.5882 24.7362 15.3689 24.7097 15.3963C24.5954 15.4939 24.6525 15.8315 24.7097 15.7925C24.7913 15.8218 25.9445 15.0742 25.922 14.9864C25.9731 14.9903 25.9976 14.6019 25.9016 14.5863L25.9037 14.5882ZM18.6907 14.7053C18.7356 14.6995 18.7968 14.7151 18.8539 14.7444C18.9417 14.7951 18.9968 14.8654 18.9866 14.92V14.9278C18.9825 14.9278 18.9825 14.9278 18.9825 14.9317V14.9356C18.9825 14.9356 18.9784 14.9356 18.9784 14.9395C18.9784 14.9434 18.9723 14.9473 18.9682 14.9513C18.9274 14.9903 18.8335 14.9825 18.7437 14.9317C18.658 14.8868 18.607 14.8146 18.6111 14.7639V14.758L18.6213 14.7385C18.6213 14.7385 18.6213 14.7346 18.6254 14.7326L18.6356 14.7209C18.6498 14.7112 18.6682 14.7014 18.6907 14.7014V14.7053ZM8.65287 14.9005C8.06097 14.9122 7.18945 15.6461 7.167 16.0521L9.04475 15.1933C8.9427 15.0449 9.03863 14.9122 8.65287 14.9005ZM10.5776 15.1542C10.6347 15.1581 10.6959 15.1855 10.7286 15.2635C10.7572 15.3358 10.7286 15.4099 10.6939 15.447V15.4529C10.6653 15.4841 10.5796 15.4724 10.5163 15.4724C10.4408 15.4685 10.4041 15.4568 10.3592 15.3982C10.3347 15.3299 10.4 15.2655 10.4306 15.2186L10.4449 15.1991C10.4653 15.1796 10.5061 15.164 10.5469 15.1601L10.5735 15.1562L10.5776 15.1542ZM25.6812 15.3826C25.573 15.3943 25.473 15.49 25.5179 15.6422C25.4893 15.732 25.6608 16.0462 25.7077 16.2121C25.7486 16.3292 25.6547 16.6669 25.7383 16.7001C25.8159 16.7391 26.018 16.5049 26.0118 16.2043C26.0323 16.0482 25.9547 15.4821 25.7526 15.3885C25.7281 15.3826 25.7036 15.3806 25.6792 15.3826H25.6812ZM12.8554 15.9369C12.7615 15.9428 12.6778 15.9896 12.7166 16.1165C12.7104 16.2063 12.9819 16.3175 12.9962 16.5264C13.0329 16.6161 12.935 16.8972 13.0166 16.9206C13.0901 16.9499 13.1921 16.7254 13.2309 16.5225C13.2513 16.4093 13.137 16.015 12.9452 15.9428C12.9145 15.935 12.8839 15.933 12.8533 15.935L12.8554 15.9369ZM16.6925 16.4366H16.717C16.9578 16.499 17.3089 16.5068 17.615 16.5342C17.8661 16.5537 17.9885 16.7372 17.7579 16.8172C17.5252 16.8914 17.3028 16.9538 17.3028 17.27C17.3313 17.4261 17.3232 17.5081 17.2987 17.5433C17.2987 17.5491 17.2905 17.555 17.2905 17.555C17.2905 17.555 17.2905 17.5589 17.2864 17.5589V17.5628H17.2803L17.266 17.5686H17.2558C17.2007 17.5784 17.1211 17.5296 17.0619 17.4984C16.9191 17.4008 16.521 17.1666 16.4639 16.6591C16.4557 16.542 16.5455 16.4444 16.6884 16.4346L16.6925 16.4366ZM7.316 16.8269C7.30171 16.8269 7.27518 16.8699 7.23436 16.9187C6.87922 17.4554 6.84656 18.2576 7.0425 18.4996C7.14455 18.6109 7.316 18.6616 7.44254 18.6265C7.66705 18.5348 7.76298 18.1034 7.70788 17.9473C7.63644 17.836 7.57725 17.8185 7.50377 17.9121C7.34661 18.2147 7.27926 18.0058 7.26905 17.8341C7.24456 17.5159 7.27722 17.2193 7.31396 16.985C7.33437 16.8679 7.33437 16.823 7.31396 16.823L7.316 16.8269ZM19.352 17.5335C19.3254 17.5335 19.2989 17.5374 19.2703 17.553C19.2642 17.553 19.0172 17.7092 18.9376 17.8224C18.8886 17.8575 18.8968 17.8868 18.9091 17.9492C18.9458 18.0332 19.0111 18.0078 19.0887 17.9688C19.1907 17.9531 19.2377 18.0175 19.2315 18.1327C19.1846 18.2791 19.2519 18.3318 19.2519 18.3415C19.2519 18.3494 19.3479 18.4294 19.4622 18.3669C19.701 18.2791 19.85 18.1913 20.1867 18.1229C20.2745 18.1229 20.2684 17.8965 20.1296 17.8887C19.9459 17.8965 19.7826 17.9082 19.5989 18.0449C19.4867 18.0683 19.4683 18.0019 19.4418 17.9434C19.4132 17.7989 19.5071 17.6975 19.4867 17.5881C19.4907 17.594 19.4295 17.5413 19.3499 17.5374L19.352 17.5335ZM27.0589 17.8068L26.8956 17.8224C26.8221 17.836 26.7976 17.8673 26.7834 17.9531C26.7895 18.08 26.8711 18.0742 26.9568 18.1249C27.0058 18.1835 27.0385 18.2381 26.9528 18.3396C26.8711 18.4079 26.816 18.4469 26.7344 18.5153C26.6997 18.5777 26.6731 18.6714 26.7915 18.7026C27.0058 18.7612 27.5018 18.4528 27.5018 18.4489C27.5834 18.3903 27.5549 18.2791 27.5487 18.2791C27.4998 18.2283 27.3936 18.2596 27.3242 18.2498C27.2895 18.2498 27.1814 18.2342 27.2303 18.1405C27.2752 18.082 27.2916 18.0488 27.3222 17.9766C27.3528 17.9063 27.3222 17.8595 27.2038 17.8204C27.1426 17.8087 27.1018 17.8048 27.0548 17.8068H27.0589Z" fill="white"/>
</g>
<defs>
<clipPath id="clip0_2781_14515">
<rect width="36" height="36" fill="white"/>
</clipPath>
</defs>
</svg>
