<svg width="36" height="36" viewBox="0 0 36 36" fill="none" xmlns="http://www.w3.org/2000/svg">
<path d="M27 3.7125C24.3563 2.08125 21.3188 1.125 18 1.125V3.7125H27Z" fill="#ED4C5C"/>
<path d="M18 6.2999H30.15C29.1937 5.34365 28.125 4.44365 27 3.7124H18V6.2999Z" fill="white"/>
<path d="M18 8.8873H32.2312C31.6125 7.93105 30.9375 7.0873 30.2063 6.2998H18V8.8873Z" fill="#ED4C5C"/>
<path d="M18 11.4752H33.5813C33.1875 10.5752 32.7375 9.6752 32.2312 8.8877H18V11.4752Z" fill="white"/>
<path d="M18 14.0626H34.425C34.2 13.1626 33.9188 12.3188 33.5813 11.4751H18V14.0626Z" fill="#ED4C5C"/>
<path d="M18 16.7062H34.8188C34.7625 15.8062 34.5938 14.9624 34.425 14.1187H18V16.7062Z" fill="white"/>
<path d="M34.8188 16.7061H18V17.9998H1.125C1.125 18.4498 1.125 18.8436 1.18125 19.2936H34.8188C34.875 18.8436 34.875 18.4498 34.875 17.9998C34.875 17.5498 34.875 17.0998 34.8188 16.7061Z" fill="#ED4C5C"/>
<path d="M1.57515 21.8814H34.4251C34.6501 21.0377 34.7626 20.1939 34.8189 19.2939H1.1814C1.23765 20.1377 1.35015 21.0377 1.57515 21.8814Z" fill="white"/>
<path d="M2.4187 24.4688H33.5812C33.9187 23.6251 34.2 22.7813 34.425 21.8813H1.57495C1.79995 22.7813 2.0812 23.6251 2.4187 24.4688Z" fill="#ED4C5C"/>
<path d="M3.7687 27.0562H32.2312C32.7375 26.2125 33.1875 25.3688 33.5812 24.4688H2.4187C2.81245 25.3688 3.26245 26.2125 3.7687 27.0562Z" fill="white"/>
<path d="M5.7938 29.6437H30.2063C30.9375 28.8562 31.6688 27.9562 32.2313 27.0562H3.7688C4.3313 28.0124 5.06255 28.8562 5.7938 29.6437Z" fill="#ED4C5C"/>
<path d="M8.9437 32.2311H27.0562C28.2375 31.4998 29.25 30.5998 30.2062 29.6436H5.7937C6.74995 30.6561 7.8187 31.4998 8.9437 32.2311Z" fill="white"/>
<path d="M17.9999 34.8752C21.3186 34.8752 24.4124 33.9189 27.0561 32.2314H8.9436C11.5874 33.9189 14.6811 34.8752 17.9999 34.8752Z" fill="#ED4C5C"/>
<path d="M9 3.7125C7.81875 4.44375 6.75 5.34375 5.79375 6.3C5.00625 7.0875 4.33125 7.9875 3.76875 8.8875C3.2625 9.73125 2.75625 10.575 2.41875 11.475C2.08125 12.3187 1.8 13.1625 1.575 14.0625C1.35 14.9062 1.2375 15.75 1.18125 16.65C1.125 17.1 1.125 17.55 1.125 18H18V1.125C14.6812 1.125 11.6438 2.08125 9 3.7125Z" fill="#428BC1"/>
<path d="M14.0624 1.6875L14.3436 2.53125H15.1874L14.5124 3.09375L14.7374 3.9375L14.0624 3.43125L13.3874 3.9375L13.6124 3.09375L12.9374 2.53125H13.7811L14.0624 1.6875ZM16.3124 5.0625L16.5936 5.90625H17.4374L16.7624 6.46875L16.9874 7.3125L16.3124 6.80625L15.6374 7.3125L15.8624 6.46875L15.1874 5.90625H16.0311L16.3124 5.0625ZM11.8124 5.0625L12.0936 5.90625H12.9374L12.2624 6.46875L12.4874 7.3125L11.8124 6.80625L11.1374 7.3125L11.3624 6.46875L10.6874 5.90625H11.5311L11.8124 5.0625ZM14.0624 8.4375L14.3436 9.28125H15.1874L14.5124 9.84375L14.7374 10.6875L14.0624 10.1813L13.3874 10.6875L13.6124 9.84375L12.9374 9.28125H13.7811L14.0624 8.4375ZM9.56235 8.4375L9.8436 9.28125H10.6874L10.0124 9.84375L10.2374 10.6875L9.56235 10.1813L8.88735 10.6875L9.11235 9.84375L8.43735 9.28125H9.2811L9.56235 8.4375ZM5.06235 8.4375L5.3436 9.28125H6.18735L5.51235 9.84375L5.73735 10.6875L5.06235 10.1813L4.38735 10.6875L4.61235 9.84375L3.93735 9.28125H4.7811L5.06235 8.4375ZM16.3124 11.8125L16.5936 12.6562H17.4374L16.7624 13.2188L16.9874 14.0625L16.3124 13.5563L15.6374 14.0625L15.8624 13.2188L15.1874 12.6562H16.0311L16.3124 11.8125ZM11.8124 11.8125L12.0936 12.6562H12.9374L12.2624 13.2188L12.4874 14.0625L11.8124 13.5563L11.1374 14.0625L11.3624 13.2188L10.6874 12.6562H11.5311L11.8124 11.8125ZM7.31235 11.8125L7.5936 12.6562H8.43735L7.76235 13.2188L7.98735 14.0625L7.31235 13.5563L6.63735 14.0625L6.86235 13.2188L6.18735 12.6562H7.0311L7.31235 11.8125ZM14.0624 15.1875L14.3436 16.0312H15.1874L14.5124 16.5938L14.7374 17.4375L14.0624 16.9313L13.3874 17.4375L13.6124 16.5938L12.9374 16.0312H13.7811L14.0624 15.1875ZM9.56235 15.1875L9.8436 16.0312H10.6874L10.0124 16.5938L10.2374 17.4375L9.56235 16.9313L8.88735 17.4375L9.11235 16.5938L8.43735 16.0312H9.2811L9.56235 15.1875ZM5.06235 15.1875L5.3436 16.0312H6.18735L5.51235 16.5938L5.73735 17.4375L5.06235 16.9313L4.38735 17.4375L4.61235 16.5938L3.93735 16.0312H4.7811L5.06235 15.1875ZM6.63735 7.3125L7.31235 6.80625L7.98735 7.3125L7.7061 6.46875L8.3811 5.90625H7.53735L7.31235 5.0625L7.0311 5.90625H6.2436L6.9186 6.4125L6.63735 7.3125ZM2.13735 14.0625L2.81235 13.5563L3.48735 14.0625L3.2061 13.2188L3.8811 12.6562H3.0936L2.81235 11.8125L2.5311 12.6562H1.9686C1.9686 12.7125 1.91235 12.7687 1.91235 12.825L2.36235 13.1625L2.13735 14.0625Z" fill="white"/>
</svg>
