<svg width="45" height="44" viewBox="0 0 45 44" fill="none" xmlns="http://www.w3.org/2000/svg">
<path d="M0.5 22C0.5 9.84974 10.3497 0 22.5 0C34.6503 0 44.5 9.84974 44.5 22C44.5 34.1503 34.6503 44 22.5 44C10.3497 44 0.5 34.1503 0.5 22Z" fill="#F5F5F5"/>
<path fill-rule="evenodd" clip-rule="evenodd" d="M21.366 15.841C22.1043 15.1025 23.1058 14.6876 24.15 14.6875H26.175C26.3242 14.6875 26.4673 14.7468 26.5727 14.8523C26.6782 14.9577 26.7375 15.1008 26.7375 15.25V17.95C26.7375 18.0992 26.6782 18.2423 26.5727 18.3477C26.4673 18.4532 26.3242 18.5125 26.175 18.5125H24.15C24.1352 18.5125 24.1206 18.5154 24.1069 18.5211C24.0933 18.5267 24.0809 18.535 24.0705 18.5455C24.06 18.5559 24.0517 18.5683 24.0461 18.5819C24.0404 18.5956 24.0375 18.6102 24.0375 18.625V20.0875H26.175C26.2605 20.0875 26.3449 20.1069 26.4218 20.1444C26.4987 20.1818 26.566 20.2363 26.6186 20.3037C26.6712 20.3711 26.7078 20.4496 26.7256 20.5333C26.7433 20.6169 26.7418 20.7035 26.721 20.7865L26.046 23.4865C26.0155 23.6082 25.9453 23.7163 25.8463 23.7935C25.7474 23.8707 25.6255 23.9126 25.5 23.9125H24.0375V28.75C24.0375 28.8992 23.9782 29.0423 23.8727 29.1477C23.7673 29.2532 23.6242 29.3125 23.475 29.3125H20.775C20.6258 29.3125 20.4827 29.2532 20.3773 29.1477C20.2718 29.0423 20.2125 28.8992 20.2125 28.75V23.9125H18.75C18.6008 23.9125 18.4577 23.8532 18.3523 23.7477C18.2468 23.6423 18.1875 23.4992 18.1875 23.35V20.65C18.1875 20.5761 18.202 20.503 18.2303 20.4347C18.2586 20.3665 18.3 20.3045 18.3523 20.2523C18.4045 20.2 18.4665 20.1586 18.5347 20.1303C18.603 20.102 18.6761 20.0875 18.75 20.0875H20.2125V18.625C20.2126 17.5808 20.6275 16.5793 21.366 15.841ZM24.15 15.8125C23.4041 15.8125 22.6887 16.1088 22.1613 16.6363C21.6338 17.1637 21.3375 17.8791 21.3375 18.625V20.65C21.3375 20.7992 21.2782 20.9423 21.1727 21.0477C21.0673 21.1532 20.9242 21.2125 20.775 21.2125H19.3125V22.7875H20.775C20.9242 22.7875 21.0673 22.8468 21.1727 22.9523C21.2782 23.0577 21.3375 23.2008 21.3375 23.35V28.1875H22.9125V23.35C22.9125 23.2008 22.9718 23.0577 23.0773 22.9523C23.1827 22.8468 23.3258 22.7875 23.475 22.7875H25.0605L25.4543 21.2125H23.475C23.3258 21.2125 23.1827 21.1532 23.0773 21.0477C22.9718 20.9423 22.9125 20.7992 22.9125 20.65V18.625C22.9125 18.2968 23.0429 17.982 23.275 17.75C23.507 17.5179 23.8218 17.3875 24.15 17.3875H25.6125V15.8125H24.15Z" fill="#595D62"/>
</svg>
