<svg width="20" height="20" viewBox="0 0 20 20" fill="none" xmlns="http://www.w3.org/2000/svg">
<path d="M12.8273 3.37812L12.4092 3.84268V3.84268L12.8273 3.37812ZM16.1263 6.3472L15.7082 6.81176L16.1263 6.3472ZM18.0448 8.46183L17.4739 8.7161V8.7161L18.0448 8.46183ZM2.64281 17.3571L3.08476 16.9152H3.08476L2.64281 17.3571ZM17.3569 17.3571L16.9149 16.9152L17.3569 17.3571ZM11.6665 17.7084H8.33317V18.9584H11.6665V17.7084ZM2.2915 11.6667V8.33341H1.0415V11.6667H2.2915ZM17.7082 11.3025V11.6667H18.9582V11.3025H17.7082ZM12.4092 3.84268L15.7082 6.81176L16.5444 5.88264L13.2454 2.91356L12.4092 3.84268ZM18.9582 11.3025C18.9582 9.89553 18.9708 9.00468 18.6158 8.20755L17.4739 8.7161C17.6956 9.2138 17.7082 9.78512 17.7082 11.3025H18.9582ZM15.7082 6.81176C16.836 7.82683 17.2522 8.21841 17.4739 8.7161L18.6158 8.20755C18.2608 7.41042 17.5902 6.82385 16.5444 5.88264L15.7082 6.81176ZM8.358 2.29175C9.67616 2.29175 10.1736 2.3014 10.6169 2.47153L11.0648 1.3045C10.3549 1.0321 9.5815 1.04175 8.358 1.04175V2.29175ZM13.2454 2.91356C12.3404 2.09907 11.7745 1.57687 11.0648 1.3045L10.6169 2.47153C11.0604 2.64169 11.4344 2.96539 12.4092 3.84268L13.2454 2.91356ZM8.33317 17.7084C6.74415 17.7084 5.61526 17.7071 4.75888 17.5919C3.92047 17.4792 3.43743 17.2678 3.08476 16.9152L2.20087 17.799C2.82451 18.4227 3.6153 18.6994 4.59232 18.8308C5.55136 18.9597 6.77949 18.9584 8.33317 18.9584V17.7084ZM1.0415 11.6667C1.0415 13.2204 1.04018 14.4486 1.16912 15.4076C1.30047 16.3846 1.57724 17.1754 2.20087 17.799L3.08476 16.9152C2.73208 16.5625 2.52069 16.0794 2.40797 15.241C2.29283 14.3847 2.2915 13.2558 2.2915 11.6667H1.0415ZM11.6665 18.9584C13.2202 18.9584 14.4483 18.9597 15.4074 18.8308C16.3844 18.6994 17.1752 18.4227 17.7988 17.799L16.9149 16.9152C16.5622 17.2678 16.0792 17.4792 15.2408 17.5919C14.3844 17.7071 13.2555 17.7084 11.6665 17.7084V18.9584ZM17.7082 11.6667C17.7082 13.2558 17.7068 14.3847 17.5917 15.241C17.479 16.0794 17.2676 16.5625 16.9149 16.9152L17.7988 17.799C18.4224 17.1754 18.6992 16.3846 18.8306 15.4076C18.9595 14.4486 18.9582 13.2204 18.9582 11.6667H17.7082ZM2.2915 8.33341C2.2915 6.7444 2.29283 5.61551 2.40797 4.75912C2.52069 3.92071 2.73208 3.43768 3.08476 3.085L2.20087 2.20112C1.57724 2.82475 1.30047 3.61554 1.16912 4.59256C1.04018 5.5516 1.0415 6.77973 1.0415 8.33341H2.2915ZM8.358 1.04175C6.79598 1.04175 5.56185 1.04043 4.5989 1.16931C3.61843 1.30053 2.825 1.57699 2.20087 2.20112L3.08476 3.085C3.43694 2.73281 3.92147 2.52112 4.76471 2.40826C5.62546 2.29306 6.76076 2.29175 8.358 2.29175V1.04175Z" fill="#595D62"/>
<path d="M5 12.0833H11.6667" stroke="#595D62" stroke-width="1.25" stroke-linecap="round"/>
<path d="M5 15H9.58333" stroke="#595D62" stroke-width="1.25" stroke-linecap="round"/>
<path d="M10.8335 2.08325V4.16659C10.8335 6.13077 10.8335 7.11286 11.4437 7.72306C12.0539 8.33325 13.036 8.33325 15.0002 8.33325H18.3335" stroke="#595D62" stroke-width="1.25"/>
</svg>
