<svg width="170" height="76" viewBox="0 0 170 76" fill="none" xmlns="http://www.w3.org/2000/svg">
<g clip-path="url(#clip0_2005_2006)">
<path d="M49.9735 36.5768C49.2132 34.4465 48.1842 32.4651 46.9042 30.6893C44.9841 28.0238 42.5017 25.819 39.5597 24.2878C36.6213 22.7565 33.2266 21.9058 29.5385 21.9094H28.9975C26.7556 22.0086 24.5315 22.5935 22.4487 23.5505C20.8858 24.2701 19.3971 25.1952 18.0322 26.2976C15.9848 27.9493 14.2097 29.9946 12.8978 32.3269C11.5895 34.6592 10.7408 37.2928 10.5994 40.0859C10.5817 40.4333 10.5746 40.7807 10.5746 41.1281C10.5746 45.7679 12.1481 50.0462 14.8462 53.2434C16.1934 54.842 17.8271 56.1677 19.6835 57.1176C21.5399 58.0676 23.6156 58.6311 25.8151 58.7162C26.0378 58.7233 26.2571 58.7268 26.4798 58.7268C28.6121 58.7268 30.6842 58.3299 32.5937 57.5642C34.0258 56.99 35.373 56.2031 36.5859 55.2248C37.2719 54.6754 37.9119 54.0622 38.506 53.3923C41.1156 50.6736 42.8094 47.0617 43.0887 43.074C43.0993 42.9322 43.1029 42.7905 43.0993 42.6522C43.0958 42.4289 43.0746 42.2056 43.0392 41.9858C43.0392 41.9468 43.0463 41.9079 43.0498 41.8689H43.018C42.9013 41.2344 42.6609 40.6389 42.3179 40.1179C41.8405 39.3877 41.1651 38.7922 40.3518 38.4165C39.8108 38.1648 39.2097 38.0088 38.5802 37.984C38.46 37.9805 38.3398 37.9769 38.2231 37.9805C37.4664 37.9982 36.7875 38.1329 36.0626 38.2959C35.3377 38.459 34.5633 38.6575 33.6651 38.8631C32.6397 39.097 31.6955 39.3203 30.8575 39.4834C30.6877 39.5153 30.5286 39.5436 30.366 39.572C30.366 39.572 25.9317 40.5574 24.1566 39.3629C24.1566 39.3629 23.5661 43.1733 26.6849 43.9495C26.7627 43.9673 26.837 43.985 26.9148 43.9992C26.9466 44.0027 26.9749 44.0098 27.0067 44.0169C27.6008 44.1268 28.1913 44.1622 28.7747 44.1516C29.7578 44.1338 30.7196 43.9885 31.692 43.8007C32.6609 43.6128 33.6404 43.3789 34.6411 43.152C35.6064 42.9322 36.4056 42.7267 37.0279 42.5849C37.6503 42.4431 38.0958 42.3757 38.3044 42.3757C38.3363 42.3757 38.3646 42.3757 38.3858 42.3757C38.4317 42.3757 38.4671 42.3864 38.5025 42.4041C38.5378 42.4218 38.5767 42.4466 38.6085 42.4821C38.6757 42.553 38.7111 42.638 38.7146 42.7302V42.7656C38.5484 45.1015 37.6255 47.6784 36.3242 49.4755L36.3313 49.4932C36.1191 49.7981 35.8999 50.0887 35.6701 50.3652C34.5208 51.737 33.1382 52.7861 31.5859 53.4986C30.0336 54.2111 28.3115 54.5903 26.4834 54.5903C26.3136 54.5903 26.1439 54.5903 25.9742 54.5797C24.3794 54.5159 22.9013 54.1154 21.5576 53.4277C20.5498 52.9137 19.6234 52.2403 18.7924 51.425C17.5442 50.2057 16.5223 48.6744 15.8115 46.9234C15.1008 45.1724 14.7047 43.2052 14.7047 41.1245C14.7047 40.848 14.7118 40.5716 14.7259 40.2915C14.8214 38.4377 15.3306 36.6442 16.1687 34.9711C16.7981 33.7199 17.6114 32.5396 18.559 31.4762C19.9841 29.8811 21.7132 28.5448 23.552 27.6055C25.3801 26.6662 27.3108 26.1239 29.139 26.0424H29.5385C32.2578 26.0424 34.7012 26.5918 36.8617 27.5701C38.4812 28.3038 39.9381 29.2821 41.2252 30.4695C43.1524 32.2489 44.6941 34.4997 45.7549 37.0943C46.8158 39.689 47.3957 42.6239 47.3957 45.7502V63.9232H5.25989V10.9425H47.3921V15.6887H51.5187V6.80597H1.1333V68.0597H51.5187V45.7502C51.5187 42.5175 50.9848 39.416 49.9735 36.5768Z" fill="#5F489D"/>
<path d="M164.439 44.779L165.175 47.6961H165.659V66.7695H168.867V44.779H164.439Z" fill="#00C1F3"/>
<path d="M157.845 52.7117C156.646 51.7299 155.097 51.2372 153.202 51.2372C151.024 51.2372 149.175 51.9957 147.65 53.5093C146.119 55.0228 145.352 56.8589 145.352 59.0104C145.352 61.162 146.119 62.9804 147.65 64.4939C149.171 66.0074 151.02 66.766 153.202 66.766C155.097 66.766 156.646 66.2768 157.845 65.2914V66.766H161.066V54.1331H161.459L162.194 51.2336H157.849V52.7082L157.845 52.7117ZM156.469 62.4274C155.564 63.3561 154.472 63.8204 153.202 63.8204C151.933 63.8204 150.84 63.349 149.935 62.4097C149.03 61.481 148.573 60.3467 148.573 59.0104C148.573 57.6741 149.026 56.5328 149.935 55.5935C150.84 54.6542 151.929 54.1827 153.202 54.1827C154.475 54.1827 155.564 54.6542 156.469 55.5935C157.375 56.5328 157.831 57.6741 157.831 59.0104C157.831 60.3467 157.378 61.4881 156.469 62.4274Z" fill="#00C1F3"/>
<path d="M96.664 53.0236C95.4016 51.8327 93.8952 51.2372 92.1449 51.2372C90.5077 51.2372 89.2665 51.6448 88.4249 52.46V44.779H84.0791L84.8146 47.6926H85.2071V66.7659H88.4285V57.504C88.4285 56.6143 88.8245 55.8309 89.6166 55.1539C90.3662 54.5053 91.2113 54.1827 92.1484 54.1827C93.0324 54.1827 93.7962 54.5017 94.4327 55.1397C95.0692 55.799 95.3874 56.6604 95.3874 57.7237H95.4193V66.7659H98.6406V57.1282H98.6088C98.577 55.5828 97.9334 54.2111 96.671 53.0201" fill="#00C1F3"/>
<path d="M112.297 52.7117C111.098 51.7299 109.55 51.2372 107.654 51.2372C105.476 51.2372 103.627 51.9957 102.103 53.5093C100.572 55.0228 99.8042 56.8589 99.8042 59.0104C99.8042 61.162 100.572 62.9804 102.103 64.4939C103.623 66.0074 105.473 66.766 107.654 66.766C109.55 66.766 111.098 66.2768 112.297 65.2914V66.766H115.518V54.1331H115.907L116.643 51.2336H112.297V52.7082V52.7117ZM110.922 62.4274C110.016 63.3561 108.924 63.8204 107.654 63.8204C106.385 63.8204 105.292 63.349 104.387 62.4097C103.482 61.481 103.026 60.3467 103.026 59.0104C103.026 57.6741 103.478 56.5328 104.387 55.5935C105.292 54.6542 106.381 54.1827 107.654 54.1827C108.927 54.1827 110.016 54.6542 110.922 55.5935C111.827 56.5328 112.283 57.6741 112.283 59.0104C112.283 60.3467 111.83 61.4881 110.922 62.4274Z" fill="#00C1F3"/>
<path d="M128.513 59.1061C127.657 58.1881 126.313 57.5288 124.478 57.1318C123.081 56.827 122.201 56.4938 121.837 56.1287C121.681 55.9727 121.582 55.7282 121.54 55.3914C121.487 55.037 121.529 54.7002 121.663 54.3883C121.883 53.8743 122.335 53.5943 123.025 53.5412C123.902 53.4667 124.552 53.605 124.98 53.9488C125.253 54.1685 125.454 54.4734 125.592 54.8597C125.645 54.9944 125.68 55.1256 125.702 55.2532C125.702 55.2957 125.712 55.3383 125.733 55.3772V55.6112L129.064 55.4694V55.0937C129.054 54.9909 129.04 54.8846 129.018 54.7818C128.965 54.4769 128.888 54.1792 128.785 53.8885C128.463 52.9811 127.929 52.2332 127.19 51.6484C126.045 50.7374 124.563 50.351 122.749 50.4893C120.684 50.6665 119.287 51.5916 118.559 53.2647C118.195 54.0906 118.085 54.9625 118.23 55.8806C118.375 56.788 118.75 57.5536 119.354 58.1704C119.906 58.734 120.61 59.1841 121.465 59.5173C121.798 59.6307 122.187 59.7512 122.622 59.8788L123.17 60.0029L123.718 60.127C124.842 60.368 125.596 60.687 125.97 61.084C126.158 61.2825 126.253 61.5058 126.253 61.7575C126.253 61.8532 126.239 61.956 126.207 62.0729C126.186 62.1686 126.154 62.2502 126.112 62.3246C125.967 62.6578 125.726 62.9484 125.394 63.1859C124.987 63.4801 124.524 63.6467 124.004 63.6893C122.763 63.7956 121.883 63.5546 121.363 62.9662C121.239 62.8102 121.14 62.6436 121.066 62.4664C121.023 62.3317 121.002 62.1013 121.002 61.7752L117.721 62.8421C117.866 63.3951 118.06 63.8665 118.301 64.2529C118.456 64.5152 118.644 64.7597 118.863 64.9901C119.156 65.3127 119.482 65.5927 119.849 65.8196C120.85 66.4576 122.063 66.7766 123.492 66.7766C123.753 66.7766 124.018 66.766 124.291 66.7447C125.383 66.6596 126.381 66.3264 127.275 65.7416C128.173 65.1461 128.824 64.3946 129.231 63.4837C129.563 62.7216 129.673 61.9524 129.559 61.1797C129.436 60.3964 129.089 59.7052 128.527 59.1097" fill="#00C1F3"/>
<path d="M142.084 59.1061C141.228 58.1881 139.885 57.5288 138.049 57.1318C136.653 56.827 135.772 56.4938 135.408 56.1287C135.252 55.9727 135.153 55.7282 135.111 55.3914C135.058 55.037 135.1 54.7002 135.235 54.3883C135.454 53.8743 135.907 53.5943 136.596 53.5412C137.473 53.4667 138.124 53.605 138.552 53.9488C138.824 54.1685 139.025 54.4734 139.163 54.8597C139.216 54.9944 139.252 55.1256 139.273 55.2532C139.273 55.2957 139.284 55.3383 139.305 55.3772V55.6112L142.636 55.4694V55.0937C142.625 54.9909 142.611 54.8846 142.59 54.7818C142.537 54.4769 142.459 54.1792 142.356 53.8885C142.035 52.9811 141.501 52.2332 140.762 51.6484C139.616 50.7374 138.134 50.351 136.32 50.4893C134.255 50.6665 132.858 51.5916 132.13 53.2647C131.766 54.0906 131.656 54.9625 131.801 55.8806C131.946 56.788 132.321 57.5536 132.926 58.1704C133.477 58.734 134.181 59.1841 135.037 59.5173C135.369 59.6307 135.758 59.7512 136.193 59.8788L136.741 60.0029L137.289 60.127C138.414 60.368 139.167 60.687 139.542 61.084C139.729 61.2825 139.825 61.5058 139.825 61.7575C139.825 61.8532 139.81 61.956 139.779 62.0729C139.757 62.1686 139.726 62.2502 139.683 62.3246C139.538 62.6578 139.298 62.9484 138.965 63.1859C138.559 63.4801 138.095 63.6467 137.576 63.6893C136.334 63.7956 135.454 63.5546 134.934 62.9662C134.81 62.8102 134.711 62.6436 134.637 62.4664C134.595 62.3317 134.573 62.1013 134.573 61.7752L131.292 62.8421C131.437 63.3951 131.631 63.8665 131.872 64.2529C132.027 64.5152 132.215 64.7597 132.434 64.9901C132.728 65.3127 133.053 65.5927 133.421 65.8196C134.421 66.4576 135.634 66.7766 137.063 66.7766C137.325 66.7766 137.59 66.766 137.862 66.7447C138.955 66.6596 139.952 66.3264 140.846 65.7416C141.745 65.1461 142.395 64.3946 142.802 63.4837C143.134 62.7216 143.244 61.9524 143.131 61.1797C143.007 60.3964 142.66 59.7052 142.098 59.1097" fill="#00C1F3"/>
<path d="M80.5641 46.6186C79.9241 46.1153 79.231 45.6722 78.499 45.2894C76.586 44.2934 74.3795 43.7404 71.9891 43.7404H71.632H71.6285H71.6249C70.1468 43.8042 68.69 44.1906 67.3321 44.8109C66.3137 45.2787 65.3449 45.8849 64.4573 46.6009C63.1277 47.6749 61.9715 49.0041 61.1157 50.5283C60.26 52.0524 59.7048 53.7786 59.6129 55.6112C59.6023 55.838 59.5952 56.0649 59.5952 56.2882C59.5952 59.3117 60.6207 62.1084 62.3887 64.2068C63.2763 65.256 64.3512 66.1315 65.5747 66.7553C66.7982 67.3827 68.1737 67.7549 69.6235 67.8116C69.7685 67.8187 69.9135 67.8187 70.0584 67.8187C71.4552 67.8187 72.8166 67.5599 74.0754 67.053C75.0195 66.6738 75.9036 66.1563 76.7027 65.5147C77.1483 65.1567 77.5655 64.7562 77.9545 64.3237C77.9545 64.3237 77.958 64.3202 77.9615 64.3166C77.9615 64.3166 77.9651 64.3131 77.9686 64.3095C79.673 62.5266 80.7833 60.1553 80.9672 57.543C80.9743 57.4614 80.9743 57.3799 80.9743 57.2984C80.9743 57.2771 80.9743 57.2559 80.9743 57.2346C80.9743 57.0928 80.9601 56.951 80.9389 56.8163C80.9389 56.8057 80.9389 56.7986 80.9389 56.7844L80.9707 56.313L80.8258 56.3024C80.7267 55.9763 80.5853 55.6714 80.405 55.3914C80.0584 54.8597 79.5634 54.4273 78.9729 54.1508C78.5768 53.9665 78.1383 53.8531 77.6822 53.8353C77.6221 53.8353 77.562 53.8318 77.5019 53.8318C77.4771 53.8318 77.4524 53.8318 77.4276 53.8318C76.9007 53.8424 76.441 53.9381 75.9778 54.0409C75.5111 54.1473 75.0266 54.2713 74.4714 54.3989C73.8243 54.5478 73.2338 54.686 72.7211 54.7853C72.6221 54.803 72.5231 54.8207 72.4241 54.8385L71.8123 54.9448C71.784 54.9554 71.7522 54.959 71.7204 54.9625C71.335 55.0192 70.8293 55.0724 70.3378 55.0724C70.0302 55.0724 69.726 55.0511 69.4679 55.0015C69.2062 54.9519 68.9941 54.8739 68.8597 54.7817L68.2444 54.367L68.1313 55.1008C68.1313 55.1185 68.0995 55.3205 68.0995 55.6289C68.0995 55.8309 68.1136 56.0755 68.1596 56.3449C68.2303 56.7454 68.3717 57.1991 68.6723 57.6068C68.8243 57.8124 69.0118 58.0002 69.2487 58.1562C69.4821 58.3157 69.7614 58.4397 70.0761 58.5177H70.0797C70.1292 58.5284 70.1822 58.5425 70.2388 58.5532C70.2388 58.5532 70.2777 58.5603 70.2989 58.5638C70.2989 58.5638 70.2989 58.5638 70.3024 58.5638C70.6666 58.6311 71.0273 58.656 71.3739 58.656C71.4163 58.656 71.4587 58.656 71.4976 58.656C72.1553 58.6418 72.7883 58.5461 73.4106 58.4256C74.033 58.305 74.6553 58.1562 75.2777 58.0144C75.8894 57.8762 76.3951 57.745 76.7734 57.6599C76.9538 57.6174 77.1094 57.589 77.2296 57.5678C77.1624 58.1668 77.0139 58.7942 76.7982 59.3897C76.5507 60.0809 76.2183 60.7331 75.8434 61.2506L75.6949 61.4562V61.4668C75.6171 61.5731 75.5358 61.6795 75.4509 61.7823C74.7755 62.5904 73.9623 63.2072 73.05 63.6254C72.1376 64.0437 71.1228 64.267 70.0408 64.267C69.9417 64.267 69.8392 64.267 69.7402 64.2635C68.8031 64.228 67.9474 63.9905 67.1624 63.59C66.5754 63.2887 66.0273 62.8953 65.5393 62.4167C64.8074 61.6972 64.1956 60.7898 63.7748 59.7477C63.3505 58.7056 63.1136 57.5288 63.1136 56.2811C63.1136 56.1145 63.1171 55.9479 63.1277 55.7813C63.1843 54.6896 63.4849 53.6262 63.9835 52.6266C64.3583 51.8787 64.8463 51.1698 65.4156 50.5318C66.2713 49.5712 67.3144 48.7666 68.4177 48.2066C69.5103 47.6465 70.6596 47.324 71.731 47.2743H71.9679C73.6157 47.2743 75.0796 47.604 76.3774 48.1924C77.3498 48.6319 78.2232 49.2168 78.9941 49.9292L79.1285 50.0533H79.3123C79.3335 50.0533 79.3548 50.0533 79.376 50.0533C79.6589 50.0533 79.9276 49.993 80.1645 49.8867C80.5217 49.7272 80.8045 49.4649 80.9955 49.153C81.1864 48.841 81.2925 48.483 81.2925 48.1109C81.2925 47.8379 81.2359 47.5615 81.1122 47.2992C80.9884 47.0369 80.7975 46.7958 80.5499 46.6009" fill="#00C1F3"/>
<path d="M16.9109 41.5818C16.8932 48.6036 22.7914 53.4596 29.7822 52.9067C29.6761 52.9208 29.57 52.935 29.464 52.9457C22.2963 53.6758 16.1719 48.7666 16.1719 41.6172C16.1719 34.0885 22.8833 27.687 30.7016 27.687C30.8183 27.687 30.9314 27.6906 31.0481 27.6941C23.4208 27.8855 16.9321 34.1878 16.9144 41.5782" fill="#00C1F3"/>
<path d="M160.945 18.9425C161.263 18.6554 161.422 18.3116 161.422 17.9181V14.7564H157.971C157.533 14.7564 157.161 14.8911 156.857 15.1675C156.539 15.4547 156.38 15.7985 156.38 16.1919V19.3537H159.831C160.27 19.3537 160.641 19.219 160.941 18.9425" fill="#5F489D"/>
<path d="M168.57 34.4146H158.878C157.789 34.4004 156.859 33.9963 156.084 33.2094C155.299 32.4225 154.903 31.4797 154.903 30.3879C154.903 29.2962 155.296 28.3321 156.084 27.5452C156.873 26.7583 157.817 26.3613 158.924 26.3613C160.031 26.3613 160.929 26.7547 161.714 27.5452C162.446 28.2789 162.835 29.2395 162.888 30.4305C162.895 30.5864 163.026 30.7069 163.181 30.7069H167.428C167.591 30.7069 167.729 30.5722 167.722 30.4092C167.654 27.9953 166.785 25.9927 165.116 24.4047C163.404 22.7671 161.339 21.9483 158.92 21.9483C156.502 21.9483 154.387 22.7671 152.679 24.4047C150.954 26.0565 150.091 28.0521 150.091 30.3879C150.091 31.8093 150.352 33.0074 150.876 33.9857C150.978 34.1806 150.837 34.4146 150.614 34.4146H144.935C144.773 34.4146 144.642 34.2834 144.642 34.1168L144.663 25.1242C144.663 25.0037 144.737 24.8974 144.847 24.8513L144.981 24.7981C145.091 24.7521 145.165 24.6457 145.165 24.5252V19.3785C145.165 19.3785 145.165 19.3466 145.165 19.3289C145.101 18.8752 144.819 18.6412 144.316 18.627C144.281 18.627 144.242 18.6306 144.21 18.6448L140.193 20.0378C140.073 20.0803 139.995 20.1902 139.995 20.3178V34.0778C139.995 34.2905 139.875 34.3968 139.631 34.3968C138.722 34.3968 137.906 34.1558 137.181 33.6702L137.089 33.6029V27.6161C137.089 27.4956 137.163 27.3857 137.276 27.3396L137.425 27.2829C137.538 27.2404 137.612 27.1305 137.612 27.0064L137.591 21.8632C137.563 21.3776 137.283 21.1295 136.76 21.1118C136.724 21.1118 136.686 21.1153 136.654 21.1295L132.616 22.5225C132.499 22.5651 132.418 22.6749 132.418 22.8026V33.6029C132.418 33.8155 132.333 34.0069 132.166 34.17C132 34.3366 131.795 34.4217 131.555 34.4217H129.306C129.143 34.4217 129.012 34.2905 129.012 34.1275V29.9307C129.012 29.8137 129.083 29.7074 129.189 29.6613L129.355 29.5869C129.465 29.5408 129.532 29.4344 129.532 29.3139L129.511 24.1601C129.483 23.6922 129.196 23.4477 128.659 23.4335C128.623 23.4335 128.588 23.437 128.553 23.4512L124.536 24.8194C124.415 24.8619 124.334 24.9718 124.334 25.0994L124.355 34.1239C124.355 34.287 124.224 34.4217 124.062 34.4217H92.9869V34.4004H89.2881C89.1255 34.4004 88.9947 34.2692 88.9947 34.1062V18.2761C88.9947 18.0564 89.228 17.9146 89.4225 18.0138L89.6736 18.1414C89.8822 18.2478 90.1227 18.0812 90.1014 17.8508L89.518 11.8817C89.4579 11.4138 89.1679 11.1693 88.6446 11.1551C88.6092 11.1551 88.5703 11.1586 88.5385 11.1728L84.5427 12.5658C84.4261 12.6084 84.3447 12.7182 84.3447 12.8459V38.0938C84.3447 38.2569 84.4756 38.388 84.6382 38.388H131.739C133.192 38.388 134.38 37.9698 135.303 37.1368L135.37 37.1829C136.579 37.9698 137.927 38.3668 139.412 38.3668H140.409C140.579 38.3668 142.092 38.3561 144.946 38.3313V38.388H166.053C166.823 38.388 167.481 38.1364 168.029 37.6366C168.588 37.1368 168.871 36.5307 168.871 35.8182V34.7265C168.871 34.5634 168.74 34.4323 168.577 34.4323" fill="#5F489D"/>
<path d="M80.6452 11.141L76.3348 12.6439V34.3296H72.2754V34.3544H64.8142V29.4274L65.3447 29.2183L65.3234 24.7025C65.2775 24.2098 64.9769 23.9652 64.4253 23.9652L60.0688 23.9475V38.3739H81.0625V17.8899L82.24 18.4889L81.5929 11.8783C81.5328 11.3856 81.2145 11.141 80.6488 11.141" fill="#5F489D"/>
<path d="M136.257 10.1238L135.79 10.3364C135.79 12.3958 135.323 13.4273 134.389 13.4273C133.873 13.4273 133.47 12.7396 133.173 11.3679L132.777 11.5061C132.388 13.7711 131.766 14.9018 130.906 14.9018C130.362 14.9018 130.09 14.122 130.09 12.5589L129.598 12.651L129.365 13.3777C129.209 13.8775 129.131 14.3453 129.131 14.7813C129.131 16.2949 129.708 17.0534 130.86 17.0534C131.345 17.0534 131.808 16.8655 132.25 16.4898C132.692 16.1141 132.954 15.6923 133.032 15.2244C133.467 15.5221 133.919 15.6675 134.386 15.6675C135.072 15.6675 135.602 15.3555 135.974 14.7317C136.426 13.9838 136.621 13.1154 136.557 12.1335L136.486 11.2438L136.253 10.1202L136.257 10.1238Z" fill="#5F489D"/>
<path d="M137.271 7.9367L137.795 6.95131L137.77 6.91232C136.355 7.46173 129.46 10.2017 127.625 10.8184L127.427 11.7259L127.452 11.7507C129.036 11.2367 135.659 8.57827 137.268 7.9367" fill="#5F489D"/>
</g>
<defs>
<clipPath id="clip0_2005_2006">
<rect width="167.733" height="61.2537" fill="white" transform="translate(1.1333 6.80597)"/>
</clipPath>
</defs>
</svg>
