<svg width="25" height="25" viewBox="0 0 25 25" fill="none" xmlns="http://www.w3.org/2000/svg">
<path d="M12.4673 13.8809C12.4723 13.8815 12.4773 13.8821 12.4823 13.8827C12.7621 13.9147 13.0533 13.909 13.3084 13.8903C13.5657 13.8714 13.7994 13.8383 13.9682 13.8101C14.053 13.7959 14.1223 13.7828 14.1712 13.7731C14.1957 13.7683 14.2151 13.7642 14.2288 13.7613L14.2394 13.7591C14.2954 13.7492 14.3516 13.7391 14.4116 13.7278L14.4116 13.7278L14.4148 13.7272C14.6685 13.6775 14.9488 13.6128 15.2396 13.5457C15.3038 13.5309 15.3685 13.516 15.4336 13.501L15.4339 13.5009C15.6144 13.4594 15.7572 13.4246 15.8901 13.3923C16.0237 13.3597 16.1472 13.3296 16.2886 13.2977C16.5422 13.2403 16.7441 13.2017 16.9619 13.1966L16.9654 13.1965C16.989 13.1957 17.016 13.1964 17.0602 13.1977C17.2139 13.2041 17.3628 13.2426 17.4988 13.3062L17.5 13.3068C17.703 13.401 17.873 13.5511 17.9938 13.7369L17.9947 13.7382C18.0803 13.8691 18.1415 14.0203 18.1713 14.1832L18.1771 14.2152C18.1863 14.2726 18.1914 14.3286 18.1922 14.3825L18.1922 14.3825L18.1923 14.3873C18.1932 14.42 18.1923 14.4543 18.1897 14.489L18.1896 14.4913C18.0982 15.8034 17.544 16.9918 16.6896 17.8867L16.6828 17.8939L16.6762 17.9013C16.4817 18.1218 16.2735 18.3222 16.0517 18.5007L16.0503 18.5018C15.6558 18.8217 15.2177 19.079 14.7521 19.2667C14.1308 19.5171 13.4542 19.648 12.7549 19.648C12.6813 19.648 12.6089 19.6468 12.5351 19.6445C11.8243 19.6166 11.1546 19.4335 10.5557 19.1254C9.95486 18.8163 9.42292 18.3833 8.982 17.8573L8.98179 17.8571C8.09729 16.8033 7.57282 15.382 7.57282 13.8272C7.57282 13.7091 7.57521 13.5929 7.58102 13.4782L7.58103 13.478C7.62726 12.5602 7.90493 11.6885 8.3393 10.9099C8.77521 10.1309 9.36697 9.44457 10.052 8.88896L10.0522 8.88879C10.5081 8.51862 11.0046 8.20855 11.5247 7.96782L12.4673 13.8809ZM12.4673 13.8809C12.5359 14.1085 12.6689 14.2838 12.9452 14.3544C12.9492 14.3553 12.9529 14.3562 12.9563 14.357C12.9734 14.3609 12.9833 14.3632 12.9921 14.3649C13.0066 14.3672 13.0189 14.3696 13.0283 14.3715L13.0433 14.3748C13.2131 14.4056 13.3866 14.4165 13.5656 14.4132L13.5657 14.4132C13.8746 14.4076 14.1856 14.3615 14.5216 14.2963L12.4673 13.8809ZM19.6451 10.3693L19.645 10.3692C19.002 9.47181 18.1738 8.73355 17.1958 8.22182L17.1956 8.2217C16.2196 7.71039 15.087 7.42337 13.8481 7.42457H13.8476H13.6657C12.9407 7.45841 12.2135 7.64966 11.5248 7.96776L19.6451 10.3693ZM19.6451 10.3693C20.0736 10.967 20.4199 11.6364 20.6766 12.3595C21.0182 13.3235 21.2 14.3808 21.2 15.4873V23H4.19995V2H21.2V4.19032H20.7257V2.98568V2.48568H20.2257H5.17416H4.67416V2.98568V22.0143V22.5143H5.17416H20.227H20.727V22.0143V15.4873C20.727 14.3032 20.5085 13.1848 20.104 12.1901C19.6994 11.195 19.1082 10.3245 18.3628 9.63259L18.3627 9.63245C17.8649 9.17077 17.2999 8.78907 16.671 8.50265L16.671 8.5026C15.8322 8.12079 14.8885 7.90898 13.8476 7.90898H13.7049H13.6937L13.6825 7.90948C12.9483 7.94239 12.1886 8.15994 11.48 8.52591C10.7669 8.8922 10.1005 9.4107 9.55148 10.0285L9.55107 10.0289C9.18524 10.4416 8.86959 10.9015 8.62413 11.3921L8.62375 11.3929C8.29672 12.0492 8.09448 12.7602 8.05653 13.5012L8.0565 13.5016C8.05104 13.6104 8.04829 13.7181 8.04829 13.8259C8.04829 14.6362 8.20169 15.4064 8.48005 16.0958C8.75805 16.7844 9.16016 17.3928 9.65749 17.8814C9.98881 18.2082 10.3609 18.4807 10.7683 18.6897C11.3107 18.9686 11.9078 19.1313 12.5488 19.1579C12.6232 19.1623 12.6949 19.1623 12.7508 19.1623H12.7562C13.4797 19.1623 14.1666 19.0112 14.7885 18.7242C15.4114 18.4368 15.9647 18.0138 16.4222 17.4649L16.4234 17.4634C16.5157 17.3519 16.6025 17.2359 16.6854 17.1162L16.8378 16.896L16.8334 16.8848C17.2702 16.1849 17.5656 15.2822 17.6245 14.4506L17.6257 14.433V14.4153V14.4026V14.3931M19.6451 10.3693L17.6257 14.3931M17.6257 14.3931L17.6254 14.3835M17.6257 14.3931L17.6254 14.3835M17.6254 14.3835C17.6195 14.2299 17.559 14.0865 17.4558 13.975M17.6254 14.3835L17.4558 13.975M16.5232 14.3504L16.4115 13.863C16.633 13.8123 16.842 13.7753 16.9792 13.7753H16.9793H16.9793H16.9794H16.9795H16.9795H16.9796H16.9797H16.9797H16.9798H16.9799H16.9799H16.98H16.9801H16.9801H16.9802H16.9803H16.9803H16.9804H16.9805H16.9805H16.9806H16.9807H16.9807H16.9808H16.9809H16.9809H16.981H16.9811H16.9811H16.9812H16.9812H16.9813H16.9814H16.9814H16.9815H16.9816H16.9816H16.9817H16.9818H16.9818H16.9819H16.982H16.982H16.9821H16.9822H16.9822H16.9823H16.9824H16.9824H16.9825H16.9826H16.9826H16.9827H16.9828H16.9828H16.9829H16.9829H16.983H16.9831H16.9831H16.9832H16.9833H16.9833H16.9834H16.9835H16.9835H16.9836H16.9837H16.9837H16.9838H16.9839H16.9839H16.984H16.984H16.9841H16.9842H16.9842H16.9843H16.9844H16.9844H16.9845H16.9846H16.9846H16.9847H16.9848H16.9848H16.9849H16.9849H16.985H16.9851H16.9851H16.9852H16.9853H16.9853H16.9854H16.9855H16.9855H16.9856H16.9856H16.9857H16.9858H16.9858H16.9859H16.986H16.986H16.9861H16.9861H16.9862H16.9863H16.9863H16.9864H16.9865H16.9865H16.9866H16.9867H16.9867H16.9868H16.9868H16.9869H16.987H16.987H16.9871H16.9872H16.9872H16.9873H16.9873H16.9874H16.9875H16.9875H16.9876H16.9877H16.9877H16.9878H16.9878H16.9879H16.988H16.988H16.9881H16.9882H16.9882H16.9883H16.9883H16.9884H16.9885H16.9885H16.9886H16.9886H16.9887H16.9888H16.9888H16.9889H16.989H16.989H16.9891H16.9891H16.9892H16.9893H16.9893H16.9894H16.9894H16.9895H16.9896H16.9896H16.9897H16.9898H16.9898H16.9899H16.9899H16.99H16.9901H16.9901H16.9902H16.9902H16.9903H16.9904H16.9904H16.9905H16.9905H16.9906H16.9907H16.9907H16.9908H16.9908H16.9909H16.991H16.991H16.9911H16.9911H16.9912H16.9913H16.9913H16.9914H16.9914H16.9915H16.9916H16.9916H16.9917H16.9917H16.9918H16.9919H16.9919H16.992H16.992H16.9921H16.9922H16.9922H16.9923H16.9923H16.9924H16.9925H16.9925H16.9926H16.9926H16.9927H16.9928H16.9928H16.9929H16.9929H16.993H16.9931H16.9931H16.9932H16.9932H16.9933H16.9933H16.9934H16.9935H16.9935H16.9936H16.9936H16.9937H16.9938H16.9938H16.9939H16.9939H16.994H16.994H16.9941H16.9942H16.9942H16.9943H16.9943H16.9944H16.9945H16.9945H16.9946H16.9946H16.9947H16.9947H16.9948H16.9949H16.9949H16.995H16.995H16.9951H16.9951H16.9952H16.9953H16.9953H16.9954H16.9954H16.9955H16.9955H16.9956H16.9957H16.9957H16.9958H16.9958H16.9959H16.9959H16.996H16.9961H16.9961H16.9962H16.9962H16.9963H16.9963H16.9964H16.9965H16.9965H16.9966H16.9966H16.9967H16.9967H16.9968H16.9968H16.9969H16.997H16.997H16.9971H16.9971H16.9972H16.9972H16.9973H16.9974H16.9974H16.9975H16.9975H16.9976H16.9976H16.9977H16.9977H16.9978H16.9978H16.9979H16.998H16.998H16.9981H16.9981H16.9982H16.9982H16.9983H16.9983H16.9984H16.9985H16.9985H16.9986H16.9986H16.9987H16.9987H16.9988H16.9988H16.9989H16.9989H16.999H16.9991H16.9991H16.9992H16.9992H16.9993H16.9993H16.9994H16.9994H16.9995H16.9995H16.9996H16.9996H16.9997H16.9998H16.9998H16.9999H16.9999H17H17H17.0001H17.0001H17.0002H17.0002H17.0003H17.0003H17.0004H17.0004H17.0005H17.0006H17.0006H17.0007H17.0007H17.0008H17.0008H17.0009H17.0009H17.001H17.001H17.0011H17.0011H17.0012H17.0012H17.0013H17.0013H17.0014H17.0014H17.0015H17.0015H17.0016H17.0016H17.0017H17.0018H17.0018H17.0019H17.0019H17.002H17.002H17.0021H17.0021H17.0022H17.0022H17.0023H17.0023H17.0024H17.0024H17.0025H17.0025H17.0026H17.0026H17.0027H17.0027H17.0028H17.0028H17.0029H17.0029H17.003H17.003H17.0031H17.0031H17.0032H17.0032H17.0033H17.0033H17.0034H17.0034H17.0035H17.0035H17.0036H17.0036H17.0037H17.0037H17.0038H17.0038H17.0039H17.0039H17.004H17.004H17.0041H17.0041H17.0042H17.0042H17.0043H17.0043H17.0044H17.0044H17.0045H17.0045H17.0046H17.0046H17.0047H17.0047H17.0048H17.0048H17.0049H17.0049H17.005H17.005H17.0051H17.0051H17.0052H17.0052H17.0052H17.0053H17.0053H17.0054H17.0054H17.0055H17.0055H17.0056H17.0056H17.0057H17.0057H17.0058H17.0058H17.0059H17.0059H17.006H17.006H17.0061H17.0061H17.0062H17.0062H17.0062H17.0063H17.0063H17.0064H17.0064H17.0065H17.0065H17.0066H17.0066H17.0067H17.0067H17.0068H17.0068H17.0068H17.0069H17.0069H17.007H17.007H17.0071H17.0071H17.0072H17.0072H17.0073H17.0073H17.0074H17.0074H17.0074H17.0075H17.0075H17.0076H17.0076H17.0077H17.0077H17.0078H17.0078H17.0079H17.0079H17.0079H17.008H17.008H17.0081H17.0081H17.0082H17.0082H17.0083C17.1153 13.7753 17.2046 13.8035 17.2749 13.839L16.5232 14.3504ZM16.5232 14.3504L16.4115 13.863C16.3091 13.8865 16.1942 13.9145 16.0716 13.9444C16.056 13.9483 16.0402 13.9521 16.0243 13.956C15.8824 13.9906 15.7277 14.0281 15.5589 14.0667M16.5232 14.3504L15.5589 14.0667M15.5589 14.0667C15.4793 14.0849 15.401 14.1029 15.3238 14.1207M15.5589 14.0667L15.3238 14.1207M15.3238 14.1207C15.0471 14.1845 14.784 14.2451 14.5216 14.2963L15.3238 14.1207ZM17.4558 13.975C17.3897 13.9028 17.3193 13.8613 17.2749 13.839L17.4558 13.975Z" fill="#5F489D" stroke="#5F489D"/>
<mask id="path-2-inside-1_3172_3590" fill="white">
<path d="M9.94835 13.8883C9.9424 16.106 11.9248 17.6396 14.2745 17.465C14.2388 17.4695 14.2032 17.4739 14.1675 17.4773C11.7584 17.7079 9.69995 16.1575 9.69995 13.8995C9.69995 11.5218 11.9557 9.5 14.5835 9.5C14.6227 9.5 14.6607 9.50112 14.7 9.50224C12.1364 9.56269 9.95548 11.5531 9.94954 13.8872"/>
</mask>
<path d="M9.94835 13.8883C9.9424 16.106 11.9248 17.6396 14.2745 17.465C14.2388 17.4695 14.2032 17.4739 14.1675 17.4773C11.7584 17.7079 9.69995 16.1575 9.69995 13.8995C9.69995 11.5218 11.9557 9.5 14.5835 9.5C14.6227 9.5 14.6607 9.50112 14.7 9.50224C12.1364 9.56269 9.95548 11.5531 9.94954 13.8872" fill="#5F489D"/>
<path d="M14.2745 17.465L14.3991 18.4572L14.2003 16.4677L14.2745 17.465ZM14.1675 17.4773L14.0737 16.4817L14.0722 16.4819L14.1675 17.4773ZM14.7 9.50224L14.7235 10.502L14.7285 8.50265L14.7 9.50224ZM8.94835 13.8856C8.9405 16.8164 11.5568 18.6697 14.3486 18.4622L14.2003 16.4677C12.2928 16.6095 10.9443 15.3955 10.9483 13.891L8.94835 13.8856ZM14.1499 16.4728C14.1116 16.4776 14.0914 16.4801 14.0737 16.4817L14.2613 18.4729C14.315 18.4678 14.366 18.4613 14.3991 18.4572L14.1499 16.4728ZM14.0722 16.4819C12.1045 16.6702 10.7 15.4302 10.7 13.8995H8.69995C8.69995 16.8847 11.4123 18.7456 14.2628 18.4728L14.0722 16.4819ZM10.7 13.8995C10.7 12.1711 12.4057 10.5 14.5835 10.5V8.5C11.5058 8.5 8.69995 10.8724 8.69995 13.8995H10.7ZM14.5835 10.5C14.6058 10.5 14.6292 10.5006 14.6714 10.5018L14.7285 8.50265C14.6923 8.50161 14.6396 8.5 14.5835 8.5V10.5ZM14.6764 8.50252C11.6707 8.57339 8.9571 10.9138 8.94954 13.8846L10.9495 13.8897C10.9539 12.1924 12.6021 10.552 14.7235 10.502L14.6764 8.50252Z" fill="#5F489D" mask="url(#path-2-inside-1_3172_3590)"/>
</svg>
