<svg width="19" height="18" viewBox="0 0 19 18" fill="none" xmlns="http://www.w3.org/2000/svg">
<path fill-rule="evenodd" clip-rule="evenodd" d="M2.1394 5.86706C1.75 6.57846 1.75 7.43662 1.75 9.15294V10.2937C1.75 13.2194 1.75 14.6822 2.62868 15.5911C3.50736 16.5 4.92157 16.5 7.75 16.5H10.75C13.5784 16.5 14.9926 16.5 15.8713 15.5911C16.75 14.6822 16.75 13.2194 16.75 10.2937V9.15294C16.75 7.43662 16.75 6.57846 16.3606 5.86706C15.9712 5.15566 15.2598 4.71413 13.837 3.83109L12.337 2.90015C10.833 1.96672 10.081 1.5 9.25 1.5C8.41905 1.5 7.66704 1.96672 6.16302 2.90015L4.66303 3.83109C3.24021 4.71414 2.5288 5.15566 2.1394 5.86706ZM7.33496 11.5481C7.08539 11.3631 6.7331 11.4155 6.54811 11.665C6.36311 11.9146 6.41547 12.2669 6.66504 12.4519C7.39435 12.9925 8.28627 13.3125 9.25 13.3125C10.2137 13.3125 11.1057 12.9925 11.835 12.4519C12.0845 12.2669 12.1369 11.9146 11.9519 11.665C11.7669 11.4155 11.4146 11.3631 11.165 11.5481C10.6188 11.953 9.95942 12.1875 9.25 12.1875C8.54058 12.1875 7.88121 11.953 7.33496 11.5481Z" fill="white"/>
</svg>
