<svg width="19" height="18" viewBox="0 0 19 18" fill="none" xmlns="http://www.w3.org/2000/svg">
<path fill-rule="evenodd" clip-rule="evenodd" d="M2.3894 5.86706C2 6.57846 2 7.43662 2 9.15294V10.2937C2 13.2194 2 14.6822 2.87868 15.5911C3.75736 16.5 5.17157 16.5 8 16.5H11C13.8284 16.5 15.2426 16.5 16.1213 15.5911C17 14.6822 17 13.2194 17 10.2937V9.15294C17 7.43662 17 6.57846 16.6106 5.86706C16.2212 5.15566 15.5098 4.71413 14.087 3.83109L12.587 2.90015C11.083 1.96672 10.331 1.5 9.5 1.5C8.66905 1.5 7.91704 1.96672 6.41302 2.90015L4.91303 3.83109C3.49021 4.71414 2.7788 5.15566 2.3894 5.86706ZM7.58496 11.5481C7.33539 11.3631 6.9831 11.4155 6.79811 11.665C6.61311 11.9146 6.66547 12.2669 6.91504 12.4519C7.64435 12.9925 8.53627 13.3125 9.5 13.3125C10.4637 13.3125 11.3557 12.9925 12.085 12.4519C12.3345 12.2669 12.3869 11.9146 12.2019 11.665C12.0169 11.4155 11.6646 11.3631 11.415 11.5481C10.8688 11.953 10.2094 12.1875 9.5 12.1875C8.79058 12.1875 8.13121 11.953 7.58496 11.5481Z" fill="#5F489D"/>
</svg>
