<svg width="34" height="34" viewBox="0 0 34 34" fill="none" xmlns="http://www.w3.org/2000/svg">
<path d="M0 17C0 12.3459 0 10.0188 0.636838 8.14273C1.83602 4.61004 4.61004 1.83602 8.14273 0.636838C10.0188 0 12.3459 0 17 0C21.6541 0 23.9812 0 25.8573 0.636838C29.39 1.83602 32.164 4.61004 33.3632 8.14273C34 10.0188 34 12.3459 34 17C34 21.6541 34 23.9812 33.3632 25.8573C32.164 29.39 29.39 32.164 25.8573 33.3632C23.9812 34 21.6541 34 17 34C12.3459 34 10.0188 34 8.14273 33.3632C4.61004 32.164 1.83602 29.39 0.636838 25.8573C0 23.9812 0 21.6541 0 17Z" fill="#5F489D"/>
<path d="M23 18H18V23C18 23.2652 17.8946 23.5196 17.7071 23.7071C17.5196 23.8946 17.2652 24 17 24C16.7348 24 16.4804 23.8946 16.2929 23.7071C16.1054 23.5196 16 23.2652 16 23V18H11C10.7348 18 10.4804 17.8946 10.2929 17.7071C10.1054 17.5196 10 17.2652 10 17C10 16.7348 10.1054 16.4804 10.2929 16.2929C10.4804 16.1054 10.7348 16 11 16H16V11C16 10.7348 16.1054 10.4804 16.2929 10.2929C16.4804 10.1054 16.7348 10 17 10C17.2652 10 17.5196 10.1054 17.7071 10.2929C17.8946 10.4804 18 10.7348 18 11V16H23C23.2652 16 23.5196 16.1054 23.7071 16.2929C23.8946 16.4804 24 16.7348 24 17C24 17.2652 23.8946 17.5196 23.7071 17.7071C23.5196 17.8946 23.2652 18 23 18Z" fill="white"/>
</svg>
