<svg width="34" height="34" viewBox="0 0 34 34" fill="none" xmlns="http://www.w3.org/2000/svg">
<g clip-path="url(#clip0_3351_3242)">
<path d="M30.8743 14.1459C31.3683 11.3986 31.2382 7.77139 30.0182 6.35461C28.8677 5.01845 25.6273 3.81258 24.7609 3.50718L23.4683 0.922117C23.184 0.353348 22.6124 0 21.9764 0H12.0233C11.3874 0 10.8157 0.353348 10.5313 0.922051L9.23873 3.50718C8.37233 3.81252 5.13197 5.01845 3.98148 6.35461C2.76147 7.77139 2.63138 11.3986 3.12544 14.1459C2.97702 14.7803 2.33713 17.8001 2.92124 20.4491C2.88764 20.9595 2.71306 23.7145 2.78106 24.7249C2.8377 25.5659 3.09748 26.2965 3.526 26.8669L3.46053 28.9466C3.43111 29.6032 3.79123 30.2173 4.37893 30.5122C4.38557 30.5156 4.39241 30.5188 4.39925 30.5219L8.5175 32.3746V32.8998C8.5175 33.5065 9.01103 34.0001 9.61771 34.0001H24.3818C24.9885 34.0001 25.482 33.5065 25.482 32.8998V32.3746L29.6003 30.5218C29.6073 30.5187 29.6139 30.5155 29.6207 30.5121C30.2098 30.2166 30.5702 29.6002 30.5388 28.94L30.4352 26.9164C30.8865 26.3392 31.1603 25.5906 31.2185 24.725C31.2865 23.7145 31.112 20.9596 31.0784 20.4492C31.6626 17.8001 31.0227 14.7803 30.8743 14.1459ZM29.8312 13.9263L26.9362 15.1289C26.8589 14.777 26.7554 14.4194 26.6178 14.0604V11.8925C26.619 11.791 26.6797 9.46688 29.4662 7.44567C30.0999 8.70526 30.2715 11.4516 29.8312 13.9263ZM28.7672 6.6381C25.5917 8.9839 25.5532 11.7671 25.5532 11.8894V13.6284H17.5322V8.35005C20.4782 7.67789 23.6108 5.25798 24.4914 4.54066C25.5644 4.9219 27.6623 5.77369 28.7672 6.6381ZM25.7048 20.3716C25.9368 21.1217 26.3985 23.0292 25.8583 24.9854H17.5322V20.3716H25.7048ZM17.5322 19.3069V14.6931H25.7125C26.3622 16.6395 25.9272 18.5543 25.7022 19.3069H17.5322ZM22.5262 1.43278C22.5276 1.43086 22.5289 1.42886 22.5303 1.42687L23.7155 3.79711C22.7978 4.5303 20.0602 6.59241 17.5322 7.25508V5.93672C18.2967 5.4412 20.5949 3.84691 22.5262 1.43278ZM9.50828 4.54066C10.3889 5.25805 13.5214 7.67782 16.4674 8.34999V13.6284H8.44664V11.8894C8.44664 11.7671 8.40806 8.9839 5.23271 6.63817C6.33705 5.77455 8.43515 4.92236 9.50828 4.54066ZM4.53345 7.44567C7.31999 9.46688 7.38075 11.7909 7.38188 11.8894V14.0604C7.24422 14.4194 7.14069 14.7771 7.06346 15.1289L4.16842 13.9263C3.72828 11.4516 3.89974 8.70526 4.53345 7.44567ZM4.03335 15.023L6.90243 16.2148C6.76749 17.9135 7.17489 19.3294 7.34795 19.8387C7.25445 20.1102 7.09122 20.6419 6.97129 21.3369L3.93048 20.0737C3.55735 18.2103 3.83559 16.1062 4.03335 15.023ZM3.84343 24.6533C3.79621 23.9522 3.88148 22.2424 3.94011 21.2305L6.8416 22.4359C6.78257 23.3716 6.84751 24.4574 7.19946 25.5567C7.14056 25.8938 6.99228 26.7906 6.92919 27.6072L5.26492 26.9158C4.12891 26.4439 3.88666 25.2957 3.84343 24.6533ZM4.84802 29.5562C4.6399 29.4477 4.51313 29.2274 4.52436 28.9924C4.52449 28.9896 4.52455 28.9868 4.52462 28.9839L4.5632 27.7577C4.6581 27.8087 4.75498 27.857 4.85632 27.8991L6.93324 28.7619C7.03285 29.4944 7.35539 30.1711 7.86698 30.7039C8.02974 30.8735 8.20711 31.0231 8.39597 31.1524L4.84802 29.5562ZM16.4675 32.9353H9.61785C9.59826 32.9353 9.58239 32.9193 9.58239 32.8998V31.6579C9.80598 31.7044 10.0361 31.7286 10.2705 31.7286H16.4676L16.4675 32.9353ZM16.4675 30.6639H10.2704C8.97749 30.6639 7.96473 29.6139 7.96473 28.2735C7.96473 27.5969 8.10604 26.6119 8.19662 26.0501H16.4675V30.6639ZM16.4675 24.9854H8.14144C7.60434 23.0365 8.06494 21.1233 8.29583 20.3716H16.4675V24.9854ZM16.4675 19.3069H8.29756C8.07231 18.5536 7.63755 16.6391 8.2872 14.6931H16.4675V19.3069ZM16.4675 7.25502C13.9423 6.59255 11.2026 4.53004 10.2843 3.79698L11.4693 1.427C11.4708 1.42893 11.472 1.43099 11.4736 1.43291C13.4048 3.84705 15.7031 5.44133 16.4675 5.93679V7.25502ZM12.5488 1.06469H21.4508C19.7233 3.12587 17.7186 4.53787 16.9996 5.01155C16.281 4.53873 14.2796 3.13013 12.5488 1.06469ZM24.4174 32.8998C24.4174 32.9193 24.4014 32.9352 24.3819 32.9352H17.5322V31.7286H23.7294C23.9637 31.7286 24.1939 31.7043 24.4174 31.6578V32.8998ZM23.7294 30.6639H17.5322V26.0501H25.8031C25.8937 26.6116 26.035 27.596 26.035 28.2735C26.035 29.6139 25.0222 30.6639 23.7294 30.6639ZM29.1517 29.5562L25.6035 31.1524C25.7924 31.0231 25.9699 30.8735 26.1327 30.7039C26.6442 30.1711 26.9669 29.4944 27.0664 28.7619L29.1433 27.8991C29.2362 27.8605 29.3254 27.8168 29.413 27.7709L29.4755 28.9926C29.4866 29.2274 29.3598 29.4477 29.1517 29.5562ZM30.1562 24.6533C30.1131 25.2957 29.8708 26.4439 28.7348 26.9158L27.0705 27.6072C27.0075 26.7905 26.8591 25.8938 26.8002 25.5567C27.1522 24.4574 27.2172 23.3716 27.1581 22.4359L30.0596 21.2305C30.1183 22.2424 30.2035 23.952 30.1562 24.6533ZM30.0693 20.0737L27.0285 21.3369C26.9086 20.6418 26.7453 20.1101 26.6518 19.8387C26.8249 19.3294 27.2322 17.9134 27.0973 16.2148L29.9664 15.023C30.1642 16.1063 30.4424 18.2103 30.0693 20.0737Z" fill="#595D62"/>
</g>
<defs>
<clipPath id="clip0_3351_3242">
<rect width="34" height="34" fill="white"/>
</clipPath>
</defs>
</svg>
