<svg width="20" height="20" viewBox="0 0 20 20" fill="none" xmlns="http://www.w3.org/2000/svg">
<path d="M5.8335 6.98268H9.5835M9.5835 6.98268H12.0835M9.5835 6.98268V5.83325M14.1668 6.98268H12.0835M12.0835 6.98268C11.6439 8.55458 10.7234 10.0405 9.67275 11.3464M9.67275 11.3464C8.80275 12.4278 7.84354 13.3856 6.99421 14.1666M9.67275 11.3464C9.13708 10.7183 8.38708 9.70209 8.17278 9.24234M9.67275 11.3464L11.2799 13.0172" stroke="#595D62" stroke-width="1.25" stroke-linecap="round" stroke-linejoin="round"/>
<path d="M2.0835 9.99992C2.0835 6.26797 2.0835 4.40199 3.24286 3.24262C4.40224 2.08325 6.26821 2.08325 10.0002 2.08325C13.7321 2.08325 15.5981 2.08325 16.7575 3.24262C17.9168 4.40199 17.9168 6.26797 17.9168 9.99992C17.9168 13.7318 17.9168 15.5978 16.7575 16.7573C15.5981 17.9166 13.7321 17.9166 10.0002 17.9166C6.26821 17.9166 4.40224 17.9166 3.24286 16.7573C2.0835 15.5978 2.0835 13.7318 2.0835 9.99992Z" stroke="#595D62" stroke-width="1.25"/>
</svg>
