<svg width="45" height="44" viewBox="0 0 45 44" fill="none" xmlns="http://www.w3.org/2000/svg">
<path d="M0.5 22C0.5 9.84974 10.3497 0 22.5 0C34.6503 0 44.5 9.84974 44.5 22C44.5 34.1503 34.6503 44 22.5 44C10.3497 44 0.5 34.1503 0.5 22Z" fill="#F5F5F5"/>
<path d="M18.0952 15.2718C18.0987 15.7164 17.9271 16.1445 17.6174 16.4635C17.3078 16.7826 16.885 16.9669 16.4405 16.9767C15.997 16.9606 15.5766 16.7746 15.2662 16.4573C14.9558 16.14 14.7793 15.7156 14.7729 15.2718C14.7921 14.8393 14.9751 14.4303 15.2848 14.1278C15.5945 13.8252 16.0077 13.6519 16.4405 13.6428C16.8721 13.652 17.2838 13.8258 17.5914 14.1287C17.899 14.4315 18.0793 14.8405 18.0952 15.2718ZM14.9517 20.0058C14.9517 19.0261 15.5752 19.1791 16.4405 19.1791C17.3058 19.1791 17.9165 19.0261 17.9165 20.0058V29.551C17.9165 30.5435 17.2929 30.3404 16.4405 30.3404C15.5881 30.3404 14.9517 30.5435 14.9517 29.551V20.0058ZM20.4879 20.0071C20.4879 19.4594 20.6911 19.255 21.0087 19.192C21.3275 19.1277 22.4217 19.192 22.8035 19.192C23.1854 19.192 23.3384 19.8155 23.3255 20.2861C23.6521 19.8479 24.0856 19.5007 24.5847 19.2779C25.0838 19.055 25.6316 18.9639 26.1759 19.0133C26.7105 18.9806 27.2459 19.0608 27.7474 19.2485C28.249 19.4363 28.7054 19.7274 29.0871 20.1031C29.4688 20.4787 29.7672 20.9304 29.963 21.4289C30.1587 21.9273 30.2475 22.4614 30.2234 22.9964V29.5124C30.2234 30.505 29.6127 30.3018 28.7461 30.3018C27.8808 30.3018 27.2701 30.505 27.2701 29.5124V24.4223C27.2925 24.1603 27.2583 23.8966 27.1698 23.6491C27.0812 23.4015 26.9405 23.176 26.757 22.9876C26.5736 22.7993 26.3518 22.6527 26.1066 22.5577C25.8615 22.4627 25.5988 22.4216 25.3364 22.4371C25.075 22.4302 24.8151 22.479 24.5739 22.5802C24.3328 22.6813 24.1159 22.8326 23.9377 23.024C23.7594 23.2154 23.6239 23.4424 23.5401 23.6901C23.4563 23.9379 23.4261 24.2006 23.4515 24.4608V29.551C23.4515 30.5435 22.8279 30.3404 21.9627 30.3404C21.0974 30.3404 20.4867 30.5435 20.4867 29.551V20.0058L20.4879 20.0071Z" stroke="#595D62" stroke-linecap="round" stroke-linejoin="round"/>
</svg>
