<svg width="20" height="20" viewBox="0 0 20 20" fill="none" xmlns="http://www.w3.org/2000/svg">
<path d="M6.66663 13.3337C6.66663 15.6907 6.66663 16.8692 7.39886 17.6014C8.13109 18.3337 9.3096 18.3337 11.6666 18.3337H12.5C14.857 18.3337 16.0355 18.3337 16.7677 17.6014C17.5 16.8692 17.5 15.6907 17.5 13.3337V6.66699C17.5 4.30997 17.5 3.13146 16.7677 2.39923C16.0355 1.66699 14.857 1.66699 12.5 1.66699H11.6666C9.3096 1.66699 8.13109 1.66699 7.39886 2.39923C6.66663 3.13146 6.66663 4.30997 6.66663 6.66699" stroke="#B3804A" stroke-width="1.25" stroke-linecap="round"/>
<path d="M6.66667 16.25C4.70248 16.25 3.72039 16.25 3.11019 15.6398C2.5 15.0296 2.5 14.0475 2.5 12.0833V7.91667C2.5 5.95248 2.5 4.97039 3.11019 4.36019C3.72039 3.75 4.70248 3.75 6.66667 3.75" stroke="#B3804A" stroke-width="1.25"/>
<path d="M5 10.0003L12.5 10.0003M12.5 10.0003L10.4167 12.0837M12.5 10.0003L10.4167 7.91699" stroke="#B3804A" stroke-width="1.25" stroke-linecap="round" stroke-linejoin="round"/>
</svg>
