<svg width="20" height="20" viewBox="0 0 20 20" fill="none" xmlns="http://www.w3.org/2000/svg">
<path d="M6.66797 5.83341C6.67806 4.02089 6.75843 3.0393 7.39875 2.39898C8.13099 1.66675 9.3095 1.66675 11.6665 1.66675H12.4999C14.8569 1.66675 16.0354 1.66675 16.7676 2.39898C17.4999 3.13121 17.4999 4.30973 17.4999 6.66675V13.3334C17.4999 15.6904 17.4999 16.8689 16.7676 17.6012C16.0354 18.3334 14.8569 18.3334 12.4999 18.3334H11.6665C9.3095 18.3334 8.13099 18.3334 7.39875 17.6012C6.75843 16.9609 6.67806 15.9793 6.66797 14.1667" stroke="#595D62" stroke-width="1.25" stroke-linecap="round"/>
<path d="M6.66667 16.25C4.70248 16.25 3.72039 16.25 3.11019 15.6398C2.5 15.0296 2.5 14.0475 2.5 12.0833V7.91667C2.5 5.95248 2.5 4.97039 3.11019 4.36019C3.72039 3.75 4.70248 3.75 6.66667 3.75" stroke="#595D62" stroke-width="1.25"/>
<path d="M12.5 9.99992L5 9.99992M5 9.99992L6.66667 11.6666M5 9.99992L6.66667 8.33325" stroke="#595D62" stroke-width="1.25" stroke-linecap="round" stroke-linejoin="round"/>
</svg>
