<svg width="36" height="36" viewBox="0 0 36 36" fill="none" xmlns="http://www.w3.org/2000/svg">
<g clip-path="url(#clip0_3218_2719)">
<path d="M7.49963 30.6363V28.9596C7.49963 28.3167 7.10337 27.8976 6.42416 27.8976C6.08462 27.8976 5.71672 28.0093 5.462 28.3727C5.264 28.0652 4.98105 27.8976 4.55657 27.8976C4.27349 27.8976 3.99067 27.9813 3.76418 28.2888V27.9535H3.16992V30.6363H3.76418V29.1551C3.76418 28.6801 4.0189 28.4564 4.41516 28.4564C4.81116 28.4564 5.00941 28.708 5.00941 29.1551V30.6363H5.60367V29.1551C5.60367 28.6801 5.88649 28.4564 6.25439 28.4564C6.65065 28.4564 6.84865 28.708 6.84865 29.1551V30.6363H7.49963ZM16.3002 27.9535H15.3382V27.143H14.7439V27.9535H14.2062V28.4843H14.7438V29.7141C14.7438 30.329 14.9985 30.6922 15.6777 30.6922C15.9324 30.6922 16.2152 30.6084 16.4135 30.4966L16.2436 29.9935C16.0738 30.1053 15.8758 30.1333 15.7343 30.1333C15.4513 30.1333 15.3382 29.9657 15.3382 29.6861V28.4843H16.3002V27.9535ZM21.3373 27.8974C20.9978 27.8974 20.7714 28.0652 20.6299 28.2888V27.9535H20.0356V30.6363H20.6299V29.1272C20.6299 28.6801 20.8279 28.4286 21.1958 28.4286C21.309 28.4286 21.4505 28.4566 21.5637 28.4845L21.7335 27.9256C21.6203 27.8976 21.4505 27.8976 21.3373 27.8976M13.7252 28.1771C13.4421 27.9815 13.0459 27.8977 12.6215 27.8977C11.9424 27.8977 11.4897 28.233 11.4897 28.764C11.4897 29.2112 11.8292 29.4627 12.4235 29.5466L12.7064 29.5746C13.0177 29.6303 13.1875 29.7142 13.1875 29.854C13.1875 30.0495 12.9611 30.1893 12.5649 30.1893C12.1687 30.1893 11.8574 30.0495 11.6593 29.9099L11.3764 30.357C11.6877 30.5805 12.1121 30.6923 12.5365 30.6923C13.3289 30.6923 13.7817 30.3291 13.7817 29.826C13.7817 29.3509 13.4138 29.0993 12.8478 29.0156L12.5649 28.9876C12.3101 28.9596 12.1121 28.9038 12.1121 28.7361C12.1121 28.5405 12.3101 28.4287 12.6215 28.4287C12.9611 28.4287 13.3007 28.5683 13.4704 28.6522L13.7252 28.1771ZM29.5155 27.8977C29.1759 27.8977 28.9495 28.0654 28.808 28.2889V27.9536H28.2137V30.6364H28.808V29.1273C28.808 28.6802 29.0061 28.4287 29.3739 28.4287C29.4872 28.4287 29.6287 28.4567 29.7419 28.4846L29.9117 27.9257C29.7985 27.8977 29.6287 27.8977 29.5155 27.8977ZM21.9316 29.295C21.9316 30.1054 22.4975 30.6923 23.3748 30.6923C23.7709 30.6923 24.0539 30.6085 24.3368 30.385L24.0539 29.9099C23.8275 30.0776 23.6012 30.1613 23.3465 30.1613C22.8654 30.1613 22.5258 29.826 22.5258 29.295C22.5258 28.792 22.8654 28.4566 23.3465 28.4287C23.6012 28.4287 23.8275 28.5125 24.0539 28.6802L24.3368 28.2051C24.0539 27.9815 23.7709 27.8977 23.3748 27.8977C22.4975 27.8977 21.9316 28.4846 21.9316 29.295ZM27.4214 29.295V27.9536H26.8272V28.2889C26.6291 28.0375 26.3461 27.8977 25.9782 27.8977C25.2142 27.8977 24.6199 28.4846 24.6199 29.295C24.6199 30.1054 25.2142 30.6923 25.9782 30.6923C26.3743 30.6923 26.6574 30.5527 26.8272 30.3011V30.6364H27.4214V29.295ZM25.2424 29.295C25.2424 28.8199 25.5537 28.4287 26.063 28.4287C26.5441 28.4287 26.8838 28.792 26.8838 29.295C26.8838 29.7701 26.5441 30.1613 26.063 30.1613C25.5537 30.1333 25.2424 29.7701 25.2424 29.295ZM18.1397 27.8977C17.3473 27.8977 16.7813 28.4566 16.7813 29.295C16.7813 30.1334 17.3472 30.6923 18.1679 30.6923C18.564 30.6923 18.9603 30.5805 19.2716 30.3291L18.9885 29.9099C18.7622 30.0776 18.4792 30.1893 18.1963 30.1893C17.8284 30.1893 17.4605 30.0217 17.3755 29.5464H19.3848V29.323C19.4131 28.4566 18.9038 27.8977 18.1397 27.8977ZM18.1395 28.4007C18.5073 28.4007 18.7622 28.6244 18.8186 29.0436H17.4037C17.4603 28.6802 17.7151 28.4007 18.1395 28.4007ZM32.8828 29.295V26.8916H32.2886V28.2889C32.0904 28.0375 31.8075 27.8977 31.4396 27.8977C30.6756 27.8977 30.0813 28.4846 30.0813 29.295C30.0813 30.1054 30.6756 30.6923 31.4396 30.6923C31.8358 30.6923 32.1188 30.5527 32.2886 30.3011V30.6364H32.8828V29.295ZM30.7039 29.295C30.7039 28.8199 31.0151 28.4287 31.5245 28.4287C32.0056 28.4287 32.3451 28.792 32.3451 29.295C32.3451 29.7701 32.0056 30.1613 31.5245 30.1613C31.0151 30.1333 30.7039 29.7701 30.7039 29.295ZM10.8386 29.295V27.9536H10.2443V28.2889C10.0462 28.0375 9.76322 27.8977 9.39532 27.8977C8.63129 27.8977 8.03703 28.4846 8.03703 29.295C8.03703 30.1054 8.63129 30.6923 9.39532 30.6923C9.79158 30.6923 10.0745 30.5527 10.2443 30.3011V30.6364H10.8386V29.295ZM8.63129 29.295C8.63129 28.8199 8.9426 28.4287 9.45191 28.4287C9.93299 28.4287 10.2727 28.792 10.2727 29.295C10.2727 29.7701 9.93299 30.1613 9.45191 30.1613C8.9426 30.1333 8.63129 29.7701 8.63129 29.295Z" fill="black"/>
<path d="M13.5264 7.57983H22.4402V23.3977H13.5264V7.57983Z" fill="#FF5F00"/>
<path d="M14.0927 15.4895C14.0927 12.2757 15.6208 9.42509 17.9694 7.58056C16.2434 6.23914 14.0645 5.42871 11.6875 5.42871C6.05593 5.42871 1.5 9.92807 1.5 15.4895C1.5 21.0509 6.05593 25.5504 11.6873 25.5504C14.0644 25.5504 16.2433 24.74 17.9694 23.3984C15.6208 21.5819 14.0927 18.7034 14.0927 15.4895Z" fill="#EB001B"/>
<path d="M34.4665 15.4895C34.4665 21.0509 29.9106 25.5504 24.2792 25.5504C21.9022 25.5504 19.7233 24.74 17.9971 23.3984C20.3741 21.554 21.8739 18.7034 21.8739 15.4895C21.8739 12.2757 20.3457 9.42509 17.9971 7.58056C19.7231 6.23914 21.9022 5.42871 24.2792 5.42871C29.9106 5.42871 34.4665 9.95608 34.4665 15.4895Z" fill="#F79E1B"/>
</g>
<defs>
<clipPath id="clip0_3218_2719">
<rect width="33" height="25.1429" fill="white" transform="translate(1.5 5.42871)"/>
</clipPath>
</defs>
</svg>
