<svg width="18" height="18" viewBox="0 0 18 18" fill="none" xmlns="http://www.w3.org/2000/svg">
<g clip-path="url(#clip0_2612_4443)">
<path d="M3.74981 15.3177V14.4793C3.74981 14.1578 3.55168 13.9483 3.21208 13.9483C3.04231 13.9483 2.85836 14.0042 2.731 14.1858C2.632 14.0321 2.49053 13.9483 2.27828 13.9483C2.13674 13.9483 1.99533 13.9902 1.88209 14.1439V13.9762H1.58496V15.3177H1.88209V14.5771C1.88209 14.3396 2.00945 14.2277 2.20758 14.2277C2.40558 14.2277 2.50471 14.3535 2.50471 14.5771V15.3177H2.80184V14.5771C2.80184 14.3396 2.94325 14.2277 3.1272 14.2277C3.32532 14.2277 3.42432 14.3535 3.42432 14.5771V15.3177H3.74981ZM8.15009 13.9762H7.66908V13.571H7.37195V13.9762H7.10312V14.2417H7.37188V14.8566C7.37188 15.164 7.49924 15.3456 7.83885 15.3456C7.96621 15.3456 8.10762 15.3037 8.20675 15.2478L8.1218 14.9963C8.03691 15.0522 7.93791 15.0662 7.86714 15.0662C7.72567 15.0662 7.66908 14.9823 7.66908 14.8426V14.2417H8.15009V13.9762ZM10.6687 13.9482C10.4989 13.9482 10.3857 14.0321 10.3149 14.1439V13.9762H10.0178V15.3177H10.3149V14.5631C10.3149 14.3396 10.4139 14.2138 10.5979 14.2138C10.6545 14.2138 10.7253 14.2278 10.7818 14.2417L10.8667 13.9623C10.8101 13.9483 10.7253 13.9483 10.6687 13.9483M6.86258 14.0881C6.72104 13.9902 6.52297 13.9484 6.31073 13.9484C5.97119 13.9484 5.74483 14.116 5.74483 14.3815C5.74483 14.6051 5.9146 14.7308 6.21173 14.7728L6.3532 14.7868C6.50886 14.8147 6.59374 14.8566 6.59374 14.9265C6.59374 15.0243 6.48056 15.0942 6.28243 15.0942C6.08437 15.0942 5.92871 15.0243 5.82965 14.9545L5.68818 15.178C5.84383 15.2898 6.05607 15.3457 6.26825 15.3457C6.66445 15.3457 6.89087 15.1641 6.89087 14.9125C6.89087 14.675 6.70692 14.5492 6.42391 14.5073L6.28243 14.4933C6.15507 14.4793 6.05607 14.4514 6.05607 14.3676C6.05607 14.2697 6.15507 14.2139 6.31073 14.2139C6.48056 14.2139 6.65033 14.2837 6.73522 14.3256L6.86258 14.0881ZM14.7578 13.9484C14.5879 13.9484 14.4747 14.0322 14.404 14.144V13.9763H14.1068V15.3177H14.404V14.5632C14.404 14.3396 14.503 14.2139 14.6869 14.2139C14.7436 14.2139 14.8144 14.2279 14.8709 14.2418L14.9558 13.9624C14.8992 13.9484 14.8144 13.9484 14.7578 13.9484ZM10.9658 14.647C10.9658 15.0522 11.2487 15.3457 11.6874 15.3457C11.8855 15.3457 12.0269 15.3038 12.1684 15.192L12.0269 14.9545C11.9138 15.0383 11.8006 15.0802 11.6732 15.0802C11.4327 15.0802 11.2629 14.9125 11.2629 14.647C11.2629 14.3955 11.4327 14.2278 11.6732 14.2139C11.8006 14.2139 11.9138 14.2557 12.0269 14.3396L12.1684 14.1021C12.0269 13.9902 11.8855 13.9484 11.6874 13.9484C11.2487 13.9484 10.9658 14.2418 10.9658 14.647ZM13.7107 14.647V13.9763H13.4136V14.144C13.3145 14.0183 13.1731 13.9484 12.9891 13.9484C12.6071 13.9484 12.31 14.2418 12.31 14.647C12.31 15.0522 12.6071 15.3457 12.9891 15.3457C13.1872 15.3457 13.3287 15.2758 13.4136 15.1501V15.3177H13.7107V14.647ZM12.6212 14.647C12.6212 14.4095 12.7769 14.2139 13.0315 14.2139C13.2721 14.2139 13.4419 14.3955 13.4419 14.647C13.4419 14.8846 13.2721 15.0802 13.0315 15.0802C12.7769 15.0662 12.6212 14.8846 12.6212 14.647ZM9.06984 13.9484C8.67364 13.9484 8.39063 14.2278 8.39063 14.647C8.39063 15.0662 8.67358 15.3457 9.08395 15.3457C9.28202 15.3457 9.48015 15.2898 9.6358 15.1641L9.49426 14.9545C9.38108 15.0383 9.23961 15.0942 9.09813 15.0942C8.91418 15.0942 8.73023 15.0103 8.68776 14.7727H9.69239V14.661C9.70657 14.2278 9.45192 13.9484 9.06984 13.9484ZM9.06977 14.1999C9.25366 14.1999 9.38108 14.3117 9.40931 14.5213H8.70187C8.73017 14.3396 8.85753 14.1999 9.06977 14.1999ZM16.4414 14.647V13.4453H16.1443V14.144C16.0452 14.0183 15.9037 13.9484 15.7198 13.9484C15.3378 13.9484 15.0406 14.2418 15.0406 14.647C15.0406 15.0522 15.3378 15.3457 15.7198 15.3457C15.9179 15.3457 16.0594 15.2758 16.1443 15.1501V15.3177H16.4414V14.647ZM15.352 14.647C15.352 14.4095 15.5075 14.2139 15.7623 14.2139C16.0028 14.2139 16.1726 14.3955 16.1726 14.647C16.1726 14.8846 16.0028 15.0802 15.7623 15.0802C15.5075 15.0662 15.352 14.8846 15.352 14.647ZM5.41928 14.647V13.9763H5.12215V14.144C5.02308 14.0183 4.88161 13.9484 4.69766 13.9484C4.31565 13.9484 4.01852 14.2418 4.01852 14.647C4.01852 15.0522 4.31565 15.3457 4.69766 15.3457C4.89579 15.3457 5.03726 15.2758 5.12215 15.1501V15.3177H5.41928V14.647ZM4.31565 14.647C4.31565 14.4095 4.4713 14.2139 4.72596 14.2139C4.96649 14.2139 5.13633 14.3955 5.13633 14.647C5.13633 14.8846 4.96649 15.0802 4.72596 15.0802C4.4713 15.0662 4.31565 14.8846 4.31565 14.647Z" fill="black"/>
<path d="M6.76367 3.78979H11.2206V11.6987H6.76367V3.78979Z" fill="#FF5F00"/>
<path d="M7.04636 7.74428C7.04636 6.13737 7.81039 4.71206 8.98472 3.78979C8.1217 3.11908 7.03225 2.71387 5.84373 2.71387C3.02797 2.71387 0.75 4.96355 0.75 7.74428C0.75 10.525 3.02797 12.7747 5.84367 12.7747C7.03218 12.7747 8.12163 12.3695 8.98472 11.6987C7.81039 10.7905 7.04636 9.3512 7.04636 7.74428Z" fill="#EB001B"/>
<path d="M17.2337 7.74428C17.2337 10.525 14.9558 12.7747 12.1401 12.7747C10.9516 12.7747 9.86212 12.3695 8.99902 11.6987C10.1875 10.7765 10.9375 9.3512 10.9375 7.74428C10.9375 6.13737 10.1734 4.71206 8.99902 3.78979C9.86205 3.11908 10.9516 2.71387 12.1401 2.71387C14.9558 2.71387 17.2337 4.97755 17.2337 7.74428Z" fill="#F79E1B"/>
</g>
<defs>
<clipPath id="clip0_2612_4443">
<rect width="16.5" height="12.5714" fill="white" transform="translate(0.75 2.71436)"/>
</clipPath>
</defs>
</svg>
