<svg width="130" height="130" viewBox="0 0 130 130" fill="none" xmlns="http://www.w3.org/2000/svg">
<path d="M73.029 114.266C73.029 115.873 72.5525 117.443 71.6597 118.78C70.7669 120.116 69.498 121.157 68.0133 121.772C66.5287 122.387 64.895 122.548 63.3189 122.235C61.7428 121.921 60.2951 121.147 59.1588 120.011C58.0225 118.875 57.2486 117.427 56.9351 115.851C56.6216 114.275 56.7825 112.641 57.3975 111.156C58.0124 109.672 59.0538 108.403 60.39 107.51C61.7261 106.617 63.297 106.141 64.904 106.141C67.0589 106.141 69.1255 106.997 70.6492 108.52C72.173 110.044 73.029 112.111 73.029 114.266ZM110.099 51.2969L117.981 43.4207C119.125 42.2759 119.768 40.7233 119.768 39.1043C119.768 37.4854 119.125 35.9327 117.981 34.7879C116.836 33.6431 115.283 33 113.664 33C112.045 33 110.493 33.6431 109.348 34.7879L101.466 42.6641L93.5903 34.7981C92.4455 33.6533 90.8929 33.0102 89.2739 33.0102C87.655 33.0102 86.1023 33.6533 84.9575 34.7981C83.8127 35.9429 83.1696 37.4955 83.1696 39.1145C83.1696 40.7334 83.8127 42.2861 84.9575 43.4309L92.8337 51.2969L84.9677 59.1731C83.8229 60.3178 83.1798 61.8705 83.1798 63.4895C83.1798 65.1084 83.8229 66.6611 84.9677 67.8059C86.1125 68.9507 87.6651 69.5938 89.2841 69.5938C90.903 69.5938 92.4557 68.9507 93.6005 67.8059L101.466 59.9297L109.343 67.811C109.91 68.3778 110.582 68.8274 111.323 69.1342C112.064 69.441 112.857 69.5989 113.659 69.5989C114.461 69.5989 115.254 69.441 115.995 69.1342C116.736 68.8274 117.409 68.3778 117.975 67.811C118.542 67.2441 118.992 66.5712 119.299 65.8306C119.606 65.09 119.763 64.2962 119.763 63.4945C119.763 62.6929 119.606 61.8991 119.299 61.1585C118.992 60.4179 118.542 59.745 117.975 59.1781L110.099 51.2969ZM88.822 89.5352C81.8773 84.4826 73.51 81.7609 64.9218 81.7609C56.3336 81.7609 47.9663 84.4826 41.0216 89.5352C39.7152 90.4867 38.8403 91.9182 38.5893 93.5148C38.3384 95.1114 38.732 96.7422 39.6835 98.0486C40.635 99.355 42.0665 100.23 43.6631 100.481C45.2597 100.732 46.8906 100.338 48.197 99.3867C53.0573 95.8524 58.9123 93.9486 64.9218 93.9486C70.9313 93.9486 76.7863 95.8524 81.6466 99.3867C82.953 100.338 84.5839 100.732 86.1804 100.481C87.777 100.23 89.2085 99.355 90.1601 98.0486C91.1116 96.7422 91.5051 95.1114 91.2542 93.5148C91.0033 91.9182 90.1284 90.4867 88.822 89.5352ZM66.727 69.5781C68.3432 69.6334 69.9151 69.0443 71.097 67.9405C72.2788 66.8368 72.9738 65.3088 73.029 63.6926C73.0842 62.0764 72.4952 60.5045 71.3914 59.3227C70.2876 58.1408 68.7596 57.4459 67.1435 57.3906H64.904C50.2491 57.3364 36.0151 62.2882 24.5583 71.4266C23.3232 72.4403 22.5358 73.8986 22.3655 75.4873C22.1952 77.076 22.6557 78.6681 23.6478 79.9206C24.6399 81.1731 26.0843 81.9858 27.6698 82.1836C29.2554 82.3815 30.8552 81.9487 32.1247 80.9785C41.433 73.5546 52.9978 69.5324 64.904 69.5781C65.5134 69.5781 66.1278 69.5781 66.727 69.6086V69.5781Z" fill="#5F489D"/>
<path d="M67.9541 44.6598L67.9452 44.6597H67.9363H67.7865H65.9335H65.9327C48.0296 44.6695 30.684 50.962 16.8384 62.4653L16.837 62.4665C16.3804 62.8467 15.8558 63.131 15.2932 63.3043C14.7307 63.4775 14.1406 63.5365 13.5562 63.4782C12.9718 63.42 12.4036 63.2455 11.8841 62.9639C11.3644 62.6823 10.9031 62.2988 10.5273 61.8344C10.1513 61.3699 9.86835 60.8337 9.69548 60.256C9.5226 59.6783 9.46348 59.0712 9.52175 58.4698C9.58002 57.8683 9.75445 57.2852 10.0343 56.7537C10.3141 56.2225 10.6935 55.7538 11.1498 55.3736C26.6052 42.5308 45.9614 35.5106 65.9335 35.5H68.0666C69.2484 35.5162 70.3804 36.0067 71.2132 36.8714C72.0486 37.7389 72.5137 38.912 72.4997 40.1335C72.4856 41.3551 71.9937 42.5166 71.1389 43.3637C70.2848 44.2101 69.1388 44.6739 67.9541 44.6598Z" stroke="#5F489D" stroke-width="3"/>
<path fill-rule="evenodd" clip-rule="evenodd" d="M16.2647 7.30233C14.8512 5.09747 15.4927 2.16415 17.6975 0.75059C19.9024 -0.662973 22.8357 -0.0214994 24.2492 2.18336L29.5146 10.3962C30.9281 12.601 30.2866 15.5343 28.0818 16.9479C25.8769 18.3615 22.9436 17.72 21.5301 15.5151L16.2647 7.30233ZM19.6405 3.78124C19.1094 4.12172 18.9549 4.82827 19.2954 5.35934L24.5607 13.5721C24.9012 14.1032 25.6077 14.2577 26.1388 13.9172C26.6699 13.5768 26.8244 12.8702 26.4839 12.3391L21.2186 4.12635C20.8781 3.59527 20.1716 3.44076 19.6405 3.78124ZM3.32628 18.4233C2.37338 20.8629 3.57857 23.6131 6.01815 24.566L15.1052 28.1154C17.5448 29.0683 20.295 27.8631 21.2479 25.4235C22.2008 22.9839 20.9956 20.2338 18.556 19.2809L9.4689 15.7315C7.02933 14.7786 4.27918 15.9838 3.32628 18.4233ZM7.32794 21.2127C6.74033 20.9832 6.45003 20.3208 6.67956 19.7331C6.90908 19.1455 7.5715 18.8552 8.15912 19.0847L17.2462 22.6342C17.8338 22.8637 18.1241 23.5261 17.8946 24.1137C17.6651 24.7013 17.0026 24.9916 16.415 24.7621L7.32794 21.2127Z" fill="#5F489D"/>
</svg>
