<svg width="181" height="180" viewBox="0 0 181 180" fill="none" xmlns="http://www.w3.org/2000/svg">
<ellipse opacity="0.1" cx="90.5" cy="174.6" rx="90" ry="5.4" fill="#5F489D"/>
<path fill-rule="evenodd" clip-rule="evenodd" d="M38.4703 23.8541C37.0567 21.6492 37.6982 18.7159 39.9031 17.3023C42.1079 15.8888 45.0413 16.5303 46.4548 18.7351L51.7201 26.9479C53.1337 29.1528 52.4922 32.0861 50.2873 33.4997C48.0825 34.9132 45.1492 34.2717 43.7356 32.0669L38.4703 23.8541ZM41.8461 20.333C41.315 20.6735 41.1605 21.38 41.501 21.9111L46.7663 30.1239C47.1067 30.655 47.8133 30.8095 48.3444 30.469C48.8754 30.1285 49.03 29.422 48.6895 28.8909L43.4242 20.6781C43.0837 20.147 42.3771 19.9925 41.8461 20.333ZM47.2987 73.3842C47.2987 50.1256 67.1383 30.5996 90.9088 30.5996C114.059 30.5996 133.481 49.1195 134.479 71.5707C124.597 74.9788 117.499 84.3603 117.499 95.3997C117.499 99.339 118.403 103.067 120.014 106.388C110.948 118.091 99.9354 127.975 94.0147 132.949C92.1991 134.474 89.6179 134.473 87.8011 132.947C82.1922 128.235 72.0056 119.11 63.2366 108.203C54.407 97.2217 47.2987 84.7779 47.2987 73.3842ZM121.968 109.731C117.417 115.472 112.466 120.74 107.926 125.184C115.202 126.09 121.539 127.585 126.256 129.508C128.911 130.59 131.15 131.847 132.755 133.287C134.357 134.725 135.499 136.509 135.499 138.6C135.499 141.218 133.726 143.346 131.411 144.976C129.047 146.641 125.743 148.067 121.823 149.235C113.959 151.577 103.203 153 91.3987 153C79.5941 153 68.8379 151.577 60.9742 149.235C57.0539 148.067 53.7503 146.641 51.3864 144.976C49.0714 143.346 47.2987 141.218 47.2987 138.6C47.2987 136.509 48.4404 134.725 50.0423 133.287C51.6474 131.847 53.8862 130.59 56.5409 129.508C61.0701 127.661 67.0923 126.21 74.0054 125.295C69.6261 121.016 64.8575 115.965 60.4309 110.459C51.5131 99.3677 43.6987 86.087 43.6987 73.3842C43.6987 48.0753 65.2126 26.9996 90.9088 26.9996C115.667 26.9996 136.543 46.5649 138.034 70.6306C139.546 70.3476 141.105 70.1997 142.699 70.1997C156.616 70.1997 167.899 81.4821 167.899 95.3997C167.899 109.317 156.616 120.6 142.699 120.6C134.105 120.6 126.517 116.298 121.968 109.731ZM104.74 128.235C101.465 131.305 98.5422 133.847 96.3303 135.705C93.1746 138.356 88.6399 138.353 85.4855 135.703C83.3415 133.902 80.531 131.46 77.3804 128.518C69.4118 129.365 62.6534 130.903 57.9001 132.841C55.4475 133.841 53.6254 134.909 52.4465 135.967C51.2643 137.027 50.8987 137.914 50.8987 138.6C50.8987 139.461 51.4932 140.648 53.4593 142.033C55.3763 143.383 58.2674 144.672 62.0019 145.784C69.4478 148.002 79.8416 149.4 91.3987 149.4C102.956 149.4 113.35 148.002 120.795 145.784C124.53 144.672 127.421 143.383 129.338 142.033C131.304 140.648 131.899 139.461 131.899 138.6C131.899 137.914 131.533 137.027 130.351 135.967C129.172 134.909 127.35 133.841 124.897 132.841C120.006 130.847 112.991 129.275 104.719 128.446L104.74 128.235ZM90.9067 88.2508C99.2665 88.2508 106.043 81.5971 106.043 73.3893C106.043 65.1815 99.2665 58.5278 90.9067 58.5278C82.5469 58.5278 75.77 65.1815 75.77 73.3893C75.77 81.5971 82.5469 88.2508 90.9067 88.2508ZM25.5318 34.9751C24.5789 37.4147 25.7841 40.1648 28.2237 41.1177L37.3108 44.6672C39.7504 45.62 42.5005 44.4149 43.4534 41.9753C44.4063 39.5357 43.2011 36.7855 40.7615 35.8326L31.6745 32.2832C29.2349 31.3303 26.4847 32.5355 25.5318 34.9751ZM29.5335 37.7645C28.9459 37.5349 28.6556 36.8725 28.8851 36.2849C29.1146 35.6973 29.7771 35.407 30.3647 35.6365L39.4518 39.1859C40.0394 39.4154 40.3297 40.0779 40.1001 40.6655C39.8706 41.2531 39.2082 41.5434 38.6206 41.3139L29.5335 37.7645ZM121.099 95.3997C121.099 83.4703 130.769 73.7997 142.699 73.7997C154.628 73.7997 164.299 83.4703 164.299 95.3997C164.299 107.329 154.628 117 142.699 117C130.769 117 121.099 107.329 121.099 95.3997ZM138.199 83.6997C138.199 81.2144 140.213 79.1997 142.699 79.1997C145.184 79.1997 147.199 81.2144 147.199 83.6997V94.4997C147.199 96.985 145.184 98.9997 142.699 98.9997C140.213 98.9997 138.199 96.985 138.199 94.4997V83.6997ZM142.699 82.7997C142.202 82.7997 141.799 83.2026 141.799 83.6997V94.4997C141.799 94.9968 142.202 95.3997 142.699 95.3997C143.196 95.3997 143.599 94.9968 143.599 94.4997V83.6997C143.599 83.2026 143.196 82.7997 142.699 82.7997ZM142.699 111.6C140.213 111.6 138.199 109.585 138.199 107.1C138.199 104.614 140.213 102.6 142.699 102.6C145.184 102.6 147.199 104.614 147.199 107.1C147.199 109.585 145.184 111.6 142.699 111.6ZM141.799 107.1C141.799 107.597 142.202 108 142.699 108C143.196 108 143.599 107.597 143.599 107.1C143.599 106.603 143.196 106.2 142.699 106.2C142.202 106.2 141.799 106.603 141.799 107.1Z" fill="#5F489D"/>
</svg>
