<svg width="181" height="180" viewBox="0 0 181 180" fill="none" xmlns="http://www.w3.org/2000/svg">
<ellipse opacity="0.1" cx="90.5" cy="174.6" rx="90" ry="5.4" fill="#5F489D"/>
<path fill-rule="evenodd" clip-rule="evenodd" d="M82.8482 38.8899C82.8482 35.3058 85.7537 32.4004 89.3377 32.4004C92.9218 32.4004 95.8272 35.3058 95.8272 38.8899C95.8272 40.7188 95.0706 42.371 93.8533 43.5506C111.968 45.2458 125.082 57.1965 126.688 75.2637C130.352 73.1864 134.588 72.0004 139.1 72.0004C153.018 72.0004 164.3 83.2828 164.3 97.2004C164.3 109.68 155.228 120.041 143.32 122.049C144.066 123.183 144.5 124.541 144.5 126C144.5 129.977 141.276 133.2 137.3 133.2H106.634C105.893 141.46 98.9523 147.933 90.5 147.933C82.0477 147.933 75.1073 141.46 74.3656 133.2H43.7C39.7236 133.2 36.5 129.977 36.5 126C36.5 122.024 39.7236 118.8 43.7 118.8H50.0229V82.6586C50.0229 62.4569 65.2593 45.8138 84.8675 43.5942C83.6237 42.4119 82.8482 40.7414 82.8482 38.8899ZM123.214 77.2587C123.22 77.3752 123.235 77.4892 123.26 77.5996C117.551 82.2195 113.9 89.2836 113.9 97.2004C113.9 106.367 118.795 114.391 126.113 118.8H53.6229V82.6586C53.6229 62.9333 69.6134 46.9428 89.3386 46.9428C108.457 46.9428 122.376 58.5825 123.214 77.2587ZM78.0276 133.533C78.901 139.639 84.1524 144.333 90.5 144.333C96.8477 144.333 102.099 139.639 102.972 133.533H78.0276ZM40.1 41.1947C40.1 40.3142 40.8138 39.6004 41.6943 39.6004C42.5748 39.6004 43.2886 40.3142 43.2886 41.1947C43.2886 42.0752 42.5748 42.789 41.6943 42.789C40.8138 42.789 40.1 42.0752 40.1 41.1947ZM41.6943 36.0004C38.8256 36.0004 36.5 38.326 36.5 41.1947C36.5 44.0634 38.8256 46.389 41.6943 46.389C44.563 46.389 46.8886 44.0634 46.8886 41.1947C46.8886 38.326 44.563 36.0004 41.6943 36.0004ZM139.1 75.6004C127.171 75.6004 117.5 85.271 117.5 97.2004C117.5 109.13 127.171 118.8 139.1 118.8C151.029 118.8 160.7 109.13 160.7 97.2004C160.7 85.271 151.029 75.6004 139.1 75.6004ZM139.1 81.0004C136.615 81.0004 134.6 83.0151 134.6 85.5004V96.3004C134.6 98.7857 136.615 100.8 139.1 100.8C141.585 100.8 143.6 98.7857 143.6 96.3004V85.5004C143.6 83.0151 141.585 81.0004 139.1 81.0004ZM138.2 85.5004C138.2 85.0033 138.603 84.6004 139.1 84.6004C139.597 84.6004 140 85.0033 140 85.5004V96.3004C140 96.7974 139.597 97.2004 139.1 97.2004C138.603 97.2004 138.2 96.7974 138.2 96.3004V85.5004ZM134.6 108.9C134.6 111.386 136.615 113.4 139.1 113.4C141.585 113.4 143.6 111.386 143.6 108.9C143.6 106.415 141.585 104.4 139.1 104.4C136.615 104.4 134.6 106.415 134.6 108.9ZM139.1 109.8C138.603 109.8 138.2 109.397 138.2 108.9C138.2 108.403 138.603 108 139.1 108C139.597 108 140 108.403 140 108.9C140 109.397 139.597 109.8 139.1 109.8ZM61.5644 42.3316C61.9459 42.1555 62.3974 42.3291 62.5628 42.7153L62.6187 42.8459C62.8042 43.2795 62.6099 43.7964 62.169 43.9999C55.1903 47.2207 51.084 52.1496 48.7195 56.2598C47.5356 58.3179 46.7875 60.1728 46.3367 61.507C46.1114 62.1738 45.9608 62.7095 45.8672 63.0742C45.8205 63.2565 45.788 63.3959 45.7677 63.4875C45.7576 63.5333 45.7505 63.567 45.7461 63.5882L45.7445 63.5959L45.7426 63.6054L45.8109 63.3011L45.7391 63.6233L45.7307 63.6673C45.6467 64.1085 45.2179 64.3956 44.778 64.3052C44.3469 64.2167 44.0668 63.7983 44.1492 63.366L44.1736 63.2378L44.1741 63.2354L44.1749 63.231L44.1764 63.2234L44.1842 63.1848L44.1848 63.182C44.1911 63.1512 44.2002 63.1085 44.2122 63.0544C44.237 62.9426 44.2744 62.7822 44.3267 62.5782C44.4313 62.1702 44.5957 61.5874 44.8378 60.8707C45.3219 59.4379 46.1185 57.4659 47.3734 55.2843C49.8869 50.9149 54.2354 45.714 61.5644 42.3316ZM40.6382 62.5697L40.6128 62.6924C40.1621 65.058 41.6947 67.3471 44.0537 67.8316C46.461 68.326 48.8073 66.755 49.2671 64.3409L49.2729 64.3105L49.2823 64.2671C49.2945 64.2123 49.3178 64.1111 49.3544 63.9685C49.4276 63.6829 49.5532 63.2338 49.7473 62.6593C50.1367 61.5068 50.7937 59.8739 51.8401 58.0549C53.9232 54.4337 57.5238 50.1086 63.6775 47.2686C65.8753 46.2543 66.8863 43.6677 65.9283 41.4294L65.8724 41.2988C64.9092 39.0485 62.2784 38.0371 60.0559 39.0629C51.9013 42.8263 47.0472 48.6316 44.2529 53.4892C42.8604 55.9098 41.9727 58.1039 41.4272 59.7184C41.1539 60.5274 40.9645 61.1968 40.8396 61.6839C40.7771 61.9276 40.7305 62.1263 40.6976 62.2747C40.6812 62.3489 40.6681 62.4107 40.6581 62.4592L40.6568 62.4654L40.5932 62.8025L40.625 62.634L40.7098 62.2202L40.6568 62.4654L40.6382 62.5697Z" fill="#5F489D"/>
</svg>
