<svg width="181" height="180" viewBox="0 0 181 180" fill="none" xmlns="http://www.w3.org/2000/svg">
<ellipse opacity="0.1" cx="90.5" cy="174.6" rx="90" ry="5.4" fill="#5F489D"/>
<path fill-rule="evenodd" clip-rule="evenodd" d="M70.1727 39.5998C71.3479 35.4445 75.1684 32.3998 79.7 32.3998H116.213C113.169 34.2339 110.544 36.6931 108.517 39.5998H70.1727ZM106.425 43.1998H53.6C47.6353 43.1998 42.8 48.0351 42.8 53.9998V120.6H98.6H99.5C100.494 120.6 101.3 121.406 101.3 122.4V131.85C101.3 139.554 107.546 145.8 115.25 145.8C122.954 145.8 129.2 139.554 129.2 131.85V79.1998C115.282 79.1998 104 67.9174 104 53.9998C104 50.1349 104.87 46.4731 106.425 43.1998ZM132.8 78.9446V129.45C137.908 128.594 141.8 124.151 141.8 118.8V75.8285C139.08 77.4017 136.04 78.4812 132.8 78.9446ZM145.4 73.3034V118.8C145.4 126.158 139.881 132.227 132.757 133.094C132.118 142.206 124.524 149.4 115.25 149.4C115.093 149.4 114.936 149.398 114.78 149.394L114.8 149.4H50C40.0589 149.4 32 141.341 32 131.4V127.8C32 123.823 35.2235 120.6 39.2 120.6V53.9998C39.2 46.0469 45.6471 39.5998 53.6 39.5998H66.4701C67.7209 33.4378 73.1688 28.7998 79.7 28.7998H127.4V28.8631C127.995 28.8211 128.595 28.7998 129.2 28.7998C143.118 28.7998 154.4 40.0822 154.4 53.9998C154.4 61.7487 150.902 68.6808 145.4 73.3034ZM22.1 138.15C22.1 137.404 22.7044 136.8 23.45 136.8C24.1956 136.8 24.8 137.404 24.8 138.15V138.6C24.8 148.541 32.8589 156.6 42.8 156.6H46.94C47.6359 156.6 48.2 157.164 48.2 157.86C48.2 158.556 47.6359 159.12 46.94 159.12H42.8C30.8514 159.12 22.1 150.51 22.1 138.6V138.15ZM23.45 133.2C20.7162 133.2 18.5 135.416 18.5 138.15V138.6C18.5 152.536 28.9016 162.72 42.8 162.72H46.94C49.6241 162.72 51.8 160.544 51.8 157.86C51.8 155.176 49.6241 153 46.94 153H42.8C34.8471 153 28.4 146.553 28.4 138.6V138.15C28.4 135.416 26.1838 133.2 23.45 133.2ZM51.8 90.8998C51.8 88.4145 53.8147 86.3998 56.3 86.3998H83.3C85.7853 86.3998 87.8 88.4145 87.8 90.8998C87.8 93.3851 85.7853 95.3998 83.3 95.3998H56.3C53.8147 95.3998 51.8 93.3851 51.8 90.8998ZM56.3 89.9998C55.8029 89.9998 55.4 90.4027 55.4 90.8998C55.4 91.3969 55.8029 91.7998 56.3 91.7998H83.3C83.7971 91.7998 84.2 91.3969 84.2 90.8998C84.2 90.4027 83.7971 89.9998 83.3 89.9998H56.3ZM67.0174 79.4828C67.1545 79.6199 67.3707 79.6885 67.666 79.6885C67.9191 79.6885 68.1037 79.6199 68.2197 79.4828C68.3463 79.3457 68.4096 79.1295 68.4096 78.8342V77.5527C69.3904 77.4473 70.2816 77.1678 71.0832 76.7143C71.8848 76.2502 72.5281 75.5752 73.0133 74.6893C73.509 73.7928 73.7568 72.6853 73.7568 71.367C73.7568 70.2279 73.4984 69.2893 72.9816 68.551C72.4648 67.8021 71.8637 67.2273 71.1781 66.8266C70.4926 66.4258 69.5697 65.9723 68.4096 65.466V61.1945C68.9369 61.2156 69.3799 61.2736 69.7385 61.3686C70.1076 61.4635 70.482 61.5848 70.8617 61.7324C71.1254 61.8379 71.2994 61.8906 71.3838 61.8906C71.5947 61.8906 71.8162 61.743 72.0482 61.4477C72.2908 61.1523 72.4965 60.8096 72.6652 60.4193C72.834 60.0186 72.9184 59.6916 72.9184 59.4385C72.9184 59.1537 72.7232 58.8689 72.333 58.5842C71.9533 58.2994 71.4154 58.0568 70.7193 57.8564C70.0338 57.6561 69.2639 57.54 68.4096 57.5084V56.6383C68.4096 56.3324 68.3463 56.1162 68.2197 55.9896C68.0932 55.8631 67.877 55.7998 67.5711 55.7998C67.318 55.7998 67.1281 55.8684 67.0016 56.0055C66.875 56.132 66.8117 56.343 66.8117 56.6383V57.5242C65.7887 57.6402 64.85 57.9197 63.9957 58.3627C63.152 58.8057 62.4717 59.4385 61.9549 60.2611C61.4486 61.0732 61.1955 62.0699 61.1955 63.2512C61.1955 64.4957 61.4645 65.5082 62.0023 66.2887C62.5508 67.0586 63.1889 67.6439 63.9166 68.0447C64.6549 68.435 65.6199 68.8516 66.8117 69.2945V73.9299C66.1578 73.9299 65.5566 73.8402 65.0082 73.6609C64.4703 73.4816 63.9166 73.2496 63.3471 72.9648C62.9463 72.7539 62.6826 72.6484 62.5561 72.6484C62.3662 72.6484 62.1289 72.7961 61.8441 73.0914C61.5594 73.3762 61.3115 73.7189 61.1006 74.1197C60.9002 74.5205 60.8 74.858 60.8 75.1322C60.8 75.4592 61.0373 75.8072 61.5119 76.1764C61.9971 76.5455 62.6932 76.8672 63.6002 77.1414C64.5178 77.4051 65.5883 77.558 66.8117 77.6002V78.8342C66.8117 79.1295 66.8803 79.3457 67.0174 79.4828ZM65.6727 61.9855C65.8836 61.7008 66.2633 61.4898 66.8117 61.3527V64.7383C66.3371 64.4641 65.9732 64.1793 65.7201 63.884C65.4775 63.5887 65.3562 63.2406 65.3562 62.8398C65.3562 62.5445 65.4617 62.2598 65.6727 61.9855ZM69.2955 72.9648C69.074 73.2496 68.7787 73.4658 68.4096 73.6135V70.0539C69.2217 70.518 69.6277 71.1297 69.6277 71.8891C69.6277 72.3215 69.517 72.6801 69.2955 72.9648ZM51.8 105.3C51.8 102.815 53.8147 100.8 56.3 100.8H110.3C112.785 100.8 114.8 102.815 114.8 105.3C114.8 107.785 112.785 109.8 110.3 109.8H56.3C53.8147 109.8 51.8 107.785 51.8 105.3ZM56.3 104.4C55.8029 104.4 55.4 104.803 55.4 105.3C55.4 105.797 55.8029 106.2 56.3 106.2H110.3C110.797 106.2 111.2 105.797 111.2 105.3C111.2 104.803 110.797 104.4 110.3 104.4H56.3ZM107.6 53.9998C107.6 42.0705 117.271 32.3998 129.2 32.3998C141.129 32.3998 150.8 42.0705 150.8 53.9998C150.8 65.9292 141.129 75.5998 129.2 75.5998C117.271 75.5998 107.6 65.9292 107.6 53.9998ZM124.7 42.2998C124.7 39.8145 126.715 37.7998 129.2 37.7998C131.685 37.7998 133.7 39.8145 133.7 42.2998V53.0998C133.7 55.5851 131.685 57.5998 129.2 57.5998C126.715 57.5998 124.7 55.5851 124.7 53.0998V42.2998ZM129.2 41.3998C128.703 41.3998 128.3 41.8027 128.3 42.2998V53.0998C128.3 53.5969 128.703 53.9998 129.2 53.9998C129.697 53.9998 130.1 53.5969 130.1 53.0998V42.2998C130.1 41.8027 129.697 41.3998 129.2 41.3998ZM129.2 70.1998C126.715 70.1998 124.7 68.1851 124.7 65.6998C124.7 63.2145 126.715 61.1998 129.2 61.1998C131.685 61.1998 133.7 63.2145 133.7 65.6998C133.7 68.1851 131.685 70.1998 129.2 70.1998ZM128.3 65.6998C128.3 66.1969 128.703 66.5998 129.2 66.5998C129.697 66.5998 130.1 66.1969 130.1 65.6998C130.1 65.2027 129.697 64.7998 129.2 64.7998C128.703 64.7998 128.3 65.2027 128.3 65.6998Z" fill="#5F489D"/>
</svg>
