<svg width="44" height="44" viewBox="0 0 44 44" fill="none" xmlns="http://www.w3.org/2000/svg">
<rect width="44" height="44" rx="22" fill="#F5F5F5"/>
<path d="M23.4995 15.2969C22.8661 15.1037 22.1944 15 21.4995 15C17.8557 15 14.8494 17.8522 14.6579 21.491C14.5844 22.887 14.6689 24.373 13.4216 25.3084C12.8412 25.7438 12.4995 26.427 12.4995 27.1527C12.4995 28.1508 13.2813 29 14.2995 29H28.6995C29.7177 29 30.4995 28.1508 30.4995 27.1527C30.4995 26.427 30.1579 25.7438 29.5774 25.3084C29.5508 25.2885 29.5249 25.2683 29.4995 25.2479" stroke="#5F489D" stroke-width="1.8" stroke-linecap="round" stroke-linejoin="round"/>
<path d="M19.9995 13.125C19.9995 13.9534 20.6711 15 21.4995 15C22.3279 15 22.9995 13.9534 22.9995 13.125C22.9995 12.2966 22.3279 12 21.4995 12C20.6711 12 19.9995 12.2966 19.9995 13.125Z" stroke="#5F489D" stroke-width="1.8"/>
<path d="M24.4995 29C24.4995 30.6569 23.1564 32 21.4995 32C19.8427 32 18.4995 30.6569 18.4995 29" stroke="#5F489D" stroke-width="1.8" stroke-linecap="round" stroke-linejoin="round"/>
<path d="M25.5495 17.05L30.4495 21.95L25.5495 17.05ZM31.4995 19.5C31.4995 17.567 29.9325 16 27.9995 16C26.0665 16 24.4995 17.567 24.4995 19.5C24.4995 21.433 26.0665 23 27.9995 23C29.9325 23 31.4995 21.433 31.4995 19.5Z" fill="#5F489D"/>
<path d="M25.5495 17.05L30.4495 21.95M31.4995 19.5C31.4995 17.567 29.9325 16 27.9995 16C26.0665 16 24.4995 17.567 24.4995 19.5C24.4995 21.433 26.0665 23 27.9995 23C29.9325 23 31.4995 21.433 31.4995 19.5Z" stroke="#5F489D" stroke-width="1.8" stroke-linecap="round"/>
</svg>
