<svg width="20" height="20" viewBox="0 0 20 20" fill="none" xmlns="http://www.w3.org/2000/svg">
<path d="M11.2499 4.41407C10.7221 4.25313 10.1623 4.16669 9.58325 4.16669C6.54673 4.16669 4.04149 6.54354 3.88189 9.57585C3.82066 10.7392 3.89105 11.9775 2.85169 12.757C2.36795 13.1199 2.08325 13.6892 2.08325 14.2939C2.08325 15.1257 2.73475 15.8334 3.58325 15.8334H15.5833C16.4318 15.8334 17.0833 15.1257 17.0833 14.2939C17.0833 13.6892 16.7986 13.1199 16.3148 12.757C16.2927 12.7404 16.2711 12.7236 16.2499 12.7066" stroke="#5F489D" stroke-width="1.5" stroke-linecap="round" stroke-linejoin="round"/>
<path d="M8.33325 2.60419C8.33325 3.29455 8.89292 4.16669 9.58325 4.16669C10.2736 4.16669 10.8333 3.29455 10.8333 2.60419C10.8333 1.91383 10.2736 1.66669 9.58325 1.66669C8.89292 1.66669 8.33325 1.91383 8.33325 2.60419Z" stroke="#5F489D" stroke-width="1.5"/>
<path d="M12.0833 15.8333C12.0833 17.2141 10.964 18.3333 9.58325 18.3333C8.20254 18.3333 7.08325 17.2141 7.08325 15.8333" stroke="#5F489D" stroke-width="1.5" stroke-linecap="round" stroke-linejoin="round"/>
<path d="M12.9583 5.875L17.0416 9.95833L12.9583 5.875ZM17.9166 7.91667C17.9166 6.30583 16.6108 5 14.9999 5C13.3891 5 12.0833 6.30583 12.0833 7.91667C12.0833 9.5275 13.3891 10.8333 14.9999 10.8333C16.6108 10.8333 17.9166 9.5275 17.9166 7.91667Z" fill="#5F489D"/>
<path d="M12.9583 5.875L17.0416 9.95833M17.9166 7.91667C17.9166 6.30583 16.6108 5 14.9999 5C13.3891 5 12.0833 6.30583 12.0833 7.91667C12.0833 9.5275 13.3891 10.8333 14.9999 10.8333C16.6108 10.8333 17.9166 9.5275 17.9166 7.91667Z" stroke="#5F489D" stroke-width="1.5" stroke-linecap="round"/>
</svg>
