<svg width="25" height="25" viewBox="0 0 25 25" fill="none" xmlns="http://www.w3.org/2000/svg">
<path d="M5.87677 10.7955V18.765C5.87677 20.0881 5.87677 20.7497 6.32565 21.3116C6.77452 21.8736 7.31102 21.9723 8.38401 22.1696C9.37591 22.3521 10.6326 22.5 12.1001 22.5C13.5676 22.5 14.8243 22.3521 15.8162 22.1696C16.8892 21.9723 17.4257 21.8736 17.8746 21.3116C18.3234 20.7497 18.3234 20.0881 18.3234 18.765V10.7955C18.3234 10.1117 18.3234 9.76982 18.4548 9.46928C18.5862 9.16875 18.833 8.94624 19.3265 8.50123L19.5117 8.33416C20.568 7.3817 21.0961 6.90547 21.1001 6.21612C21.104 5.52677 20.6356 5.09391 19.6988 4.22818C19.557 4.09713 19.4165 3.97455 19.2809 3.86582C18.8095 3.48797 18.1432 3.07442 17.6333 2.77565C17.1561 2.49609 16.5955 2.43167 16.0656 2.57103L15.5756 2.69993C15.1875 2.802 14.8494 3.0526 14.6275 3.40278C13.4252 5.30015 10.775 5.30015 9.57266 3.40278C9.35075 3.0526 9.01274 2.802 8.62464 2.69993L8.13455 2.57103C7.60468 2.43167 7.0441 2.49609 6.56693 2.77565C6.05699 3.07442 5.39072 3.48797 4.91933 3.86582C4.78368 3.97455 4.6432 4.09713 4.50139 4.22818C3.56456 5.09391 3.09615 5.52677 3.10012 6.21612C3.1041 6.90547 3.63222 7.3817 4.68845 8.33416L4.87373 8.50123C5.36724 8.94624 5.61399 9.16875 5.74538 9.46928C5.87677 9.76982 5.87677 10.1117 5.87677 10.7955Z" stroke="#5F489D" stroke-width="1.5" stroke-linecap="round"/>
</svg>
