<svg width="14" height="14" viewBox="0 0 14 14" fill="none" xmlns="http://www.w3.org/2000/svg">
<path d="M3.5 5.25V9.73239C3.5 10.7889 3.5 11.3171 3.84171 11.6454C4.60827 12.3817 9.24922 12.5186 10.1583 11.6454C10.5 11.3171 10.5 10.7889 10.5 9.73239V5.25" stroke="white" stroke-width="0.875" stroke-linecap="round"/>
<path d="M3.3486 7L1.77504 5.47701C1.36935 5.08435 1.1665 4.88802 1.1665 4.64405C1.1665 4.40009 1.36935 4.20376 1.77504 3.8111L2.94228 2.68137C3.14452 2.48563 3.24564 2.38775 3.36618 2.31565C3.48673 2.24354 3.6224 2.19977 3.89374 2.11223L4.85382 1.80248C4.9942 1.75719 5.06439 1.73455 5.11212 1.76177C5.15985 1.789 5.17492 1.86743 5.20506 2.02427C5.36276 2.84482 6.10635 3.46608 6.99984 3.46608C7.89333 3.46608 8.6369 2.84482 8.79464 2.02427C8.82474 1.86743 8.83985 1.789 8.88756 1.76177C8.93528 1.73455 9.00545 1.75719 9.14586 1.80248L10.1059 2.11223C10.3773 2.19977 10.513 2.24354 10.6335 2.31565C10.7541 2.38775 10.8551 2.48563 11.0574 2.68137L12.2246 3.8111C12.6303 4.20376 12.8332 4.40009 12.8332 4.64405C12.8332 4.88802 12.6303 5.08435 12.2246 5.47701L10.6511 7" stroke="white" stroke-width="0.875" stroke-linecap="round" stroke-linejoin="round"/>
</svg>
