<svg width="14" height="14" viewBox="0 0 14 14" fill="none" xmlns="http://www.w3.org/2000/svg">
<path d="M12.6051 7.91075L12.7388 6.49019C12.8438 5.3745 12.8963 4.81665 12.7054 4.58605C12.6022 4.4613 12.4618 4.38487 12.3117 4.37169C12.0342 4.34732 11.6857 4.74403 10.9887 5.53746C10.6283 5.94779 10.4481 6.15296 10.247 6.18473C10.1356 6.20233 10.0221 6.18424 9.91927 6.13247C9.73362 6.03904 9.60985 5.78541 9.3623 5.27814L8.05746 2.60434C7.58968 1.64578 7.35579 1.1665 6.99984 1.1665C6.64389 1.1665 6.41 1.64578 5.94222 2.60434L4.63738 5.27814C4.38983 5.78541 4.26605 6.03904 4.0804 6.13247C3.97754 6.18424 3.86404 6.20233 3.75264 6.18473C3.55159 6.15296 3.37137 5.94779 3.01093 5.53746C2.31397 4.74403 1.96549 4.34732 1.688 4.37169C1.53789 4.38487 1.39749 4.4613 1.29425 4.58605C1.10339 4.81665 1.15589 5.37449 1.26089 6.49019L1.39459 7.91074C1.61488 10.2514 1.72503 11.4218 2.41489 12.1275C3.10475 12.8332 4.13868 12.8332 6.20655 12.8332H7.79313C9.86099 12.8332 10.8949 12.8332 11.5848 12.1275C12.2746 11.4218 12.3848 10.2514 12.6051 7.91075Z" stroke="white" stroke-width="0.875"/>
<path d="M5.25 10.5H8.75" stroke="white" stroke-width="0.875" stroke-linecap="round"/>
</svg>
