<svg width="14" height="14" viewBox="0 0 14 14" fill="none" xmlns="http://www.w3.org/2000/svg">
<path d="M2.07396 8.31685C1.65485 6.36103 1.4453 5.38312 1.97062 4.73331C2.49594 4.0835 3.49605 4.0835 5.49627 4.0835H8.50402C10.5042 4.0835 11.5043 4.0835 12.0297 4.73331C12.555 5.38312 12.3454 6.36103 11.9263 8.31685L11.6763 9.48351C11.3923 10.8092 11.2502 11.472 10.7689 11.8611C10.2876 12.2502 9.60977 12.2502 8.25402 12.2502H5.74626C4.39052 12.2502 3.71264 12.2502 3.23135 11.8611C2.75006 11.472 2.60802 10.8092 2.32396 9.48351L2.07396 8.31685Z" stroke="white" stroke-width="0.875"/>
<path d="M4.6665 7H9.33317" stroke="white" stroke-width="0.875" stroke-linecap="round" stroke-linejoin="round"/>
<path d="M5.8335 8.75H8.16683" stroke="white" stroke-width="0.875" stroke-linecap="round" stroke-linejoin="round"/>
<path d="M10.5 5.25L8.75 1.75" stroke="white" stroke-width="0.875" stroke-linecap="round" stroke-linejoin="round"/>
<path d="M3.5 5.25L5.25 1.75" stroke="white" stroke-width="0.875" stroke-linecap="round" stroke-linejoin="round"/>
</svg>
