<svg width="600" height="600" viewBox="0 0 600 600" fill="none" xmlns="http://www.w3.org/2000/svg">
<g clip-path="url(#clip0_3940_6550)">
<mask id="mask0_3940_6550" style="mask-type:luminance" maskUnits="userSpaceOnUse" x="0" y="0" width="600" height="600">
<path d="M600 0H0V600H600V0Z" fill="white"/>
</mask>
<g mask="url(#mask0_3940_6550)">
<mask id="mask1_3940_6550" style="mask-type:luminance" maskUnits="userSpaceOnUse" x="0" y="0" width="600" height="600">
<path d="M600 0H0V600H600V0Z" fill="white"/>
</mask>
<g mask="url(#mask1_3940_6550)">
<path d="M197.988 243.766C196.597 235.334 205.041 228.686 212.891 232.063C252.578 249.137 372.453 302.375 389.381 329.554C409.715 362.203 400.178 399.491 413.327 419.399C453.589 480.363 399.28 527.107 343.351 509.956C324.013 504.026 307.408 495.433 292.148 484.478C231.996 441.293 269.131 326.709 269.131 326.709C269.131 326.709 211.414 280.761 202.137 257.854C199.904 252.341 198.633 247.674 197.988 243.766Z" fill="#5F489D"/>
<path d="M284.074 315.324C284.074 315.324 218.458 293.687 207.2 296.687C198.767 298.935 189.223 319.283 183.669 332.975C180.506 340.775 187.083 349.01 195.395 347.687C201.057 346.788 207.806 344.121 215.028 337.956C223.434 330.781 233.062 334.207 243.79 338.75C265.246 347.836 275.973 352.379 275.973 352.379L284.074 315.324Z" fill="#5F489D"/>
<path d="M263.387 330.247C263.387 330.247 201.913 342.187 195.172 350.936C189.08 358.842 189.765 378.721 191.053 392.048C191.891 400.708 202.128 404.92 208.749 399.275C212.941 395.701 217.19 389.97 220.441 380.805C225.183 367.438 272.847 361.58 272.847 361.58L263.387 330.247Z" fill="#5F489D"/>
<path d="M244.118 343.949C229.809 364.35 209.988 412.772 200.873 435.971C197.812 443.761 204.392 451.898 212.657 450.572C216.826 449.903 221.047 448.144 224.36 444.386C234.102 433.329 274.194 365.542 274.194 365.542L244.118 343.949Z" fill="#5F489D"/>
<path d="M411.735 421.398C423.967 437.017 465.079 497.069 465.079 497.069L373.081 555.048C373.081 555.048 359.866 537.698 345.551 507.741C303.931 420.643 397.279 402.942 411.735 421.398Z" fill="#5F489D"/>
<path d="M472.827 498.915L369.746 564.716L346.413 528.163L449.492 462.362L472.827 498.915Z" fill="#00C1F3"/>
<path d="M373.781 195.164L374 404.654C374.014 418.418 363.757 429.589 351.089 429.605L249.181 429.73C236.513 429.746 226.233 418.6 226.219 404.834L226 195.346C225.986 181.581 236.243 170.411 248.91 170.395L350.818 170.27C363.486 170.254 373.766 181.399 373.781 195.164Z" fill="#F6FFFF"/>
<path d="M373.781 195.164L374 404.654C374.014 418.418 363.757 429.589 351.089 429.605L249.181 429.73C236.513 429.746 226.233 418.6 226.219 404.834L226 195.346C225.986 181.581 236.243 170.411 248.91 170.395L350.818 170.27C363.486 170.254 373.766 181.399 373.781 195.164Z" stroke="#5F489D" stroke-width="10" stroke-miterlimit="10"/>
<path d="M333.783 172.615C333.896 176.074 331.41 178.979 328.226 179.107H271.768C268.585 178.979 266.099 176.074 266.212 172.615" stroke="#5F489D" stroke-width="10" stroke-linecap="round" stroke-linejoin="round"/>
<path d="M392.856 425.912C392.856 425.912 377.574 370.671 362.588 359.959C340.195 343.949 322.568 368.856 327.504 383.057C330.21 390.837 335.877 410.886 332.896 427.089C329.01 448.217 338.288 471.122 343.816 475.993L392.856 425.912Z" fill="#5F489D"/>
<path d="M362.737 359.959C347.363 346.445 318.297 335.03 301.973 329.317C294.871 326.832 287.442 332.174 287.602 339.696C287.748 346.563 289.944 354.738 297.576 361.464C311.671 373.884 323.476 378.238 327.653 383.057C340.112 397.432 378.037 383.916 362.737 359.959Z" fill="#5F489D"/>
<mask id="mask2_3940_6550" style="mask-type:luminance" maskUnits="userSpaceOnUse" x="0" y="0" width="600" height="600">
<path d="M0 0H600V600H0V0Z" fill="white"/>
</mask>
<g mask="url(#mask2_3940_6550)">
<path d="M464.596 309.865H278.146L248.495 336.265V293.365V242.765C248.495 233.653 256.061 226.265 265.394 226.265H464.596C473.929 226.265 481.495 233.653 481.495 242.765V293.365C481.495 302.478 473.929 309.865 464.596 309.865Z" fill="#F6FFFF"/>
<path d="M464.596 309.865H278.146L248.495 336.265V293.365V242.765C248.495 233.653 256.061 226.265 265.394 226.265H464.596C473.929 226.265 481.495 233.653 481.495 242.765V293.365C481.495 302.478 473.929 309.865 464.596 309.865Z" stroke="#00C1F3" stroke-width="10" stroke-linecap="round" stroke-linejoin="round"/>
<path d="M289.495 263.266L279.495 273.266" stroke="#5F489D" stroke-width="10" stroke-linecap="round" stroke-linejoin="round"/>
<path d="M289.495 273.266L279.495 263.266" stroke="#5F489D" stroke-width="10" stroke-linecap="round" stroke-linejoin="round"/>
<path d="M322.495 263.266L312.495 273.266" stroke="#5F489D" stroke-width="10" stroke-linecap="round" stroke-linejoin="round"/>
<path d="M322.495 273.266L312.495 263.266" stroke="#5F489D" stroke-width="10" stroke-linecap="round" stroke-linejoin="round"/>
<path d="M355.495 263.266L345.495 273.266" stroke="#5F489D" stroke-width="10" stroke-linecap="round" stroke-linejoin="round"/>
<path d="M355.495 273.266L345.495 263.266" stroke="#5F489D" stroke-width="10" stroke-linecap="round" stroke-linejoin="round"/>
<path d="M388.495 263.266L378.495 273.266" stroke="#5F489D" stroke-width="10" stroke-linecap="round" stroke-linejoin="round"/>
<path d="M388.495 273.266L378.495 263.266" stroke="#5F489D" stroke-width="10" stroke-linecap="round" stroke-linejoin="round"/>
<path d="M421.495 263.266L411.495 273.266" stroke="#5F489D" stroke-width="10" stroke-linecap="round" stroke-linejoin="round"/>
<path d="M421.495 273.266L411.495 263.266" stroke="#5F489D" stroke-width="10" stroke-linecap="round" stroke-linejoin="round"/>
<path d="M454.495 263.266L444.495 273.266" stroke="#5F489D" stroke-width="10" stroke-linecap="round" stroke-linejoin="round"/>
<path d="M454.495 273.266L444.495 263.266" stroke="#5F489D" stroke-width="10" stroke-linecap="round" stroke-linejoin="round"/>
</g>
</g>
</g>
</g>
<defs>
<clipPath id="clip0_3940_6550">
<rect width="600" height="600" fill="white"/>
</clipPath>
</defs>
</svg>
