<svg width="20" height="20" viewBox="0 0 20 20" fill="none" xmlns="http://www.w3.org/2000/svg">
<path d="M15 6.6665L15.7906 6.93003C16.6156 7.20504 17.0281 7.34254 17.2641 7.6699C17.5 7.99726 17.5 8.43208 17.5 9.30174V14.024C17.5 15.0997 17.5 15.6376 17.2169 15.9831C17.1207 16.1005 17.004 16.1994 16.8725 16.2749C16.4851 16.4974 15.9546 16.4089 14.8934 16.2321C13.8464 16.0576 13.3229 15.9703 12.804 16.0137C12.6219 16.029 12.441 16.0562 12.2625 16.0952C11.7538 16.2063 11.2749 16.4457 10.3172 16.9246C9.06742 17.5495 8.44253 17.8619 7.77736 17.9582C7.57702 17.9872 7.37483 18.0016 7.1724 18.0012C6.50029 17.9999 5.84322 17.7809 4.52907 17.3429L4.20943 17.2363C3.38441 16.9613 2.97189 16.8238 2.73595 16.4964C2.5 16.1691 2.5 15.7343 2.5 14.8646V10.7565C2.5 9.3741 2.5 8.68289 2.90701 8.31115C2.97823 8.2461 3.05674 8.18952 3.14097 8.14252C3.62235 7.87395 4.27808 8.09253 5.58955 8.52969" stroke="#595D62" stroke-width="1.25"/>
<path d="M5 6.41676C5 3.79327 7.23858 1.6665 10 1.6665C12.7614 1.6665 15 3.79327 15 6.41676C15 9.01969 13.4042 12.0571 10.9143 13.1433C10.3339 13.3965 9.66609 13.3965 9.08567 13.1433C6.59583 12.0571 5 9.01969 5 6.41676Z" stroke="#595D62" stroke-width="1.25"/>
<circle cx="10" cy="6.66667" r="1.66667" stroke="#595D62" stroke-width="1.25"/>
</svg>
