<svg width="20" height="20" viewBox="0 0 20 20" fill="none" xmlns="http://www.w3.org/2000/svg">
<path d="M1.6665 10.0001C1.6665 6.07171 1.6665 4.10752 2.88689 2.88714C4.10728 1.66675 6.07147 1.66675 9.99984 1.66675C13.9282 1.66675 15.8924 1.66675 17.1128 2.88714C18.3332 4.10752 18.3332 6.07171 18.3332 10.0001C18.3332 13.9285 18.3332 15.8926 17.1128 17.113C15.8924 18.3334 13.9282 18.3334 9.99984 18.3334C6.07147 18.3334 4.10728 18.3334 2.88689 17.113C1.6665 15.8926 1.6665 13.9285 1.6665 10.0001Z" stroke="#595D62" stroke-width="1.25"/>
<path d="M8.4375 7.39575C8.4375 6.53281 9.13706 5.83325 10 5.83325C10.8629 5.83325 11.5625 6.53281 11.5625 7.39575C11.5625 7.96862 11.2542 8.46949 10.7945 8.74148C10.3984 8.97583 10 9.33135 10 9.79159V10.8333" stroke="#595D62" stroke-width="1.25" stroke-linecap="round"/>
<circle cx="9.99984" cy="13.3333" r="0.833333" fill="#595D62"/>
</svg>
