<svg width="34" height="34" viewBox="0 0 34 34" fill="none" xmlns="http://www.w3.org/2000/svg">
<path d="M0 17C0 12.3459 0 10.0188 0.636838 8.14273C1.83602 4.61004 4.61004 1.83602 8.14273 0.636838C10.0188 0 12.3459 0 17 0C21.6541 0 23.9812 0 25.8573 0.636838C29.39 1.83602 32.164 4.61004 33.3632 8.14273C34 10.0188 34 12.3459 34 17C34 21.6541 34 23.9812 33.3632 25.8573C32.164 29.39 29.39 32.164 25.8573 33.3632C23.9812 34 21.6541 34 17 34C12.3459 34 10.0188 34 8.14273 33.3632C4.61004 32.164 1.83602 29.39 0.636838 25.8573C0 23.9812 0 21.6541 0 17Z" fill="#F5F5F5"/>
<path d="M16.6186 22.8333H17.0904C18.7136 22.8333 19.5253 22.8333 20.053 22.3046C20.5807 21.7759 20.6347 20.9086 20.7426 19.174L20.8982 16.6747C20.9568 15.7336 20.9861 15.263 20.7214 14.9648C20.4566 14.6666 20.0096 14.6666 19.1155 14.6666H14.5935C13.6994 14.6666 13.2523 14.6666 12.9876 14.9648C12.7229 15.263 12.7522 15.7336 12.8108 16.6747L12.9663 19.174C13.0743 20.9086 13.1283 21.7759 13.656 22.3046C14.1837 22.8333 14.9953 22.8333 16.6186 22.8333Z" fill="#DB1D1D"/>
<path d="M11.6045 13.5972C11.6045 13.3287 11.806 13.1111 12.0545 13.1111L13.6086 13.1108C13.9174 13.1024 14.1898 12.8903 14.2949 12.5765C14.2977 12.5682 14.3008 12.5581 14.3122 12.5211L14.3792 12.3041C14.4202 12.171 14.4559 12.0551 14.5058 11.9514C14.7032 11.542 15.0684 11.2577 15.4903 11.1849C15.5972 11.1665 15.7103 11.1665 15.8401 11.1666H17.869C17.9988 11.1665 18.1119 11.1665 18.2187 11.1849C18.6407 11.2577 19.0059 11.542 19.2032 11.9514C19.2532 12.0551 19.2889 12.171 19.3299 12.3041L19.3968 12.5211C19.4082 12.5581 19.4114 12.5682 19.4142 12.5765C19.5193 12.8903 19.8457 13.1026 20.1545 13.1111H21.6545C21.903 13.1111 22.1045 13.3287 22.1045 13.5972C22.1045 13.8657 21.903 14.0833 21.6545 14.0833H12.0545C11.806 14.0833 11.6045 13.8657 11.6045 13.5972Z" fill="#DB1D1D"/>
</svg>
