<svg width="25" height="25" viewBox="0 0 25 25" fill="none" xmlns="http://www.w3.org/2000/svg">
<circle cx="5.90015" cy="5.5" r="3" stroke="#5F489D" stroke-width="1.5"/>
<circle cx="19.9001" cy="19.5" r="3" stroke="#5F489D" stroke-width="1.5"/>
<path d="M11.9001 4.75C11.4859 4.75 11.1501 5.08579 11.1501 5.5C11.1501 5.91421 11.4859 6.25 11.9001 6.25V4.75ZM13.9001 19.5L14.4304 20.0303C14.7233 19.7374 14.7233 19.2626 14.4304 18.9697L13.9001 19.5ZM18.1058 9.18732L18.5084 9.82007L18.1058 9.18732ZM7.69449 15.8127L8.09715 16.4454H8.09715L7.69449 15.8127ZM12.9304 17.4697C12.6376 17.1768 12.1627 17.1768 11.8698 17.4697C11.5769 17.7626 11.5769 18.2374 11.8698 18.5303L12.9304 17.4697ZM11.8698 20.4697C11.5769 20.7626 11.5769 21.2374 11.8698 21.5303C12.1627 21.8232 12.6376 21.8232 12.9304 21.5303L11.8698 20.4697ZM17.032 4.75H11.9001V6.25H17.032V4.75ZM13.9001 18.75H8.76824V20.25H13.9001V18.75ZM17.7031 8.55458L7.29183 15.1799L8.09715 16.4454L18.5084 9.82007L17.7031 8.55458ZM14.4304 18.9697L12.9304 17.4697L11.8698 18.5303L13.3698 20.0303L14.4304 18.9697ZM13.3698 18.9697L11.8698 20.4697L12.9304 21.5303L14.4304 20.0303L13.3698 18.9697ZM8.76824 18.75C7.51768 18.75 7.04209 17.1168 8.09715 16.4454L7.29183 15.1799C4.97074 16.657 6.017 20.25 8.76824 20.25V18.75ZM17.032 6.25C18.2826 6.25 18.7581 7.88318 17.7031 8.55458L18.5084 9.82007C20.8295 8.343 19.7832 4.75 17.032 4.75V6.25Z" fill="#5F489D"/>
</svg>
