<svg width="32" height="454" viewBox="0 0 32 454" fill="none" xmlns="http://www.w3.org/2000/svg">
<rect width="32" height="454" rx="16" fill="url(#paint0_linear_3450_6567)"/>
<path d="M11 36.3333V35.5" stroke="white" stroke-width="1.5" stroke-linecap="round"/>
<path d="M21 36.3333V35.5" stroke="white" stroke-width="1.5" stroke-linecap="round"/>
<path d="M8.5 26.3334C8.5 23.1907 8.5 21.6194 9.47631 20.6431C10.4526 19.6667 12.024 19.6667 15.1667 19.6667H16.8333C19.976 19.6667 21.5474 19.6667 22.5237 20.6431C23.5 21.6194 23.5 23.1907 23.5 26.3334V28.8334C23.5 31.9761 23.5 33.5475 22.5237 34.5238C21.5474 35.5001 19.976 35.5001 16.8333 35.5001H15.1667C12.024 35.5001 10.4526 35.5001 9.47631 34.5238C8.5 33.5475 8.5 31.9761 8.5 28.8334V26.3334Z" stroke="white" stroke-width="1.5"/>
<path d="M8.5 25.5H23.5" stroke="white" stroke-width="1.5" stroke-linecap="round"/>
<path d="M18.5 30.5C18.5 31.8807 17.3807 33 16 33C14.6193 33 13.5 31.8807 13.5 30.5C13.5 29.1193 14.6193 28 16 28C17.3807 28 18.5 29.1193 18.5 30.5Z" stroke="white" stroke-width="1.5"/>
<path d="M11.4167 22.5833H13.9167" stroke="white" stroke-width="1.5" stroke-linecap="round"/>
<path d="M18.9167 22.5833C18.9167 23.0436 18.5436 23.4167 18.0833 23.4167C17.6231 23.4167 17.25 23.0436 17.25 22.5833C17.25 22.1231 17.6231 21.75 18.0833 21.75C18.5436 21.75 18.9167 22.1231 18.9167 22.5833Z" fill="white"/>
<path d="M21.4167 22.5833C21.4167 23.0436 21.0436 23.4167 20.5833 23.4167C20.1231 23.4167 19.75 23.0436 19.75 22.5833C19.75 22.1231 20.1231 21.75 20.5833 21.75C21.0436 21.75 21.4167 22.1231 21.4167 22.5833Z" fill="white"/>
<path d="M11 117.5V123.903C11 125.413 11 126.167 11.4882 126.636C12.5832 127.688 19.2132 127.884 20.5118 126.636C21 126.167 21 125.413 21 123.903V117.5" stroke="white" stroke-width="1.25" stroke-linecap="round"/>
<path d="M10.784 120L8.53609 117.824C7.95653 117.263 7.66675 116.983 7.66675 116.634C7.66675 116.286 7.95653 116.005 8.53609 115.444L10.2036 113.831C10.4925 113.551 10.6369 113.411 10.8091 113.308C10.9814 113.205 11.1752 113.143 11.5628 113.017L12.9343 112.575C13.1349 112.51 13.2352 112.478 13.3033 112.517C13.3715 112.556 13.3931 112.668 13.4361 112.892C13.6614 114.064 14.7237 114.952 16.0001 114.952C17.2765 114.952 18.3387 114.064 18.5641 112.892C18.6071 112.668 18.6287 112.556 18.6968 112.517C18.765 112.478 18.8652 112.51 19.0658 112.575L20.4373 113.017C20.825 113.143 21.0188 113.205 21.191 113.308C21.3632 113.411 21.5077 113.551 21.7966 113.831L23.4641 115.444C24.0437 116.005 24.3334 116.286 24.3334 116.634C24.3334 116.983 24.0437 117.263 23.4641 117.824L21.2162 120" stroke="white" stroke-width="1.25" stroke-linecap="round" stroke-linejoin="round"/>
<path d="M20.1667 218.667C21.0871 218.667 21.8333 217.92 21.8333 217C21.8333 216.079 21.0871 215.333 20.1667 215.333C19.2462 215.333 18.5 216.079 18.5 217C18.5 217.92 19.2462 218.667 20.1667 218.667Z" stroke="white" stroke-width="1.25"/>
<path d="M11.8334 218.667C12.7539 218.667 13.5001 217.92 13.5001 217C13.5001 216.079 12.7539 215.333 11.8334 215.333C10.9129 215.333 10.1667 216.079 10.1667 217C10.1667 217.92 10.9129 218.667 11.8334 218.667Z" stroke="white" stroke-width="1.25"/>
<path d="M10.1667 216.977C9.25281 216.931 8.68266 216.795 8.27694 216.39C7.87121 215.984 7.73526 215.414 7.68971 214.5M13.5001 217H18.5001M21.8334 216.977C22.7473 216.931 23.3175 216.795 23.7232 216.39C24.3334 215.78 24.3334 214.797 24.3334 212.833V211.167H20.4167C19.7963 211.167 19.4861 211.167 19.2351 211.085C18.7277 210.92 18.3298 210.522 18.165 210.015C18.0834 209.764 18.0834 209.454 18.0834 208.833C18.0834 207.903 18.0834 207.437 17.9611 207.061C17.7137 206.3 17.1171 205.703 16.356 205.456C15.9794 205.333 15.5141 205.333 14.5834 205.333H7.66675" stroke="white" stroke-width="1.25" stroke-linecap="round" stroke-linejoin="round"/>
<path d="M7.66675 208.667H12.6667" stroke="white" stroke-width="1.25" stroke-linecap="round" stroke-linejoin="round"/>
<path d="M7.66675 211.167H11.0001" stroke="white" stroke-width="1.25" stroke-linecap="round" stroke-linejoin="round"/>
<path d="M18.0833 207H19.6009C20.8138 207 21.4201 207 21.9136 207.295C22.4071 207.59 22.6946 208.123 23.2696 209.191L24.3333 211.167" stroke="white" stroke-width="1.25" stroke-linecap="round" stroke-linejoin="round"/>
<g clip-path="url(#clip0_3450_6567)">
<circle cx="10.1667" cy="298.167" r="2.5" stroke="white" stroke-width="1.5"/>
<circle cx="21.8333" cy="309.833" r="2.5" stroke="white" stroke-width="1.5"/>
<path d="M15.1668 297.417C14.7526 297.417 14.4168 297.753 14.4168 298.167C14.4168 298.581 14.7526 298.917 15.1668 298.917V297.417ZM16.8334 309.833L17.3638 310.364C17.6567 310.071 17.6567 309.596 17.3638 309.303L16.8334 309.833ZM20.3381 301.24L20.7408 301.872L20.7408 301.872L20.3381 301.24ZM11.6621 306.761L12.0647 307.393L12.0647 307.393L11.6621 306.761ZM16.1138 308.053C15.8209 307.76 15.346 307.76 15.0531 308.053C14.7602 308.346 14.7602 308.821 15.0531 309.114L16.1138 308.053ZM15.0531 310.553C14.7602 310.846 14.7602 311.321 15.0531 311.614C15.346 311.907 15.8209 311.907 16.1138 311.614L15.0531 310.553ZM19.4433 297.417H15.1668V298.917H19.4433V297.417ZM16.8334 309.083H12.5569V310.583H16.8334V309.083ZM19.9355 300.607L11.2594 306.128L12.0647 307.393L20.7408 301.872L19.9355 300.607ZM17.3638 309.303L16.1138 308.053L15.0531 309.114L16.3031 310.364L17.3638 309.303ZM16.3031 309.303L15.0531 310.553L16.1138 311.614L17.3638 310.364L16.3031 309.303ZM12.5569 309.083C11.6398 309.083 11.291 307.886 12.0647 307.393L11.2594 306.128C9.21967 307.426 10.1391 310.583 12.5569 310.583V309.083ZM19.4433 298.917C20.3604 298.917 20.7092 300.114 19.9355 300.607L20.7408 301.872C22.7805 300.574 21.8611 297.417 19.4433 297.417V298.917Z" fill="white"/>
</g>
<g clip-path="url(#clip1_3450_6567)">
<path d="M13.9467 389.258C13.9467 388.379 14.7391 387.667 15.7167 387.667C16.6942 387.667 17.4867 388.379 17.4867 389.258C17.4867 389.671 17.3373 390.048 17.0772 390.331C16.5791 390.873 15.8347 391.418 15.8347 392.121V392.358M15.8347 392.358C16.4443 392.351 17.0563 392.521 17.5705 392.867L23.7643 397.043C24.8529 397.776 24.2755 399.333 22.9147 399.333H21.0001M15.8347 392.358C15.2301 392.365 14.6279 392.546 14.1259 392.899L8.21284 397.058C7.15277 397.804 7.73942 399.333 9.08553 399.333H11.0001" stroke="white" stroke-width="1.5" stroke-linecap="round"/>
<path d="M11 401C11 399.429 11 398.643 11.4882 398.155C11.9763 397.667 12.762 397.667 14.3333 397.667H17.6667C19.238 397.667 20.0237 397.667 20.5118 398.155C21 398.643 21 399.429 21 401C21 402.571 21 403.357 20.5118 403.845C20.0237 404.333 19.238 404.333 17.6667 404.333H14.3333C12.762 404.333 11.9763 404.333 11.4882 403.845C11 403.357 11 402.571 11 401Z" stroke="white" stroke-width="1.5"/>
</g>
<defs>
<linearGradient id="paint0_linear_3450_6567" x1="16.0003" y1="-6.18761e-05" x2="16.0004" y2="454" gradientUnits="userSpaceOnUse">
<stop stop-color="#5F489D"/>
<stop offset="1" stop-color="#D8CEF4"/>
</linearGradient>
<clipPath id="clip0_3450_6567">
<rect width="20" height="20" fill="white" transform="translate(6 294)"/>
</clipPath>
<clipPath id="clip1_3450_6567">
<rect width="20" height="20" fill="white" transform="translate(6 386)"/>
</clipPath>
</defs>
</svg>
