<svg width="181" height="181" viewBox="0 0 181 181" fill="none" xmlns="http://www.w3.org/2000/svg">
<ellipse opacity="0.1" cx="90.5" cy="175.1" rx="90" ry="5.4" fill="#2B2A7F"/>
<path fill-rule="evenodd" clip-rule="evenodd" d="M129.427 29.9517C130.978 27.8409 133.946 27.3869 136.057 28.9375C138.167 30.4881 138.621 33.4562 137.071 35.5669L131.295 43.4291C129.744 45.5398 126.776 45.9939 124.666 44.4433C122.555 42.8926 122.101 39.9245 123.651 37.8138L129.427 29.9517ZM133.925 31.8387C133.417 31.4652 132.702 31.5746 132.328 32.083L126.553 39.9452C126.179 40.4536 126.289 41.1685 126.797 41.542C127.305 41.9155 128.02 41.8061 128.394 41.2977L134.17 33.4355C134.543 32.9271 134.434 32.2122 133.925 31.8387ZM43.9082 76.536C43.9082 53.4806 62.5983 34.7906 85.6536 34.7906C108.709 34.7906 127.399 53.4806 127.399 76.536C127.399 99.5914 108.709 118.281 85.6536 118.281C62.5983 118.281 43.9082 99.5914 43.9082 76.536ZM85.6536 31.1906C60.6101 31.1906 40.3082 51.4924 40.3082 76.536C40.3082 101.58 60.6101 121.881 85.6536 121.881C93.8864 121.881 101.607 119.687 108.262 115.852L114.148 121.738C113.979 124.239 114.851 126.797 116.763 128.709L134.925 146.871C138.439 150.385 144.138 150.385 147.652 146.871L151.568 142.955C155.083 139.44 155.083 133.742 151.568 130.227L133.407 112.065C131.495 110.153 128.936 109.281 126.434 109.45L121.41 104.426C127.419 96.734 130.999 87.0531 130.999 76.536C130.999 51.4924 110.697 31.1906 85.6536 31.1906ZM122.532 110.639L119.075 107.183C116.773 109.692 114.192 111.941 111.382 113.881L115.336 117.835C115.72 117.173 116.196 116.549 116.763 115.981L120.679 112.066C121.246 111.499 121.87 111.023 122.532 110.639ZM55.6768 76.5355C55.6768 59.98 69.0977 46.5591 85.6532 46.5591C102.209 46.5591 115.63 59.98 115.63 76.5355C115.63 93.091 102.209 106.512 85.6532 106.512C69.0977 106.512 55.6768 93.091 55.6768 76.5355ZM85.6532 42.9591C67.1094 42.9591 52.0768 57.9918 52.0768 76.5355C52.0768 95.0793 67.1094 110.112 85.6532 110.112C104.197 110.112 119.23 95.0793 119.23 76.5355C119.23 57.9918 104.197 42.9591 85.6532 42.9591ZM149.418 47.3856C148.621 44.8904 145.953 43.5132 143.458 44.3094L134.164 47.2751C131.669 48.0713 130.292 50.7394 131.088 53.2345C131.884 55.7296 134.552 57.1069 137.047 56.3107L146.341 53.345C148.837 52.5488 150.214 49.8807 149.418 47.3856ZM144.553 47.739C145.154 47.5472 145.796 47.879 145.988 48.4799C146.18 49.0809 145.848 49.7236 145.247 49.9154L135.953 52.8811C135.352 53.0729 134.709 52.7411 134.518 52.1401C134.326 51.5391 134.658 50.8965 135.259 50.7047L144.553 47.739ZM28.0301 103.325C25.5156 104.057 24.0712 106.69 24.8039 109.204C25.5366 111.719 28.169 113.163 30.6835 112.43L40.0496 109.701C42.5641 108.968 44.0085 106.336 43.2758 103.821C42.5431 101.307 39.9107 99.8626 37.3962 100.595L28.0301 103.325ZM28.2601 108.197C28.0836 107.591 28.4315 106.957 29.0372 106.781L38.4033 104.052C39.009 103.875 39.643 104.223 39.8195 104.829C39.996 105.434 39.6481 106.068 39.0425 106.245L29.6763 108.974C29.0707 109.151 28.4366 108.803 28.2601 108.197ZM37.552 128.083C35.4812 126.479 35.1025 123.5 36.7061 121.43L42.6792 113.716C44.2828 111.646 47.2614 111.267 49.3322 112.87C51.403 114.474 51.7817 117.453 50.1781 119.523L44.205 127.237C42.6014 129.307 39.6228 129.686 37.552 128.083ZM39.5524 123.634C39.1662 124.133 39.2574 124.85 39.7562 125.236C40.255 125.623 40.9724 125.531 41.3587 125.033L47.3318 117.319C47.718 116.82 47.6268 116.103 47.128 115.717C46.6293 115.33 45.9118 115.422 45.5255 115.92L39.5524 123.634Z" fill="#2B2A7F"/>
</svg>
