<svg width="20" height="20" viewBox="0 0 20 20" fill="none" xmlns="http://www.w3.org/2000/svg">
<path d="M14.9998 5.08472C16.0833 5.19129 16.8125 5.43213 17.3569 5.97645C18.3332 6.95276 18.3332 8.52411 18.3332 11.6668C18.3332 14.8095 18.3332 16.3809 17.3569 17.3572C16.3805 18.3335 14.8092 18.3335 11.6665 18.3335H8.33317C5.19047 18.3335 3.61913 18.3335 2.64281 17.3572C1.6665 16.3809 1.6665 14.8095 1.6665 11.6668C1.6665 8.52411 1.6665 6.95276 2.64281 5.97645C3.18713 5.43213 3.91641 5.19129 4.99984 5.08472" stroke="#595D62" stroke-width="1.25"/>
<path d="M8.3335 5H11.6668" stroke="#595D62" stroke-width="1.25" stroke-linecap="round"/>
<path d="M9.1665 7.5H10.8332" stroke="#595D62" stroke-width="1.25" stroke-linecap="round"/>
<path d="M6.79908 9.83265L6.19939 9.3329C5.6096 8.84141 5.3147 8.59567 5.15735 8.25972C5 7.92376 5 7.5399 5 6.77216V5.83341C5 3.86923 5 2.88714 5.61019 2.27694C6.22039 1.66675 7.20248 1.66675 9.16667 1.66675H10.8333C12.7975 1.66675 13.7796 1.66675 14.3898 2.27694C15 2.88714 15 3.86923 15 5.83341V6.77216C15 7.5399 15 7.92376 14.8426 8.25972C14.6853 8.59567 14.3904 8.84141 13.8006 9.3329L13.2009 9.83265C11.6704 11.1081 10.9051 11.7458 10 11.7458C9.09488 11.7458 8.32961 11.1081 6.79908 9.83265Z" stroke="#595D62" stroke-width="1.25" stroke-linecap="round"/>
<path d="M5 8.33325L6.79908 9.83249C8.32961 11.1079 9.09488 11.7456 10 11.7456C10.9051 11.7456 11.6704 11.1079 13.2009 9.83248L15 8.33325" stroke="#595D62" stroke-width="1.25" stroke-linecap="round"/>
</svg>
