<svg width="45" height="44" viewBox="0 0 45 44" fill="none" xmlns="http://www.w3.org/2000/svg">
<path d="M0.5 22C0.5 9.84974 10.3497 0 22.5 0C34.6503 0 44.5 9.84974 44.5 22C44.5 34.1503 34.6503 44 22.5 44C10.3497 44 0.5 34.1503 0.5 22Z" fill="#F5F5F5"/>
<path d="M29.3027 25.1275C29.0477 24.43 27.5027 24.3325 26.7827 22.735C26.7377 22.615 26.7452 22.5325 26.8652 22.4575C27.4202 22.09 27.8102 21.8875 28.0352 21.46C28.2002 21.1525 28.2227 20.7925 28.0952 20.4625C27.9227 20.005 27.4877 19.7125 26.9552 19.7125C26.7677 19.7125 26.6177 19.75 26.5427 19.765C26.5502 19.45 26.5427 19.12 26.5127 18.79C26.4152 17.6425 26.0102 17.035 25.5902 16.555C25.3427 16.2775 24.3602 15.25 22.5002 15.25C20.6402 15.25 19.6577 16.2775 19.4102 16.555C18.9902 17.035 18.5852 17.6425 18.4877 18.79C18.4652 19.12 18.4577 19.45 18.4577 19.765C18.3752 19.7425 18.2327 19.7125 18.0452 19.7125C17.5202 19.7125 17.0777 19.9975 16.9052 20.4625C16.7777 20.785 16.8002 21.1525 16.9652 21.46C17.1977 21.895 17.5802 22.09 18.1352 22.4575C18.2552 22.54 18.2627 22.615 18.2177 22.735C17.4902 24.3325 15.9527 24.43 15.6977 25.1275C15.5852 25.4275 15.6602 25.765 15.9377 26.05C16.3652 26.4925 17.1602 26.6275 17.3177 26.7325C17.4452 26.8375 17.4302 27.1525 17.7902 27.4075C18.0752 27.6025 18.3902 27.6175 18.7277 27.625C19.7102 27.6625 19.9277 27.8275 20.3027 28.06C20.7752 28.3525 21.4202 28.75 22.5002 28.75C23.5802 28.75 24.2252 28.3525 24.6977 28.06C25.0727 27.8275 25.2902 27.6625 26.2727 27.625C26.6102 27.61 26.9252 27.6025 27.2102 27.4075C27.5777 27.1525 27.5627 26.8375 27.6827 26.7325C27.8402 26.6275 28.6352 26.4925 29.0627 26.05C29.3402 25.765 29.4152 25.4275 29.3027 25.1275ZM28.5302 25.525C28.2527 25.8175 27.5852 25.9 27.2327 26.14C26.8727 26.455 26.9327 26.695 26.7902 26.7925C26.6927 26.86 26.5202 26.8675 26.2502 26.8825C25.2002 26.92 24.8177 27.115 24.3602 27.4C23.2877 28.06 22.6877 28 22.5002 28C22.3127 28 21.7127 28.06 20.6477 27.3925C20.1902 27.1075 19.8152 26.92 18.7577 26.875C18.4877 26.8675 18.3152 26.8525 18.2177 26.785C18.0752 26.6875 18.1277 26.4475 17.7752 26.1325C17.4152 25.8925 16.7552 25.81 16.4777 25.5175C16.4327 25.4725 16.3952 25.4125 16.3877 25.405C16.4402 25.33 16.6952 25.18 16.8827 25.075C17.4677 24.73 18.3677 24.22 18.9152 23.0125C19.1102 22.4875 18.9377 22.0675 18.5552 21.82C17.6927 21.2725 17.7077 21.25 17.6252 21.1C17.5956 21.0425 17.5783 20.9794 17.5744 20.9149C17.5705 20.8503 17.5801 20.7856 17.6027 20.725C17.6927 20.485 17.9402 20.4625 18.0377 20.4625C18.1802 20.4625 18.1727 20.47 19.2152 20.74C19.2002 19.69 19.1852 19.3525 19.2302 18.8575C19.3127 17.875 19.6577 17.41 19.9652 17.0575C20.1752 16.8325 20.9927 15.985 22.5002 16C24.0077 15.985 24.8252 16.8325 25.0277 17.0575C25.3352 17.41 25.6802 17.875 25.7627 18.8575C25.8077 19.3525 25.7927 19.69 25.7777 20.74C26.8277 20.47 26.8127 20.4625 26.9552 20.4625C27.0602 20.4625 27.3002 20.485 27.3902 20.725C27.4427 20.8525 27.4352 20.9875 27.3677 21.1C27.2852 21.25 27.3002 21.265 26.4452 21.8275C26.0627 22.075 25.8902 22.495 26.0852 23.02C26.6327 24.2275 27.5327 24.7375 28.1177 25.0825C28.3052 25.195 28.5602 25.3375 28.6127 25.4125C28.6127 25.42 28.5677 25.48 28.5302 25.525Z" fill="#595D62"/>
</svg>
