<svg width="49" height="48" viewBox="0 0 49 48" fill="none" xmlns="http://www.w3.org/2000/svg">
<rect x="0.5" width="48" height="48" rx="24" fill="#F5F5F5"/>
<path d="M21.6532 17.4084C22.9198 15.1361 23.5531 14 24.5 14C25.4469 14 26.0802 15.1361 27.3468 17.4084L27.6745 17.9962C28.0345 18.6419 28.2144 18.9648 28.4951 19.1778C28.7757 19.3908 29.1251 19.4699 29.8241 19.628L30.4605 19.772C32.9201 20.3286 34.15 20.6068 34.4426 21.5477C34.7352 22.4886 33.8968 23.4691 32.2199 25.4299L31.7861 25.9372C31.3096 26.4944 31.0713 26.773 30.9641 27.1177C30.857 27.4624 30.893 27.8341 30.965 28.5776L31.0306 29.2544C31.2841 31.8706 31.4109 33.1787 30.6449 33.7602C29.8788 34.3417 28.7273 33.8115 26.4243 32.7512L25.8285 32.4768C25.1741 32.1755 24.8469 32.0248 24.5 32.0248C24.1531 32.0248 23.8259 32.1755 23.1715 32.4768L22.5757 32.7512C20.2727 33.8115 19.1212 34.3417 18.3551 33.7602C17.5891 33.1787 17.7159 31.8706 17.9694 29.2544L18.035 28.5776C18.107 27.8341 18.143 27.4624 18.0359 27.1177C17.9287 26.773 17.6904 26.4944 17.2139 25.9372L16.7801 25.4299C15.1032 23.4691 14.2648 22.4886 14.5574 21.5477C14.85 20.6068 16.0799 20.3286 18.5395 19.772L19.1759 19.628C19.8749 19.4699 20.2243 19.3908 20.5049 19.1778C20.7856 18.9648 20.9655 18.6419 21.3255 17.9962L21.6532 17.4084Z" stroke="#5F489D" stroke-width="1.5"/>
</svg>
