<svg width="46" height="46" viewBox="0 0 46 46" fill="none" xmlns="http://www.w3.org/2000/svg">
<path fill-rule="evenodd" clip-rule="evenodd" d="M30.0354 5.10745C29.6803 4.39735 28.8169 4.10953 28.1068 4.46458C27.3967 4.81962 27.1088 5.68309 27.4639 6.39318L30.9808 13.4271C30.0547 13.417 29.0441 13.417 27.941 13.417H18.0584C16.9552 13.417 15.9446 13.417 15.0184 13.4271L18.5354 6.39318C18.8904 5.68309 18.6026 4.81962 17.8925 4.46458C17.1824 4.10953 16.3189 4.39735 15.9639 5.10745L11.745 13.5452C9.1516 13.7445 7.52419 14.2532 6.47413 15.5521C4.74808 17.6872 5.43661 20.9003 6.81366 27.3266L7.63509 31.1599C8.56846 35.5156 9.03514 37.6935 10.6165 38.9719C12.1979 40.2503 14.4252 40.2503 18.8798 40.2503H27.1196C31.5742 40.2503 33.8015 40.2503 35.3829 38.9719C36.9643 37.6935 37.4309 35.5156 38.3643 31.1599L39.1857 27.3266L39.1858 27.3265C40.5628 20.9003 41.2513 17.6872 39.5253 15.5521C38.4752 14.2532 36.8477 13.7445 34.2543 13.5452L30.0354 5.10745ZM26.9245 27.02C26.1512 26.3533 25.1312 25.9667 23.8645 25.86L23.0686 25.7788L27.4045 21.56V20H18.0445L18.0645 22.18H24.0294L20.2045 25.94V27.48H22.3245C23.3112 27.48 24.0845 27.6667 24.6445 28.04C25.2045 28.4133 25.4845 28.9667 25.4845 29.7C25.4845 30.1533 25.3579 30.56 25.1045 30.92C24.8645 31.2667 24.5112 31.54 24.0445 31.74C23.5779 31.9267 23.0179 32.02 22.3645 32.02C21.6579 32.02 20.9645 31.8933 20.2845 31.64C19.6045 31.3867 18.9845 31.0333 18.4245 30.58L17.3645 32.56C18.0045 33.0267 18.7845 33.4067 19.7045 33.7C20.6379 33.98 21.5845 34.12 22.5445 34.12C23.6912 34.12 24.6779 33.9333 25.5045 33.56C26.3312 33.1733 26.9712 32.6467 27.4245 31.98C27.8779 31.3 28.1045 30.52 28.1045 29.64C28.1045 28.5467 27.7112 27.6733 26.9245 27.02Z" fill="#5F489D"/>
</svg>
