<svg width="195" height="160" viewBox="0 0 195 160" fill="none" xmlns="http://www.w3.org/2000/svg">
<g clip-path="url(#clip0_2473_3519)">
<path fill-rule="evenodd" clip-rule="evenodd" d="M34.0614 110.36H35.4417C35.6014 110.36 35.7547 110.424 35.8677 110.537C35.9806 110.65 36.0442 110.803 36.0443 110.962V112.343C36.0441 112.503 35.9806 112.656 35.8676 112.769C35.7546 112.882 35.6014 112.945 35.4417 112.945H34.0614C33.9018 112.945 33.749 112.881 33.6361 112.768C33.5233 112.655 33.4596 112.503 33.459 112.343V110.962C33.4561 110.632 33.7275 110.36 34.0614 110.36ZM38.847 110.36H40.2275C40.3871 110.361 40.54 110.424 40.6528 110.537C40.7656 110.65 40.8293 110.803 40.8299 110.962V112.343C40.8298 112.503 40.7663 112.656 40.6533 112.769C40.5404 112.882 40.3873 112.945 40.2275 112.945H38.847C38.6874 112.945 38.5346 112.881 38.4217 112.768C38.3089 112.655 38.2452 112.503 38.2446 112.343V110.962C38.2452 110.803 38.3089 110.65 38.4217 110.537C38.5346 110.424 38.6874 110.361 38.847 110.36ZM43.6361 110.36H45.0163C45.176 110.361 45.3289 110.424 45.4418 110.537C45.5547 110.65 45.6184 110.803 45.619 110.962V112.343C45.6188 112.503 45.5552 112.656 45.4422 112.769C45.3293 112.882 45.1761 112.945 45.0163 112.945H43.6361C43.4765 112.945 43.3236 112.881 43.2108 112.768C43.098 112.655 43.0343 112.503 43.0337 112.343V110.962C43.0307 110.632 43.3022 110.36 43.6361 110.36ZM48.4217 110.36H49.8022C49.9618 110.361 50.1146 110.424 50.2275 110.537C50.3403 110.65 50.404 110.803 50.4046 110.962V112.343C50.4045 112.503 50.341 112.656 50.228 112.769C50.1151 112.882 49.9619 112.945 49.8022 112.945H48.4217C48.2616 112.945 48.1081 112.882 47.9947 112.769C47.8812 112.656 47.8171 112.503 47.8163 112.343V110.962C47.8181 110.803 47.8825 110.65 47.9957 110.537C48.109 110.425 48.2619 110.361 48.4217 110.36ZM53.2078 110.36H54.5883C54.7484 110.36 54.9019 110.423 55.0153 110.536C55.1288 110.649 55.1929 110.802 55.1937 110.962V112.343C55.1935 112.422 55.1777 112.501 55.1472 112.574C55.1167 112.647 55.072 112.714 55.0158 112.77C54.9596 112.826 54.8929 112.87 54.8196 112.9C54.7462 112.93 54.6676 112.946 54.5883 112.945H53.2078C53.0482 112.945 52.8954 112.881 52.7825 112.768C52.6697 112.655 52.606 112.503 52.6054 112.343V110.962C52.606 110.803 52.6697 110.65 52.7825 110.537C52.8954 110.424 53.0482 110.361 53.2078 110.36ZM39.0227 115.579H40.403C40.5626 115.579 40.7154 115.643 40.8283 115.756C40.9411 115.869 41.0048 116.022 41.0054 116.181V117.564C41.0048 117.724 40.9412 117.877 40.8284 117.99C40.7155 118.103 40.5626 118.166 40.403 118.167H39.0227C38.8629 118.167 38.7097 118.103 38.5967 117.99C38.4838 117.877 38.4202 117.724 38.4201 117.564V116.184C38.4196 116.105 38.4349 116.026 38.465 115.952C38.4951 115.879 38.5394 115.812 38.5954 115.756C38.6514 115.7 38.718 115.655 38.7914 115.625C38.8647 115.594 38.9433 115.579 39.0227 115.579ZM43.8083 115.579H45.1886C45.3482 115.579 45.5011 115.643 45.614 115.756C45.7269 115.869 45.7906 116.022 45.7913 116.181V117.564C45.7906 117.724 45.7269 117.877 45.614 117.99C45.5011 118.103 45.3482 118.166 45.1886 118.167H43.8083C43.6487 118.166 43.4958 118.103 43.383 117.99C43.2701 117.877 43.2065 117.724 43.2059 117.564V116.184C43.2054 116.105 43.2207 116.026 43.2507 115.953C43.2808 115.879 43.3251 115.812 43.3811 115.756C43.4371 115.7 43.5037 115.655 43.577 115.625C43.6503 115.594 43.729 115.579 43.8083 115.579ZM48.5945 115.579H49.9747C50.1348 115.579 50.2883 115.642 50.4017 115.755C50.5152 115.868 50.5793 116.021 50.5801 116.181V117.564C50.5794 117.724 50.5153 117.878 50.4018 117.991C50.2884 118.104 50.1348 118.167 49.9747 118.167H48.5945C48.4349 118.166 48.282 118.103 48.1691 117.99C48.0563 117.877 47.9926 117.724 47.9921 117.564V116.184C47.9921 116.024 48.0554 115.871 48.1683 115.757C48.2812 115.644 48.4344 115.58 48.5945 115.579ZM43.6361 104.754H45.0163C45.176 104.754 45.3288 104.818 45.4417 104.931C45.5546 105.044 45.6183 105.197 45.619 105.356V106.737C45.6189 106.896 45.5553 107.05 45.4423 107.163C45.3293 107.275 45.1761 107.339 45.0163 107.339H43.6361C43.4765 107.338 43.3236 107.275 43.2108 107.162C43.098 107.049 43.0343 106.896 43.0337 106.737V105.356C43.0307 105.025 43.3022 104.754 43.6361 104.754ZM48.4217 104.754H49.8022C49.9618 104.754 50.1147 104.818 50.2276 104.931C50.3404 105.044 50.404 105.197 50.4046 105.356V106.737C50.4045 106.896 50.341 107.05 50.2281 107.162C50.1151 107.275 49.962 107.339 49.8022 107.339H48.4217C48.2616 107.339 48.1081 107.276 47.9947 107.163C47.8812 107.05 47.8171 106.897 47.8163 106.737V105.356C47.8181 105.197 47.8825 105.044 47.9957 104.931C48.1089 104.818 48.2619 104.755 48.4217 104.754ZM152.042 32.2558H153.422C153.582 32.2559 153.735 32.3194 153.848 32.4323C153.961 32.5453 154.024 32.6984 154.025 32.8582V34.2387C154.024 34.3985 153.961 34.5516 153.848 34.6646C153.735 34.7775 153.582 34.841 153.422 34.8411H152.042C151.882 34.8405 151.729 34.7768 151.616 34.664C151.504 34.5512 151.44 34.3983 151.439 34.2387V32.8582C151.436 32.5273 151.708 32.2558 152.042 32.2558ZM156.827 32.2558H158.208C158.367 32.2564 158.52 32.32 158.633 32.4329C158.746 32.5457 158.81 32.6986 158.81 32.8582V34.2387C158.81 34.3985 158.747 34.5517 158.634 34.6646C158.521 34.7776 158.367 34.8411 158.208 34.8411H156.827C156.668 34.8405 156.515 34.7768 156.402 34.664C156.289 34.5512 156.226 34.3983 156.225 34.2387V32.8582C156.226 32.6986 156.289 32.5458 156.402 32.433C156.515 32.3201 156.668 32.2564 156.827 32.2558ZM161.616 32.2558H162.997C163.156 32.2564 163.309 32.32 163.422 32.4329C163.535 32.5457 163.599 32.6986 163.599 32.8582V34.2387C163.599 34.3985 163.535 34.5516 163.423 34.6646C163.31 34.7775 163.156 34.841 162.997 34.8411H161.616C161.457 34.8405 161.304 34.7768 161.191 34.664C161.078 34.5512 161.015 34.3983 161.014 34.2387V32.8582C161.011 32.5273 161.282 32.2558 161.616 32.2558ZM166.402 32.2558H167.782C167.942 32.2564 168.095 32.32 168.208 32.4329C168.321 32.5457 168.384 32.6986 168.385 32.8582V34.2387C168.385 34.3985 168.321 34.5517 168.208 34.6646C168.095 34.7776 167.942 34.8411 167.782 34.8411H166.402C166.242 34.8411 166.088 34.7778 165.975 34.6649C165.861 34.552 165.797 34.3988 165.797 34.2387V32.8582C165.798 32.6985 165.863 32.5458 165.976 32.4331C166.089 32.3205 166.242 32.2568 166.402 32.2558ZM171.188 32.2558H172.569C172.729 32.2558 172.882 32.3192 172.996 32.4321C173.109 32.545 173.173 32.6982 173.174 32.8582V34.2387C173.174 34.3181 173.158 34.3965 173.127 34.4697C173.097 34.5429 173.052 34.6094 172.996 34.6654C172.94 34.7213 172.873 34.7656 172.8 34.7958C172.727 34.8259 172.648 34.8414 172.569 34.8411H171.188C171.029 34.8405 170.876 34.7768 170.763 34.664C170.65 34.5512 170.586 34.3983 170.586 34.2387V32.8582C170.586 32.6986 170.65 32.5458 170.763 32.433C170.876 32.3201 171.029 32.2564 171.188 32.2558ZM157.003 37.4745H158.383C158.543 37.4751 158.696 37.5388 158.809 37.6516C158.921 37.7645 158.985 37.9173 158.986 38.0769V39.4601C158.985 39.6197 158.921 39.7726 158.809 39.8855C158.696 39.9984 158.543 40.0621 158.383 40.0627H157.003C156.843 40.0626 156.69 39.9991 156.577 39.8861C156.464 39.7731 156.4 39.6199 156.4 39.4601V38.0798C156.4 38.0004 156.415 37.9217 156.445 37.8482C156.475 37.7748 156.52 37.708 156.576 37.6517C156.632 37.5954 156.698 37.5508 156.772 37.5204C156.845 37.49 156.924 37.4744 157.003 37.4745ZM161.789 37.4745H163.169C163.328 37.475 163.481 37.5387 163.594 37.6515C163.707 37.7644 163.771 37.9173 163.772 38.0769V39.4601C163.771 39.6197 163.707 39.7726 163.594 39.8855C163.481 39.9983 163.329 40.062 163.169 40.0627H161.789C161.629 40.0621 161.476 39.9984 161.363 39.8855C161.25 39.7726 161.187 39.6197 161.186 39.4601V38.0798C161.186 38.0004 161.201 37.9217 161.231 37.8483C161.261 37.7748 161.305 37.708 161.361 37.6517C161.417 37.5954 161.484 37.5508 161.557 37.5204C161.631 37.49 161.709 37.4744 161.789 37.4745ZM166.575 37.4745H167.955C168.115 37.4745 168.269 37.5379 168.382 37.6507C168.495 37.7636 168.56 37.9168 168.56 38.0769V39.4601C168.56 39.6202 168.496 39.7734 168.382 39.8864C168.269 39.9993 168.115 40.0627 167.955 40.0627H166.575C166.415 40.0621 166.262 39.9984 166.149 39.8855C166.037 39.7726 165.973 39.6197 165.972 39.4601V38.0798C165.972 37.9198 166.036 37.7663 166.149 37.6528C166.261 37.5394 166.415 37.4753 166.575 37.4745ZM161.616 26.6494H162.997C163.156 26.65 163.309 26.7136 163.422 26.8265C163.535 26.9393 163.599 27.0922 163.599 27.2518V28.6323C163.599 28.7921 163.535 28.9452 163.423 29.0582C163.31 29.1711 163.156 29.2346 162.997 29.2347H161.616C161.457 29.2341 161.304 29.1704 161.191 29.0576C161.078 28.9448 161.015 28.7919 161.014 28.6323V27.2518C161.011 26.9209 161.282 26.6494 161.616 26.6494ZM166.402 26.6494H167.782C167.942 26.65 168.095 26.7136 168.208 26.8265C168.321 26.9393 168.384 27.0922 168.385 27.2518V28.6323C168.385 28.7921 168.321 28.9453 168.208 29.0582C168.095 29.1712 167.942 29.2347 167.782 29.2347H166.402C166.242 29.2347 166.088 29.1714 165.975 29.0585C165.861 28.9456 165.797 28.7924 165.797 28.6323V27.2518C165.798 27.0921 165.863 26.9394 165.976 26.8267C166.089 26.7141 166.242 26.6504 166.402 26.6494ZM38.675 33.5739H40.0555C40.2153 33.5741 40.3684 33.6376 40.4813 33.7505C40.5943 33.8635 40.6578 34.0166 40.6579 34.1763V35.5569C40.6578 35.7166 40.5943 35.8697 40.4813 35.9827C40.3684 36.0956 40.2153 36.1591 40.0555 36.1593H38.675C38.5154 36.1587 38.3626 36.095 38.2497 35.9821C38.1369 35.8693 38.0732 35.7165 38.0726 35.5569V34.1763C38.0697 33.8454 38.3414 33.5739 38.675 33.5739ZM43.4609 33.5739H44.8411C45.0007 33.5746 45.1536 33.6382 45.2664 33.7511C45.3792 33.8639 45.4429 34.0168 45.4435 34.1763V35.5569C45.4434 35.7166 45.3799 35.8697 45.2669 35.9827C45.154 36.0956 45.0009 36.1591 44.8411 36.1593H43.4609C43.3013 36.1587 43.1483 36.0951 43.0354 35.9822C42.9225 35.8694 42.8588 35.7165 42.8582 35.5569V34.1763C42.8588 34.0167 42.9225 33.8638 43.0354 33.751C43.1483 33.6381 43.3013 33.5745 43.4609 33.5739ZM48.2497 33.5739H49.6302C49.7898 33.5746 49.9426 33.6382 50.0555 33.7511C50.1683 33.8639 50.232 34.0168 50.2326 34.1763V35.5569C50.2325 35.7166 50.169 35.8697 50.056 35.9827C49.9431 36.0956 49.7899 36.1591 49.6302 36.1593H48.2497C48.0901 36.1587 47.9372 36.095 47.8244 35.9821C47.7116 35.8693 47.6479 35.7165 47.6473 35.5569V34.1763C47.6443 33.8454 47.9161 33.5739 48.2497 33.5739ZM53.0355 33.5739H54.4158C54.5754 33.5746 54.7282 33.6382 54.8411 33.7511C54.9539 33.8639 55.0176 34.0168 55.0182 34.1763V35.5569C55.0181 35.7166 54.9546 35.8697 54.8416 35.9827C54.7287 36.0956 54.5755 36.1591 54.4158 36.1593H53.0355C52.8755 36.1593 52.722 36.0959 52.6085 35.983C52.4951 35.8701 52.431 35.7169 52.4302 35.5569V34.1763C52.432 34.0166 52.4964 33.864 52.6096 33.7513C52.7228 33.6386 52.8758 33.5749 53.0355 33.5739ZM57.8217 33.5739H59.2019C59.362 33.5739 59.5155 33.6373 59.6289 33.7502C59.7424 33.8631 59.8065 34.0163 59.8073 34.1763V35.5569C59.8071 35.6362 59.7914 35.7147 59.7609 35.7879C59.7303 35.8611 59.6857 35.9276 59.6295 35.9836C59.5733 36.0395 59.5066 36.0838 59.4332 36.114C59.3598 36.1441 59.2813 36.1595 59.2019 36.1593H57.8217C57.6621 36.1587 57.5091 36.0951 57.3962 35.9822C57.2833 35.8694 57.2196 35.7165 57.219 35.5569V34.1763C57.2196 34.0167 57.2833 33.8638 57.3962 33.751C57.5091 33.6381 57.6621 33.5745 57.8217 33.5739ZM43.6363 38.7926H45.0169C45.1765 38.7932 45.3294 38.857 45.4422 38.9698C45.5551 39.0827 45.6187 39.2357 45.6193 39.3953V40.7785C45.6186 40.9381 45.555 41.0909 45.4421 41.2037C45.3293 41.3166 45.1764 41.3802 45.0169 41.3809H43.6363C43.4766 41.3807 43.3235 41.3172 43.2105 41.2043C43.0976 41.0913 43.0341 40.9382 43.0339 40.7785V39.3979C43.0335 39.3186 43.0487 39.2399 43.0788 39.1664C43.1089 39.093 43.1532 39.0262 43.2092 38.9699C43.2652 38.9137 43.3317 38.869 43.405 38.8386C43.4784 38.8082 43.557 38.7925 43.6363 38.7926ZM48.4222 38.7926H49.8025C49.9621 38.7932 50.115 38.857 50.2278 38.9698C50.3407 39.0827 50.4043 39.2357 50.4049 39.3953V40.7785C50.4042 40.9381 50.3406 41.0909 50.2277 41.2037C50.1149 41.3166 49.962 41.3802 49.8025 41.3809H48.4222C48.2626 41.3803 48.1097 41.3167 47.9968 41.2038C47.8839 41.091 47.8202 40.9381 47.8195 40.7785V39.3979C47.8191 39.3186 47.8344 39.2399 47.8645 39.1664C47.8946 39.093 47.9389 39.0262 47.995 38.9699C48.051 38.9137 48.1175 38.869 48.1909 38.8386C48.2642 38.8082 48.3428 38.7925 48.4222 38.7926ZM53.2083 38.7926H54.5886C54.7487 38.7927 54.9022 38.8561 55.0156 38.969C55.1291 39.082 55.1932 39.2352 55.1939 39.3953V40.7785C55.1932 40.9385 55.129 41.0917 55.0156 41.2046C54.9022 41.3175 54.7486 41.3809 54.5886 41.3809H53.2083C53.0487 41.3803 52.8958 41.3167 52.7829 41.2038C52.67 41.091 52.6063 40.9381 52.6057 40.7785V39.3979C52.6057 39.2379 52.6691 39.0843 52.782 38.9709C52.895 38.8574 53.0483 38.7933 53.2083 38.7926ZM48.2497 27.9675H49.6302C49.7898 27.9682 49.9427 28.0319 50.0556 28.1448C50.1684 28.2577 50.232 28.4106 50.2326 28.5702V29.9505C50.2325 30.1102 50.169 30.2634 50.0561 30.3764C49.9431 30.4893 49.7899 30.5528 49.6302 30.5529H48.2497C48.0901 30.5522 47.9372 30.4886 47.8244 30.3757C47.7116 30.2629 47.6479 30.1101 47.6473 29.9505V28.5702C47.6443 28.2393 47.9161 27.9675 48.2497 27.9675ZM53.0355 27.9675H54.4158C54.5754 27.9682 54.7283 28.0319 54.8412 28.1448C54.954 28.2577 55.0176 28.4106 55.0182 28.5702V29.9505C55.0181 30.1102 54.9546 30.2634 54.8417 30.3764C54.7287 30.4893 54.5756 30.5528 54.4158 30.5529H53.0355C52.8755 30.5529 52.722 30.4895 52.6085 30.3766C52.4951 30.2637 52.431 30.1105 52.4302 29.9505V28.5702C52.4319 28.4104 52.4963 28.2577 52.6095 28.145C52.7228 28.0322 52.8758 27.9685 53.0355 27.9675ZM153.569 110.673H154.949C155.109 110.673 155.262 110.737 155.375 110.849C155.488 110.962 155.551 111.116 155.552 111.275V112.656C155.551 112.815 155.488 112.969 155.375 113.082C155.262 113.195 155.109 113.258 154.949 113.258H153.569C153.409 113.258 153.256 113.194 153.143 113.081C153.03 112.968 152.967 112.815 152.966 112.656V111.275C152.963 110.944 153.235 110.673 153.569 110.673ZM158.354 110.673H159.735C159.894 110.674 160.047 110.737 160.16 110.85C160.273 110.963 160.337 111.116 160.337 111.275V112.656C160.337 112.815 160.274 112.969 160.161 113.082C160.048 113.195 159.895 113.258 159.735 113.258H158.354C158.195 113.258 158.042 113.194 157.929 113.081C157.816 112.968 157.753 112.815 157.752 112.656V111.275C157.752 111.116 157.816 110.963 157.929 110.85C158.042 110.737 158.195 110.673 158.354 110.673ZM163.144 110.673H164.524C164.683 110.674 164.836 110.737 164.949 110.85C165.062 110.963 165.126 111.116 165.126 111.275V112.656C165.126 112.815 165.063 112.969 164.95 113.082C164.837 113.195 164.684 113.258 164.524 113.258H163.144C162.984 113.258 162.831 113.194 162.718 113.081C162.605 112.968 162.542 112.815 162.541 112.656V111.275C162.538 110.944 162.81 110.673 163.144 110.673ZM167.929 110.673H169.309C169.469 110.673 169.622 110.737 169.735 110.85C169.848 110.963 169.911 111.116 169.912 111.275V112.656C169.912 112.815 169.848 112.969 169.735 113.082C169.622 113.195 169.469 113.258 169.309 113.258H167.929C167.769 113.258 167.615 113.195 167.502 113.082C167.389 112.969 167.325 112.816 167.324 112.656V111.275C167.326 111.116 167.39 110.963 167.503 110.85C167.616 110.738 167.769 110.674 167.929 110.673ZM172.715 110.673H174.096C174.256 110.673 174.409 110.736 174.523 110.849C174.636 110.962 174.7 111.115 174.701 111.275V112.656C174.701 112.735 174.685 112.813 174.654 112.887C174.624 112.96 174.579 113.026 174.523 113.082C174.467 113.138 174.4 113.183 174.327 113.213C174.253 113.243 174.175 113.258 174.096 113.258H172.715C172.556 113.258 172.403 113.194 172.29 113.081C172.177 112.968 172.113 112.815 172.113 112.656V111.275C172.114 111.116 172.177 110.963 172.29 110.85C172.403 110.737 172.556 110.674 172.715 110.673ZM158.53 115.892H159.91C160.07 115.892 160.223 115.956 160.336 116.069C160.449 116.182 160.512 116.334 160.513 116.494V117.877C160.512 118.037 160.449 118.19 160.336 118.302C160.223 118.415 160.07 118.479 159.91 118.48H158.53C158.37 118.479 158.217 118.416 158.104 118.303C157.991 118.19 157.928 118.037 157.928 117.877V116.497C157.927 116.417 157.942 116.339 157.972 116.265C158.002 116.192 158.047 116.125 158.103 116.069C158.159 116.013 158.225 115.968 158.299 115.937C158.372 115.907 158.451 115.891 158.53 115.892ZM163.316 115.892H164.696C164.856 115.892 165.008 115.956 165.121 116.069C165.234 116.182 165.298 116.334 165.298 116.494V117.877C165.298 118.037 165.234 118.19 165.121 118.302C165.008 118.415 164.856 118.479 164.696 118.48H163.316C163.156 118.479 163.003 118.415 162.89 118.302C162.777 118.19 162.714 118.037 162.713 117.877V116.497C162.713 116.417 162.728 116.339 162.758 116.265C162.788 116.192 162.832 116.125 162.888 116.069C162.944 116.012 163.011 115.968 163.084 115.937C163.158 115.907 163.236 115.891 163.316 115.892ZM168.102 115.892H169.482C169.642 115.892 169.796 115.955 169.909 116.068C170.023 116.181 170.087 116.334 170.088 116.494V117.877C170.087 118.037 170.023 118.19 169.909 118.303C169.796 118.416 169.642 118.48 169.482 118.48H168.102C167.942 118.479 167.789 118.415 167.676 118.302C167.564 118.19 167.5 118.037 167.499 117.877V116.497C167.499 116.337 167.563 116.183 167.676 116.07C167.788 115.956 167.942 115.892 168.102 115.892ZM163.144 105.066H164.524C164.683 105.067 164.836 105.131 164.949 105.244C165.062 105.356 165.126 105.509 165.126 105.669V107.049C165.126 107.209 165.063 107.362 164.95 107.475C164.837 107.588 164.684 107.652 164.524 107.652H163.144C162.984 107.651 162.831 107.588 162.718 107.475C162.605 107.362 162.542 107.209 162.541 107.049V105.669C162.538 105.338 162.81 105.066 163.144 105.066ZM167.929 105.066H169.309C169.469 105.067 169.622 105.131 169.735 105.244C169.848 105.356 169.911 105.509 169.912 105.669V107.049C169.912 107.209 169.848 107.362 169.735 107.475C169.622 107.588 169.469 107.652 169.309 107.652H167.929C167.769 107.652 167.616 107.588 167.502 107.476C167.389 107.363 167.325 107.209 167.324 107.049V105.669C167.326 105.509 167.39 105.356 167.503 105.244C167.616 105.131 167.769 105.067 167.929 105.066Z" fill="#5F489D"/>
<path d="M173.747 82.1241C168.473 83.3734 162.895 78.9006 162.895 78.9006C162.895 78.9006 165.871 72.4043 171.147 71.159C176.421 69.9094 181.997 74.3785 181.997 74.3785C181.997 74.3785 179.021 80.8745 173.747 82.1241Z" fill="url(#paint0_linear_2473_3519)"/>
<path d="M13.4529 84.4751C8.17872 85.7244 2.60059 81.2516 2.60059 81.2516C2.60059 81.2516 5.57739 74.7556 10.8531 73.51C16.1273 72.2607 21.7035 76.7294 21.7035 76.7294C21.7035 76.7294 18.7267 83.2257 13.4529 84.4751Z" fill="url(#paint1_linear_2473_3519)"/>
<path d="M80.2866 26.3267C86.8948 24.9907 90.866 17.0326 90.866 17.0326C90.866 17.0326 84.1196 11.2451 77.5114 12.5865C70.9028 13.9225 66.9316 21.8753 66.9316 21.8753C66.9316 21.8753 73.678 27.6627 80.2866 26.3267Z" fill="url(#paint2_linear_2473_3519)"/>
<path d="M134.563 136.926C142.933 135.003 147.723 124.735 147.723 124.735C147.723 124.735 138.937 117.591 130.567 119.521C122.196 121.445 117.406 131.706 117.406 131.706C117.406 131.706 126.192 138.849 134.563 136.926Z" fill="url(#paint3_linear_2473_3519)"/>
<path d="M186.232 93.5491C183.761 93.5491 181.758 95.4648 181.758 97.828C181.758 100.191 183.761 102.107 186.232 102.107C188.702 102.107 190.705 100.191 190.705 97.828C190.705 95.4648 188.702 93.5491 186.232 93.5491Z" fill="#5F489D"/>
<path d="M55.9288 128.29C53.778 128.29 52.0344 130.034 52.0344 132.185C52.0344 134.336 53.778 136.079 55.9288 136.079C58.0797 136.079 59.8232 134.336 59.8232 132.185C59.8232 130.034 58.0797 128.29 55.9288 128.29Z" fill="#5F489D"/>
<path d="M39.883 58.611C38.7014 58.611 37.7435 57.6531 37.7435 56.4715C37.7435 55.2899 38.7014 54.332 39.883 54.332C41.0646 54.332 42.0225 55.2899 42.0225 56.4715C42.0225 57.6531 41.0646 58.611 39.883 58.611Z" fill="#5F489D"/>
<path d="M181.751 45.0082C179.765 45.0082 178.156 43.3316 178.156 41.2634C178.156 39.1952 179.765 37.5186 181.751 37.5186C183.736 37.5186 185.346 39.1952 185.346 41.2634C185.346 43.3316 183.736 45.0082 181.751 45.0082Z" fill="#5F489D"/>
<path d="M15.0369 107.32C13.4652 107.32 12.1911 106.046 12.1911 104.474C12.1911 102.902 13.4652 101.628 15.0369 101.628C16.6087 101.628 17.8828 102.902 17.8828 104.474C17.8828 106.046 16.6087 107.32 15.0369 107.32Z" fill="#5F489D"/>
<path d="M82.2999 131.466C80.3853 131.466 78.8333 129.974 78.8333 128.133C78.8333 126.292 80.3853 124.8 82.2999 124.8C84.2145 124.8 85.7666 126.292 85.7666 128.133C85.7666 129.974 84.2145 131.466 82.2999 131.466Z" fill="#5F489D"/>
<path d="M37.7166 83.9374C36.4577 83.9374 35.4372 82.9168 35.4372 81.6579C35.4372 80.399 36.4577 79.3784 37.7166 79.3784C38.9755 79.3784 39.9961 80.399 39.9961 81.6579C39.9961 82.9168 38.9755 83.9374 37.7166 83.9374Z" fill="#5F489D"/>
<path d="M102.967 140C101.862 140 100.967 139.045 100.967 137.867C100.967 136.689 101.862 135.733 102.967 135.733C104.071 135.733 104.967 136.689 104.967 137.867C104.967 139.045 104.071 140 102.967 140Z" fill="#5F489D"/>
<path d="M117.49 20.4385C116.415 20.4385 115.544 19.5676 115.544 18.4934C115.544 17.4192 116.415 16.5483 117.49 16.5483C118.564 16.5483 119.435 17.4192 119.435 18.4934C119.435 19.5676 118.564 20.4385 117.49 20.4385Z" fill="#5F489D"/>
<path d="M30.1341 95.3754C30.4058 96.3893 29.8041 97.4314 28.7903 97.7031C27.7764 97.9748 26.7343 97.3731 26.4626 96.3592C26.1909 95.3453 26.7926 94.3032 27.8065 94.0315C28.8203 93.7599 29.8625 94.3616 30.1341 95.3754Z" fill="#5F489D"/>
<path d="M43.951 16.6557C42.5545 16.6557 41.4224 15.5236 41.4224 14.1272C41.4224 12.7307 42.5545 11.5986 43.951 11.5986C45.3474 11.5986 46.4795 12.7307 46.4795 14.1272C46.4795 15.5236 45.3474 16.6557 43.951 16.6557Z" fill="#5F489D"/>
<path d="M169.863 58.7624C168.788 58.7624 167.917 58.0657 167.917 57.2064C167.917 56.347 168.788 55.6504 169.863 55.6504C170.937 55.6504 171.808 56.347 171.808 57.2064C171.808 58.0657 170.937 58.7624 169.863 58.7624Z" fill="#5F489D"/>
<path d="M140.13 28.3372C140.695 30.4473 139.443 32.6162 137.333 33.1816C135.223 33.747 133.054 32.4948 132.489 30.3847C131.923 28.2745 133.175 26.1056 135.286 25.5402C137.396 24.9748 139.565 26.227 140.13 28.3372Z" fill="#5F489D"/>
<path d="M190.506 54.0026H190.557C190.858 58.2716 194.033 58.3372 194.033 58.3372C194.033 58.3372 190.532 58.4055 190.532 63.3383C190.532 58.4055 187.031 58.3372 187.031 58.3372C187.031 58.3372 190.205 58.2716 190.506 54.0026ZM22.3065 35.877H22.3943C22.9132 43.3479 28.3809 43.4628 28.3809 43.4628C28.3809 43.4628 22.3516 43.5823 22.3516 52.2148C22.3516 43.5823 16.3223 43.4628 16.3223 43.4628C16.3223 43.4628 21.7876 43.3479 22.3065 35.877Z" fill="#5F489D"/>
<path fill-rule="evenodd" clip-rule="evenodd" d="M138.667 80.0002C138.667 103.012 120.012 121.667 97.0002 121.667C73.9883 121.667 55.3335 103.012 55.3335 80.0002C55.3335 56.9883 73.9883 38.3335 97.0002 38.3335C120.012 38.3335 138.667 56.9883 138.667 80.0002ZM113.793 67.3738C115.014 68.5942 115.014 70.5728 113.793 71.7932L92.9599 92.6265C91.7395 93.8469 89.7608 93.8469 88.5405 92.6265L80.2071 84.2932C78.9867 83.0728 78.9867 81.0942 80.2071 79.8738C81.4275 78.6534 83.4061 78.6534 84.6265 79.8738L90.7502 85.9974L100.062 76.6856L109.374 67.3738C110.594 66.1534 112.573 66.1534 113.793 67.3738Z" fill="#5F489D"/>
</g>
<defs>
<linearGradient id="paint0_linear_2473_3519" x1="153.886" y1="85.2305" x2="200.055" y2="63.4187" gradientUnits="userSpaceOnUse">
<stop stop-color="white"/>
<stop offset="1" stop-color="#EEEEEE"/>
</linearGradient>
<linearGradient id="paint1_linear_2473_3519" x1="-6.40795" y1="87.5815" x2="39.7611" y2="65.7697" gradientUnits="userSpaceOnUse">
<stop stop-color="white"/>
<stop offset="1" stop-color="#EEEEEE"/>
</linearGradient>
<linearGradient id="paint2_linear_2473_3519" x1="104.339" y1="19.4905" x2="40.8247" y2="18.9014" gradientUnits="userSpaceOnUse">
<stop stop-color="white"/>
<stop offset="1" stop-color="#EEEEEE"/>
</linearGradient>
<linearGradient id="paint3_linear_2473_3519" x1="164.964" y1="127.412" x2="84.0601" y2="128.796" gradientUnits="userSpaceOnUse">
<stop stop-color="white"/>
<stop offset="1" stop-color="#EEEEEE"/>
</linearGradient>
<clipPath id="clip0_2473_3519">
<rect width="194" height="160" fill="white" transform="translate(0.5)"/>
</clipPath>
</defs>
</svg>
