<svg width="24" height="24" viewBox="0 0 24 24" fill="none" xmlns="http://www.w3.org/2000/svg">
<g clip-path="url(#clip0_290_385)">
<path d="M12.0009 23.7192C18.4735 23.7192 23.7206 18.4722 23.7206 11.9996C23.7206 5.52698 18.4735 0.279907 12.0009 0.279907C5.52832 0.279907 0.28125 5.52698 0.28125 11.9996C0.28125 18.4722 5.52832 23.7192 12.0009 23.7192Z" fill="#5AFEAE"/>
<path d="M15.4422 16.0778C15.0293 16.2811 14.5754 16.3866 14.1151 16.3845C13.1237 16.3845 12.5615 16.2258 12.4998 15.4249V15.3711C12.4998 15.3393 12.4963 15.3109 12.4963 15.2741V12.9408L12.4998 12.666V11.021H12.4963V10.3221L12.4998 10.0452V8.45688L10.0412 8.7812C11.7039 8.45971 12.6585 7.14399 12.6585 5.83252V5.02454H9.89603V8.80174L9.74023 8.84564V15.8413C9.83158 17.8064 11.1261 18.9748 13.2512 18.9748C14.0025 18.9748 14.8296 18.8042 15.4627 18.5167L15.4769 18.511V16.0573L15.4414 16.0786V16.0778H15.4422Z" fill="#292929"/>
<path d="M15.877 7.89111L8.125 9.08574V11.0515L15.877 9.8569V7.89111Z" fill="#292929"/>
<path d="M15.877 10.7668L8.125 11.9615V13.8395L15.877 12.6441V10.7668Z" fill="#292929"/>
</g>
<defs>
<clipPath id="clip0_290_385">
<rect width="24" height="24" fill="white"/>
</clipPath>
</defs>
</svg>
