<svg width="18" height="18" viewBox="0 0 18 18" fill="none" xmlns="http://www.w3.org/2000/svg">
<path d="M12.75 15C13.5784 15 14.25 14.3284 14.25 13.5C14.25 12.6716 13.5784 12 12.75 12C11.9216 12 11.25 12.6716 11.25 13.5C11.25 14.3284 11.9216 15 12.75 15Z" stroke="black" stroke-width="1.125"/>
<path d="M5.25 15C6.07843 15 6.75 14.3284 6.75 13.5C6.75 12.6716 6.07843 12 5.25 12C4.42157 12 3.75 12.6716 3.75 13.5C3.75 14.3284 4.42157 15 5.25 15Z" stroke="black" stroke-width="1.125"/>
<path d="M3.75 13.4793C2.92746 13.4384 2.41432 13.3159 2.04917 12.9508C1.68402 12.5857 1.56166 12.0725 1.52066 11.25M6.75 13.5H11.25M14.25 13.4793C15.0725 13.4384 15.5857 13.3159 15.9508 12.9508C16.5 12.4016 16.5 11.5178 16.5 9.75V8.25H12.975C12.4166 8.25 12.1374 8.25 11.9115 8.17657C11.4548 8.02822 11.0968 7.67017 10.9484 7.21352C10.875 6.98758 10.875 6.70838 10.875 6.15C10.875 5.31242 10.875 4.89364 10.7649 4.55471C10.5423 3.86973 10.0053 3.33269 9.32033 3.11012C8.9814 3 8.5626 3 7.725 3H1.5" stroke="black" stroke-width="1.125" stroke-linecap="round" stroke-linejoin="round"/>
<path d="M1.5 6H6" stroke="black" stroke-width="1.125" stroke-linecap="round" stroke-linejoin="round"/>
<path d="M1.5 8.25H4.5" stroke="black" stroke-width="1.125" stroke-linecap="round" stroke-linejoin="round"/>
<path d="M10.875 4.5H12.2409C13.3324 4.5 13.8781 4.5 14.3223 4.76528C14.7664 5.03057 15.0252 5.51108 15.5427 6.47213L16.5 8.25" stroke="black" stroke-width="1.125" stroke-linecap="round" stroke-linejoin="round"/>
</svg>
