<svg width="45" height="44" viewBox="0 0 45 44" fill="none" xmlns="http://www.w3.org/2000/svg">
<path d="M0.5 22C0.5 9.84974 10.3497 0 22.5 0C34.6503 0 44.5 9.84974 44.5 22C44.5 34.1503 34.6503 44 22.5 44C10.3497 44 0.5 34.1503 0.5 22Z" fill="#F5F5F5"/>
<g clip-path="url(#clip0_2781_14442)">
<path d="M27.6757 13.8647H30.4357L24.4058 20.7572L31.5 30.1345H25.9455L21.5955 24.4465L16.617 30.1345H13.8555L20.3055 22.762L13.5 13.8655H19.1955L23.1278 19.0645L27.6757 13.8647ZM26.7075 28.483H28.2367L18.3645 15.43H16.7235L26.7075 28.483Z" fill="#595D62"/>
</g>
<defs>
<clipPath id="clip0_2781_14442">
<rect width="18" height="18" fill="white" transform="translate(13.5 13)"/>
</clipPath>
</defs>
</svg>
